<?xml version="1.0" encoding="UTF-8" standalone="no"?>
<svg
   width="97.36174"
   height="42.201004"
   viewBox="0 0 97.361746 42.201001"
   version="1.1"
   id="svg3"
   sodipodi:docname="bpifrance_logo.svg"
   inkscape:version="1.4.2 (ebf0e940d0, 2025-05-08)"
   xmlns:inkscape="http://www.inkscape.org/namespaces/inkscape"
   xmlns:sodipodi="http://sodipodi.sourceforge.net/DTD/sodipodi-0.dtd"
   xmlns="http://www.w3.org/2000/svg"
   xmlns:svg="http://www.w3.org/2000/svg">
  <defs
     id="defs3" />
  <sodipodi:namedview
     id="namedview3"
     pagecolor="#ffffff"
     bordercolor="#ffffff"
     borderopacity="0"
     inkscape:showpageshadow="2"
     inkscape:pageopacity="0.0"
     inkscape:pagecheckerboard="true"
     inkscape:deskcolor="#d1d1d1"
     inkscape:zoom="4.2119074"
     inkscape:cx="54.132244"
     inkscape:cy="55.200644"
     inkscape:window-width="1920"
     inkscape:window-height="1128"
     inkscape:window-x="0"
     inkscape:window-y="0"
     inkscape:window-maximized="1"
     inkscape:current-layer="layer1"
     showborder="true">
    <inkscape:page
       x="7.0854142e-08"
       y="2.744475e-07"
       width="97.361748"
       height="42.201"
       id="page3"
       margin="10"
       bleed="0" />
  </sodipodi:namedview>
  <g
     inkscape:groupmode="layer"
     id="layer1"
     inkscape:label="Layer 1"
     transform="translate(-3.3239097,-36.325585)">
    <rect
       style="fill:#ffffff;stroke:none;stroke-width:8.47325"
       id="rect1"
       width="103.99089"
       height="47.009579"
       x="1.1871107"
       y="33.951363" />
  </g>
  <path
     fill="#4b3c3c"
     d="m 73.397,17.252001 c -1.018,0 -1.515,1.813 -1.192,4.519 0.372,3.278 3.3,3.278 5.289,2.434 v 1.614 a 11.761,11.761 0 0 1 -3.079,0.422 5.1,5.1 0 0 1 -5.513001,-5.339 c 0,-2.086 0.745,-4.966 4.693001,-4.966 a 3.847,3.847 0 0 1 4.147,4 h -3.154 c 0,-1.44 -0.3,-2.682 -1.192,-2.682 m 13.956,3.773 h -5.711 v 0.05 c 0.2,4.048 3.2,3.948 5.339,3.1 v 1.614 a 10.884,10.884 0 0 1 -3,0.422 c -4.867,0 -5.587,-3.6 -5.587,-5.463 0,-2.136 0.919,-4.867 4.644,-4.842 a 3.966,3.966 0 0 1 4.321,4.122 z M 84,19.612001 v -0.2 c -0.05,-0.993 -0.248,-2.136 -1.093,-2.136 -0.819,0 -1.117,0.968 -1.217,2.285 v 0.075 h 2.309 z m -27.514001,6.332 h -5.339 c -1.962,0 -3.377,-0.795 -3.377,-2.98 a 3,3 0 0 1 2.21,-3.03 7.836,7.836 0 0 1 1.788,-0.348 c 0.571,-0.05 1.043,-0.05 1.366,-0.05 h 0.05 v -0.3 c 0,-2.285 -2.285,-2.036 -3.551,-1.664 a 6.344,6.344 0 0 0 -0.646,0.223 v -1.49 a 11.863,11.863 0 0 1 3.129,-0.348 c 2.856,0 4.4,1.341 4.4,3.576 z m -3.3,-1.366 v -3.8 h -0.05 a 1.961,1.961 0 0 0 -2.011,2.086 c 0,1.54 0.745,1.689 1.465,1.713 z m -19.077,-8.319 v 9.685 h -3.3 v -9.685 z m 13.586,1.092 a 1.884,1.884 0 0 0 -1.987,2.136 v 6.432 h -3.3 v -6.531 c 0,-1.962 1.813,-3.452 4.619,-3.452 h 0.67 z m -5.338,-5.165 v 1.391 c -0.323,0 -0.646,0 -0.968,0.025 a 2.759,2.759 0 0 0 -0.919,0.2 1.552,1.552 0 0 0 -0.919,1.639 v 0.82 h 2.334 v 1.415 h -2.337 v 8.244 h -3.3 v -9.709 c 0,-3.6 2.458,-4.023 5.463,-4.023 z m 25.08,13.757 h -3.328 v -5.809 c 0,-2.285 -0.869,-2.409 -2.086,-2.434 h -0.226 v 8.244 h -3.3 v -9.71 c 0.273,0.025 1.167,0.05 4.147,0.05 4.793,0 4.817,2.235 4.817,4.023 z m -34.963,-11.671 a 2.136,2.136 0 1 1 2.136,-2.136 2.135,2.135 0 0 1 -2.136,2.136"
     id="path1" />
  <path
     fill="#ffcd00"
     d="m 32.473999,32.201001 a 2.136,2.136 0 1 1 2.136,-2.136 2.135,2.135 0 0 1 -2.136,2.136"
     id="path2" />
  <path
     fill="#4b3c3c"
     d="m 9.999999,25.943001 v -13.757 h 3.328 v 4.073 h 1.042 c 2.309,0 3.452,0.894 4.023,1.937 a 5.828,5.828 0 0 1 0.571,2.806 c 0,1.54 -0.472,4.917 -4.3,4.917 h -4.664 z m 5.612,-4.966 c 0,-2.111 -0.5,-3.4 -2.011,-3.4 h -0.273 v 7.028 h 0.323 c 1.465,0 1.962,-1.415 1.962,-3.625 m 13.756,0.221 a 5.829,5.829 0 0 1 -0.571,2.806 c -0.571,1.043 -1.713,1.937 -4.023,1.937 h -1.042 v 4.072 h -3.328 v -13.757 h 4.668 c 3.824,0 4.3,3.4 4.3,4.942 m -5.637,-3.626 v 7.028 h 0.269 c 1.515,0 2.011,-1.291 2.011,-3.4 0,-2.21 -0.5,-3.626 -1.962,-3.626 z"
     id="path3" />
</svg>
