<?xml version="1.0" encoding="UTF-8" standalone="no"?>
<!-- Created with Inkscape (http://www.inkscape.org/) -->

<svg
   width="64"
   height="64"
   viewBox="0 0 16.933333 16.933333"
   version="1.1"
   id="svg1"
   inkscape:version="1.4.2 (ebf0e940d0, 2025-05-08)"
   sodipodi:docname="favicon.svg"
   xmlns:inkscape="http://www.inkscape.org/namespaces/inkscape"
   xmlns:sodipodi="http://sodipodi.sourceforge.net/DTD/sodipodi-0.dtd"
   xmlns="http://www.w3.org/2000/svg"
   xmlns:svg="http://www.w3.org/2000/svg">
  <sodipodi:namedview
     id="namedview1"
     pagecolor="#ffffff"
     bordercolor="#000000"
     borderopacity="0.25"
     inkscape:showpageshadow="2"
     inkscape:pageopacity="0.0"
     inkscape:pagecheckerboard="0"
     inkscape:deskcolor="#d1d1d1"
     inkscape:document-units="mm"
     inkscape:zoom="3.8032967"
     inkscape:cx="-31.42011"
     inkscape:cy="19.588269"
     inkscape:window-width="1920"
     inkscape:window-height="1128"
     inkscape:window-x="0"
     inkscape:window-y="0"
     inkscape:window-maximized="1"
     inkscape:current-layer="g1" />
  <defs
     id="defs1" />
  <g
     inkscape:groupmode="layer"
     id="layer2"
     inkscape:label="Livello 2">
    <circle
       style="fill:#0a192f;fill-opacity:1;stroke-width:2"
       id="path1"
       cx="8.4666662"
       cy="8.4666662"
       r="8.4175873" />
  </g>
  <g
     inkscape:label="Livello 1"
     inkscape:groupmode="layer"
     id="layer1">
    <g
       id="g1"
       transform="matrix(0.29097455,0,0,0.29097455,-13.886487,-5.6845002)"
       style="fill:#000000">
      <path
         style="fill:#a8ff78;fill-opacity:1"
         d="m 63.28445,65.277597 c -0.441885,-0.532439 -0.239379,-1.309788 0.371877,-1.427506 0.279752,-0.05388 0.664381,0.115034 0.854731,0.375353 l 0.346091,0.473308 -0.435756,0.481505 c -0.52665,0.581942 -0.720952,0.598577 -1.136943,0.09734 z M 60.945569,54.231762 c -0.463383,-0.463383 -0.388964,-0.948553 0.193292,-1.260167 l 0.510792,-0.273368 0.414725,0.414725 0.414725,0.414725 -0.273368,0.510792 c -0.311614,0.582256 -0.796784,0.656675 -1.260166,0.193293 z m -4.659383,-8.314994 c -0.206925,-0.539238 0.283838,-1.15709 0.919081,-1.15709 0.616612,0 0.855621,0.393707 0.643925,1.060701 l -0.167199,0.526799 h -0.615322 c -0.338426,0 -0.689645,-0.193684 -0.780485,-0.43041 z m 11.524061,-7.328494 c -0.171678,-0.206859 -0.235346,-0.576233 -0.141485,-0.820831 l 0.170656,-0.444723 0.693804,0.08046 0.693805,0.08046 v 0.661458 0.661459 l -0.55232,0.07891 c -0.303775,0.0434 -0.692782,-0.09033 -0.86446,-0.297193 z"
         id="path138003"
         sodipodi:nodetypes="ssscsssscccssssscsssscccccss" />
      <path
         style="fill:#64ffda;fill-opacity:1"
         d="M 71.257035,67.029286 C 70.835536,66.617258 69.923439,66.121328 69.230151,65.92722 l -1.260522,-0.352925 -0.429634,0.310001 c -0.756283,0.545691 -1.120394,0.647748 -1.38105,0.387093 l -0.254387,-0.254388 0.544298,-0.691961 0.544297,-0.691962 -0.290694,-1.154452 -0.290695,-1.154452 -0.80157,-0.302559 -0.801571,-0.30256 0.116581,-0.343751 0.116581,-0.343751 h 0.924027 0.924027 l 1.036302,-1.145481 c 0.569966,-0.630015 1.098134,-1.390926 1.173706,-1.690914 0.07557,-0.299988 0.397518,-0.718143 0.715437,-0.929233 l 0.578034,-0.3838 0.688745,0.688745 0.688744,0.688744 1.580605,0.439448 1.580606,0.439447 0.995118,-0.971707 c 0.876818,-0.856194 2.178778,-1.32342 2.154768,-0.77327 -0.005,0.109141 -0.53671,0.728733 -1.18212,1.376871 l -1.173464,1.178433 0.162532,0.67365 c 0.08939,0.370508 0.252732,0.91923 0.362975,1.219382 l 0.200442,0.545732 1.574015,0.476574 1.574021,0.476574 0.58872,-0.315076 c 0.3238,-0.173291 0.74233,-0.25613 0.93008,-0.184086 0.18774,0.07204 0.90272,-0.438953 1.58884,-1.135548 l 1.24749,-1.266537 -0.28512,-1.026891 c -0.15682,-0.564789 -0.28579,-1.235249 -0.2866,-1.489911 l -10e-4,-0.463021 h 0.51897 0.51897 l 0.28784,1.124479 c 0.15832,0.618464 0.33236,1.259241 0.38678,1.423949 0.0544,0.164709 0.71251,0.446666 1.46244,0.626572 1.26085,0.302472 1.89482,0.839203 1.48057,1.25346 -0.0948,0.09477 -0.90273,0.02144 -1.79548,-0.162957 l -1.62317,-0.335261 -1.0636,1.063599 c -0.58498,0.584979 -1.19071,1.454292 -1.34606,1.931806 l -0.28247,0.868207 -0.75514,0.264876 -0.75515,0.264876 -0.5857,-0.68092 c -0.52955,-0.615645 -2.644571,-1.557269 -3.497834,-1.557269 -0.546852,0 -2.462113,2.194418 -2.469351,2.829268 -0.0066,0.580861 -0.892858,1.404065 -1.511573,1.404065 -0.180884,0 -0.673743,-0.337114 -1.095242,-0.749142 z m 1.314979,-2.079573 c 0.384534,-0.07338 1.142414,-0.58735 1.684176,-1.142165 l 0.985023,-1.008755 -0.337,-1.314908 -0.337001,-1.314907 -1.529453,-0.425226 -1.529453,-0.425226 -0.876056,0.162581 -0.876057,0.162581 -1.124479,1.07975 -1.124479,1.07975 0.01193,0.540224 c 0.0066,0.297124 0.16073,0.888921 0.342593,1.315105 l 0.33066,0.77488 1.311052,0.467585 c 0.721079,0.257172 1.549178,0.40336 1.840219,0.324863 0.291042,-0.0785 0.843786,-0.202756 1.228321,-0.276132 z m 4.98939,-12.956254 c -1.092713,-0.169309 -2.979788,-0.67722 -4.034898,-1.086001 l -0.992188,-0.384403 v -0.531297 -0.531297 l 0.595313,0.173309 c 0.327422,0.09532 1.488281,0.417393 2.579687,0.715717 l 1.984376,0.542407 2.938731,0.0081 2.93874,0.0081 2.08835,-0.490057 c 1.14859,-0.269531 3.05181,-0.980456 4.22938,-1.579833 l 2.14104,-1.089777 0.46515,0.340122 c 0.25583,0.187066 0.39619,0.451681 0.31192,0.588031 -0.33901,0.548538 -4.31996,2.271994 -6.60073,2.857632 l -2.42716,0.623226 -2.77813,-0.03073 c -1.52797,-0.0169 -3.075781,-0.07685 -3.439581,-0.133218 z m -6.195505,-11.574184 -1.300711,-0.308792 1.68068,-1.796652 1.68068,-1.796652 0.942948,0.173408 c 0.518621,0.09537 1.478728,0.410713 2.133572,0.70075 l 1.190626,0.527341 -0.74529,0.39551 -0.745294,0.395509 -0.313042,-0.258624 c -0.172173,-0.142244 -0.73296,-0.337077 -1.246193,-0.432963 l -0.933152,-0.174339 -0.720494,0.566741 c -0.923299,0.726266 -0.908029,0.974265 0.07326,1.189792 0.436562,0.09589 0.79375,0.241047 0.79375,0.322583 0,0.178773 -0.871436,0.860713 -1.058333,0.828196 -0.07276,-0.01266 -0.717612,-0.161973 -1.433003,-0.331808 z"
         id="path138001"
         sodipodi:nodetypes="cscsscccccccccccssscccccscscsscccssscsccccssssscsscccssssccssccccccccccscsssssscccsscccsscssscsssccccsscccsscsssssc" />
      <path
         style="fill:#a8ff78;fill-opacity:1"
         d="m 55.474789,68.485506 c -1.206746,-0.71565 -1.504744,-1.800968 -0.866079,-3.154287 0.470627,-0.997251 2.171894,-1.383764 3.022375,-0.686658 l 0.310308,0.254348 1.580239,-0.178784 1.580238,-0.178784 0.181834,0.572907 0.181833,0.572907 -0.31508,0.379649 c -0.173295,0.208807 -0.743404,0.497915 -1.266909,0.642462 l -0.951829,0.262812 -0.177085,-0.286531 -0.177086,-0.286531 -0.18098,0.292831 c -0.09954,0.161057 -0.10772,0.411368 -0.01818,0.556246 0.234818,0.379943 -1.02723,1.461945 -1.759265,1.508287 -0.341695,0.02163 -0.856645,-0.100263 -1.144334,-0.270874 z m 32.225126,-9.92678 c -1.26302,-1.877546 -1.6009,-3.239728 -1.24498,-5.019295 l 0.16227,-0.811394 0.80667,-0.281206 c 0.44367,-0.154663 0.86826,-0.219613 0.94354,-0.144333 0.0753,0.07528 0.15313,0.819957 0.173,1.654838 0.0199,0.834882 0.15633,1.803064 0.30323,2.151515 l 0.2671,0.633549 0.72335,-0.76584 c 1.07539,-1.138548 1.65558,-2.6998 1.73237,-4.66165 0.01,-0.250924 0.40481,-0.651644 0.87775,-0.890487 2.81155,-1.419879 7.12011,-5.394483 8.561145,-7.897565 l 0.59999,-1.042196 -0.57874,-0.322351 c -1.641355,-0.914209 -3.222895,-1.694299 -3.434985,-1.694299 -0.13134,0 -0.61397,-0.168129 -1.07253,-0.37362 -0.45855,-0.20549 -1.42905,-0.501969 -2.15665,-0.658841 -4.42372,-0.953756 -8.67145,-0.818823 -12.65892,0.402121 -1.18676,0.36338 -2.42564,0.727274 -2.75306,0.808652 -0.32742,0.08138 -0.595311,0.253142 -0.595311,0.381699 0,0.128556 -0.23813,0.233739 -0.52917,0.233739 -0.29104,0 -0.52917,0.119062 -0.52917,0.264583 0,0.145521 -0.13281,0.264584 -0.29514,0.264584 -0.597814,0 -3.914175,2.422327 -5.462268,3.989732 l -1.595276,1.615176 -0.689281,-0.451634 c -0.379104,-0.248399 -0.689281,-0.627559 -0.689281,-0.842578 0,-0.628763 3.193586,-3.626389 4.564063,-4.284009 0.691224,-0.331683 1.25677,-0.756587 1.25677,-0.944232 0,-0.187646 0.386954,-0.485948 0.859896,-0.662894 1.906237,-0.7132 2.844267,-1.155615 2.844267,-1.341479 0,-0.219768 1.095551,-0.550273 2.155721,-0.650341 0.38529,-0.03637 1.08819,-0.259516 1.56201,-0.495889 0.47382,-0.236373 1.23015,-0.43261 1.68074,-0.436081 0.45058,-0.0035 1.29549,-0.135258 1.87758,-0.292858 0.58208,-0.1576 1.39709,-0.277725 1.81113,-0.266945 l 0.7528,0.0196 -0.30561,-0.368236 c -1.2294,-1.481338 -4.21506,-3.15889 -6.22707,-3.498802 -0.43657,-0.07375 -0.82632,-0.165397 -0.86613,-0.203653 -0.20398,-0.196038 0.31845,-0.939496 0.75828,-1.079093 0.27759,-0.08811 0.50472,-0.271233 0.50472,-0.406947 0,-0.135715 0.23252,-0.246754 0.51672,-0.246754 0.49755,0 0.91212,0.141543 2.92286,0.997944 1.0346,0.440645 3.05179,1.985315 3.79064,2.902694 0.26584,0.330074 0.6528,0.769581 0.8599,0.976683 0.2071,0.207101 0.37655,0.504115 0.37655,0.66003 0,0.155915 0.32742,0.293404 0.7276,0.305531 0.73226,0.02219 1.01453,0.05689 2.71198,0.333368 1.86626,0.303976 2.53686,0.482715 3.63802,0.969657 0.61846,0.27349 1.12448,0.438953 1.12448,0.367695 0,-0.197775 4.088465,2.065119 4.189245,2.318674 0.0485,0.12204 0.25981,0.221891 0.46957,0.221891 0.20975,0 0.49454,0.297656 0.63286,0.661458 l 0.25148,0.661458 -0.23707,0.623557 c -0.5254,1.38189 -2.32865,3.832396 -4.254735,5.78191 -1.12003,1.13366 -2.11244,2.0612 -2.20535,2.0612 -0.0929,0 -0.39851,0.208359 -0.67912,0.463021 -0.89723,0.814253 -1.19146,1.01362 -2.06948,1.402232 -0.47295,0.209324 -0.87509,0.500353 -0.89367,0.64673 -0.20235,1.594905 -0.32791,2.009567 -1.03257,3.410063 -0.81013,1.610128 -2.67002,3.173803 -4.14541,3.485193 -0.17433,0.03679 -0.52953,-0.249081 -0.78932,-0.635275 z M 64.52384,58.747013 C 64.272937,58.6066 64.067652,58.22821 64.067652,57.906146 v -0.585571 l 0.595312,-0.261177 c 0.327422,-0.143648 0.597107,-0.4534 0.5993,-0.688338 0.0022,-0.234939 0.135262,-0.592126 0.295709,-0.79375 0.160446,-0.201625 0.864408,-1.438153 1.564359,-2.74784 2.464072,-4.610556 4.583863,-7.119062 8.236023,-9.746299 3.19776,-2.300354 7.95535,-3.99746 12.02714,-4.290261 l 2.38686,-0.171638 -0.12671,0.804028 c -0.19262,1.22219 -0.28829,1.282372 -2.35493,1.481368 -4.47692,0.431079 -8.53108,2.065493 -12.140971,4.894566 -1.386282,1.08643 -3.882377,3.889496 -4.54307,5.101779 -0.26022,0.477468 -1.077235,2.016888 -1.81559,3.420933 -1.35043,2.567958 -2.341412,3.891834 -3.295392,4.402389 l -0.515663,0.275974 z m -13.298249,-1.360916 -0.700736,-0.602747 -0.02819,-0.994696 -0.0282,-0.994695 0.70263,-0.651515 c 0.794185,-0.73641 1.78663,-0.835391 2.657145,-0.265008 l 0.589885,0.386508 1.946812,-0.500767 1.946812,-0.500767 0.496702,0.310195 c 0.514568,0.321354 0.631377,0.884561 0.293564,1.415462 -0.253964,0.399125 -3.445547,1.224921 -4.086424,1.057328 l -0.494678,-0.129362 0.152552,0.48065 0.152552,0.480649 -0.70653,0.555756 c -0.919721,0.723453 -2.018951,0.705604 -2.893895,-0.04699 z m 26.468103,-1.541108 c -0.58208,-0.102008 -1.475053,-0.252047 -1.984376,-0.333419 -1.098379,-0.175483 -3.49372,-0.999672 -4.685431,-1.612163 l -0.848973,-0.436338 0.421317,-0.88351 c 0.494994,-1.038013 0.493879,-1.03807 3.128712,0.159422 0.291042,0.132274 1.243542,0.408372 2.116667,0.613552 l 1.587504,0.373054 3.615581,-0.01452 c 1.98857,-0.008 3.74474,0.0653 3.9026,0.162869 0.15786,0.09756 0.28702,0.517084 0.28702,0.932268 v 0.754878 l -1.08519,0.183342 c -1.54867,0.261647 -5.21073,0.318696 -6.455431,0.100565 z m -23.12091,-5.93346 7.191921,-1.795809 0.357724,0.489215 c 0.489268,0.669114 0.448712,1.114513 -0.129667,1.424052 -0.268064,0.143463 -3.393454,0.98493 -6.945312,1.869927 -3.551857,0.884996 -0.474666,-1.987385 -0.474666,-1.987385 z M 67.475349,48.21426 c -1.298647,-1.068729 -4.490024,-3.086461 -5.25978,-3.325469 -2.249777,-0.698554 -2.530976,-2.245779 -0.408158,-2.245779 0.555461,0 2.680585,0.887925 3.986215,1.665532 1.442642,0.859207 3.840338,2.919255 3.711599,3.188924 -0.08006,0.167705 -0.216907,0.505042 -0.304101,0.749637 -0.266432,0.747393 -0.789785,0.737432 -1.725775,-0.03284 z m 25.553146,-0.887868 c -1.72131,-1.24554 -2.60354,-2.476629 -3.05247,-4.259491 l -0.30537,-1.212735 0.17842,-1.428071 c 0.0981,-0.78544 0.3365,-1.644251 0.5297,-1.90847 l 0.35128,-0.480397 0.62557,0.279142 0.62557,0.279142 0.001,2.33292 10e-4,2.33292 0.32927,0.109753 c 0.18109,0.06036 0.33302,0.24866 0.33762,0.418435 0.0111,0.409426 1.21394,1.763888 1.56645,1.763888 0.1525,0 0.27727,0.116795 0.27727,0.259543 0,0.142748 0.29766,0.334249 0.66146,0.425558 0.78185,0.196232 0.78384,0.205077 0.23415,1.044 l -0.4273,0.652149 -0.56489,-0.01297 c -0.31068,-0.0071 -0.92703,-0.275027 -1.36966,-0.595312 z m 1.48832,-4.356016 -0.785,-0.784993 0.15201,-0.631081 c 0.18896,-0.784534 1.08835,-1.543444 1.83837,-1.55124 0.7509,-0.0078 1.62195,0.757058 1.82025,1.598346 l 0.15985,0.678187 -0.4793,0.567301 c -0.26362,0.312016 -0.80373,0.644065 -1.20025,0.737887 l -0.72094,0.170585 z M 57.849944,38.095912 c -1.435819,-0.771508 -1.846192,-2.292815 -0.931996,-3.455028 0.674203,-0.85711 1.670413,-1.036008 3.025275,-0.543274 l 1.081721,0.393398 9.056146,-2.273998 c 4.980881,-1.250699 9.217525,-2.273998 9.414755,-2.273998 0.74233,0 0.31555,0.838376 -0.85406,1.67777 l -1.212671,0.870296 -8.196003,2.049051 -8.195998,2.049051 -0.667543,0.753015 c -0.768762,0.867194 -1.757819,1.163059 -2.519626,0.753717 z"
         id="path138000"
         sodipodi:nodetypes="ssscccccsscccsssssccsccscscsscssssssssssscsssssssscsscsscsssssssssssssscssssscssssscsssssscsssssscsccccsscccssscccsscssscsssccsscssccssscsssssssscsccscccccssssssccccccssscssccssscssscccss" />
    </g>
  </g>
</svg>
