<?xml version="1.0" encoding="UTF-8" standalone="no"?>
<!-- Generator: Adobe Illustrator 25.0.0, SVG Export Plug-In . SVG Version: 6.00 Build 0)  -->

<svg
   version="1.1"
   id="Calque_1"
   x="0px"
   y="0px"
   viewBox="0 0 150 150"
   style="enable-background:new 0 0 150 150;"
   xml:space="preserve"
   sodipodi:docname="france2030_logo.svg"
   inkscape:version="1.4.2 (ebf0e940d0, 2025-05-08)"
   xmlns:inkscape="http://www.inkscape.org/namespaces/inkscape"
   xmlns:sodipodi="http://sodipodi.sourceforge.net/DTD/sodipodi-0.dtd"
   xmlns="http://www.w3.org/2000/svg"
   xmlns:svg="http://www.w3.org/2000/svg"><defs
   id="defs67" /><sodipodi:namedview
   id="namedview67"
   pagecolor="#ffffff"
   bordercolor="#000000"
   borderopacity="0.25"
   inkscape:showpageshadow="2"
   inkscape:pageopacity="0.0"
   inkscape:pagecheckerboard="0"
   inkscape:deskcolor="#d1d1d1"
   inkscape:zoom="1.667292"
   inkscape:cx="108.25938"
   inkscape:cy="179.6326"
   inkscape:window-width="1920"
   inkscape:window-height="1128"
   inkscape:window-x="0"
   inkscape:window-y="0"
   inkscape:window-maximized="1"
   inkscape:current-layer="Calque_1" />
<style
   type="text/css"
   id="style1">
	.st0{fill:#000091;}
	.st1{fill:#E1000F;stroke:#E1000F;stroke-width:0.25;stroke-miterlimit:10;}
</style>
<rect
   style="enable-background:new 0 0 150 150;fill:#ffffff;stroke-width:7.55906"
   id="rect67"
   width="202.72394"
   height="190.12866"
   x="-26.390099"
   y="-18.593023" /><g
   id="g67">
	<g
   id="g1">
		<path
   class="st0"
   d="M18.2,98.1c-3.2-7.3-4.9-15.4-4.9-23.8s1.8-16.5,4.9-23.8c9.4-22.9,32-39.2,58.3-39.2    c14.8,0,28.4,5.1,39.2,13.7C104.3,15.3,89.6,9.4,73.5,9.4C37.7,9.4,8.6,38.5,8.6,74.3s29.1,64.9,64.9,64.9    c16.1,0,30.8-5.9,42.1-15.6c-10.8,8.6-24.4,13.7-39.2,13.7C50.2,137.3,27.6,121.1,18.2,98.1z"
   id="path1" />
	</g>
	<path
   class="st0"
   d="M122.7,99.1c-0.1,0.1-0.2,0.3-0.3,0.5c0,0,0,0.1,0,0.1l0,0l0-0.1c-2.2,3.8-4.9,7.4-8.1,10.5   c-9.6,10.2-23.2,16.7-38.3,16.7c-14.6,0-27.9-6-37.4-15.8c10,11.2,24.5,18.2,40.6,18.2c22,0,41-13.1,49.6-31.9   C126.5,96.5,124,97.1,122.7,99.1z"
   id="path2" />
	<path
   class="st0"
   d="M126.2,57.9c0,0,0,0.1,0,0.2c0.1,0.2,0.1,0.3,0.2,0.5c0.8,2.1,2.3,3.6,4.5,3.6l0,0c0.5,0,0.9,0,1.4,0.1   c-5.6-24.1-27.3-42-53-42c-11.8,0-22.8,3.8-31.7,10.2c8.2-5.4,18-8.5,28.5-8.5c19.3,0,36.1,10.5,45.2,26   C123.3,51,124.9,54.4,126.2,57.9L126.2,57.9z"
   id="path3" />
	<g
   id="g9">
		<path
   class="st0"
   d="M30.4,60.9V47.3h7.9v2.3h-5.2v3.2h4.4v2.3h-4.4v5.8H30.4z"
   id="path4" />
		<path
   class="st0"
   d="M40.9,60.9V47.3h4.2c1.5,0,2.7,0.4,3.5,1.1c0.9,0.7,1.3,1.7,1.3,3c0,1.7-0.7,2.8-2.2,3.5l4.3,6h-3.2l-3.6-5.5    h-1.4v5.5L40.9,60.9L40.9,60.9z M45.2,49.6h-1.6v3.5h1.6c0.6,0,1-0.2,1.4-0.5s0.5-0.8,0.5-1.3c0-0.5-0.2-0.9-0.5-1.2    C46.3,49.8,45.8,49.6,45.2,49.6z"
   id="path5" />
		<path
   class="st0"
   d="M52.8,60.9l5.1-13.6h3.6l5.1,13.6h-2.9l-1.3-3.5H57l-1.3,3.5H52.8z M57.9,55h3.7l-1.9-5.1L57.9,55z"
   id="path6" />
		<path
   class="st0"
   d="M69,60.9V47.3h3.5l6.1,9.8v-9.8h2.7v13.6h-3.5l-6.1-9.8v9.8H69z"
   id="path7" />
		<path
   class="st0"
   d="M91.4,58.7c1.5,0,2.7-0.6,3.6-1.9l2.2,1.7c-0.6,0.9-1.4,1.5-2.4,2c-1,0.5-2.1,0.7-3.3,0.7    c-2.1,0-3.8-0.7-5.2-2.1c-1.4-1.4-2-3.1-2-5.1c0-2,0.7-3.7,2-5.1c1.4-1.4,3.1-2.1,5.2-2.1c1.2,0,2.3,0.2,3.3,0.7    c1,0.5,1.8,1.2,2.4,2l-2.2,1.7c-0.9-1.2-2-1.9-3.6-1.9c-1.3,0-2.3,0.4-3.1,1.3s-1.2,2-1.2,3.3c0,1.3,0.4,2.4,1.2,3.3    C89.1,58.3,90.1,58.7,91.4,58.7z"
   id="path8" />
		<path
   class="st0"
   d="M99.7,60.9V47.3h7.9v2.3h-5.2v3.2h4.4v2.3h-4.4v3.5h5.2v2.3H99.7z"
   id="path9" />
	</g>
	<g
   id="g66">
		<path
   class="st1"
   d="M113,82.7l4.6,7.5c0.3,0.2,0.6,0.5,0.9,0.7l-5.7-9.3C112.9,82,112.9,82.4,113,82.7"
   id="path10" />
		<path
   class="st1"
   d="M112.8,77.2l7.3,14.8c0.2,0.1,0.4,0.2,0.6,0.3l-7.8-15.7C112.9,76.8,112.8,77,112.8,77.2"
   id="path11" />
		<path
   class="st1"
   d="M114,73.1l7.7,19.6c0.2,0.1,0.3,0.1,0.5,0.2l-8-20.3C114.2,72.8,114.1,73,114,73.1"
   id="path12" />
		<path
   class="st1"
   d="M116.2,69.9l6.9,23.3c0.1,0,0.3,0.1,0.4,0.1l-7-23.7C116.4,69.7,116.3,69.8,116.2,69.9"
   id="path13" />
		<path
   class="st1"
   d="M124.6,93.5l-5.4-26.3c-0.1,0.1-0.2,0.1-0.3,0.2l5.3,25.9C124.3,93.5,124.5,93.5,124.6,93.5"
   id="path14" />
		<path
   class="st1"
   d="M125.6,93.7l-3.2-27.9c-0.1,0-0.2,0.1-0.4,0.1l3.2,27.7C125.3,93.7,125.5,93.7,125.6,93.7"
   id="path15" />
		<path
   class="st1"
   d="M126.6,93.7l-0.8-28.7c-0.1,0-0.3,0-0.4,0l0.8,28.6C126.3,93.7,126.4,93.7,126.6,93.7"
   id="path16" />
		<path
   class="st1"
   d="M127.5,93.7l1.7-28.6c-0.1,0-0.3,0-0.4,0l-1.7,28.6C127.3,93.7,127.4,93.7,127.5,93.7"
   id="path17" />
		<path
   class="st1"
   d="M128.5,93.7l4-27.6c-0.1,0-0.2-0.1-0.4-0.1l-4,27.8C128.2,93.7,128.4,93.7,128.5,93.7"
   id="path18" />
		<path
   class="st1"
   d="M129.5,93.5l6.1-25.7c-0.1-0.1-0.2-0.2-0.3-0.2l-6.1,26C129.2,93.6,129.4,93.5,129.5,93.5"
   id="path19" />
		<path
   class="st1"
   d="M130.7,93.3l7.5-22.9c-0.1-0.1-0.2-0.2-0.3-0.3l-7.7,23.4C130.4,93.3,130.5,93.3,130.7,93.3"
   id="path20" />
		<path
   class="st1"
   d="M132,92.9l8.2-19.2c-0.1-0.2-0.1-0.3-0.2-0.5L131.5,93C131.6,93,131.8,92.9,132,92.9"
   id="path21" />
		<path
   class="st1"
   d="M133.7,92.1l7.6-14.3c0-0.2,0-0.4-0.1-0.7L133,92.4C133.2,92.3,133.5,92.2,133.7,92.1"
   id="path22" />
		<path
   class="st1"
   d="M136.3,90.3l4.5-6.9c0.1-0.4,0.2-0.8,0.3-1.2l-5.7,8.8C135.7,90.8,136,90.6,136.3,90.3"
   id="path23" />
		<rect
   x="41.4"
   y="93"
   class="st1"
   width="18.7"
   height="0"
   id="rect23" />
		<path
   class="st1"
   d="M51,65.1c-0.2,0-0.3,0-0.5,0h1C51.3,65.1,51.1,65.1,51,65.1"
   id="path24" />
		<path
   class="st1"
   d="M51.5,65.1h-1c-1,0-1.9,0.2-2.7,0.4h6.1C53.1,65.3,52.3,65.2,51.5,65.1"
   id="path25" />
		<path
   class="st1"
   d="M56.9,67.1H44.3c-0.2,0.1-0.4,0.3-0.5,0.4h13.5C57.1,67.3,57,67.2,56.9,67.1"
   id="path26" />
		<path
   class="st1"
   d="M58.5,69H42.1c-0.1,0.1-0.2,0.3-0.3,0.4h16.9C58.7,69.3,58.6,69.2,58.5,69"
   id="path27" />
		<path
   class="st1"
   d="M59.3,71h-5.9c0.1,0.1,0.2,0.2,0.3,0.4h5.7C59.3,71.2,59.3,71.1,59.3,71"
   id="path28" />
		<path
   class="st1"
   d="M40.6,71.1l0.4,0.2h5.6c0.1-0.1,0.3-0.3,0.4-0.4h-6.4C40.6,71,40.6,71.1,40.6,71.1"
   id="path29" />
		<path
   class="st1"
   d="M59.5,72.9h-5.4c0,0.1,0,0.2,0,0.3c0,0,0,0,0,0h5.3C59.5,73.2,59.5,73.1,59.5,72.9"
   id="path30" />
		<path
   class="st1"
   d="M44.2,73.3h0.9c0.1-0.1,0.2-0.3,0.2-0.4h-1.8L44.2,73.3z"
   id="path31" />
		<path
   class="st1"
   d="M59.2,74.9h-5.3c0,0.1-0.1,0.3-0.1,0.4h5.4C59.1,75.2,59.2,75,59.2,74.9"
   id="path32" />
		<path
   class="st1"
   d="M58.4,76.9h-5.7c-0.1,0.1-0.2,0.3-0.3,0.4h5.8C58.3,77.1,58.4,77,58.4,76.9"
   id="path33" />
		<path
   class="st1"
   d="M57.2,78.8H51c-0.1,0.1-0.2,0.2-0.3,0.3l-0.1,0.1h6.3C57,79.1,57.1,79,57.2,78.8"
   id="path34" />
		<path
   class="st1"
   d="M55.5,80.8H49l-0.4,0.4h6.5C55.2,81,55.4,80.9,55.5,80.8"
   id="path35" />
		<polygon
   class="st1"
   points="53.5,82.7 47,82.7 46.6,83.1 53.1,83.1   "
   id="polygon35" />
		<polygon
   class="st1"
   points="51.5,84.7 45,84.7 44.6,85.1 51.1,85.1   "
   id="polygon36" />
		<polygon
   class="st1"
   points="49.5,86.7 43,86.7 42.6,87.1 49,87.1   "
   id="polygon37" />
		<rect
   x="41.4"
   y="88.6"
   class="st1"
   width="18.7"
   height="0.4"
   id="rect37" />
		<rect
   x="41.4"
   y="90.6"
   class="st1"
   width="18.7"
   height="0.4"
   id="rect38" />
		<rect
   x="41.4"
   y="92.6"
   class="st1"
   width="18.7"
   height="0.4"
   id="rect39" />
		<path
   class="st1"
   d="M106.1,92.7l4.5-4.5c0.1-0.3,0.2-0.5,0.3-0.8l-5.6,5.6C105.5,93,105.8,92.9,106.1,92.7"
   id="path39" />
		<path
   class="st1"
   d="M102.5,93.6l8.7-8.7c0-0.2,0-0.3,0-0.5l-9.2,9.2C102.1,93.7,102.3,93.7,102.5,93.6"
   id="path40" />
		<path
   class="st1"
   d="M99.7,93.6l11-11c0-0.1-0.1-0.3-0.1-0.4L99.2,93.6C99.4,93.6,99.6,93.6,99.7,93.6"
   id="path41" />
		<path
   class="st1"
   d="M101.2,89c-0.1,0-0.1,0-0.2,0l-4,4c0.1,0,0.3,0.1,0.4,0.1l4.1-4.1C101.5,89,101.3,89,101.2,89"
   id="path42" />
		<path
   class="st1"
   d="M105.8,84.7l4-4c-0.1-0.1-0.2-0.2-0.2-0.3l-3.8,3.8C105.8,84.4,105.8,84.6,105.8,84.7"
   id="path43" />
		<path
   class="st1"
   d="M105.2,82.7l3.3-3.3c-0.1-0.1-0.2-0.2-0.3-0.2l-3.2,3.2C105,82.5,105.1,82.6,105.2,82.7"
   id="path44" />
		<path
   class="st1"
   d="M98.7,88.5l-3.7,3.7c0.1,0.1,0.2,0.1,0.4,0.2l3.7-3.7C99,88.7,98.9,88.6,98.7,88.5"
   id="path45" />
		<path
   class="st1"
   d="M97.1,87.4l-3.6,3.6c0.1,0.1,0.2,0.2,0.3,0.2l3.6-3.6C97.3,87.6,97.2,87.5,97.1,87.4"
   id="path46" />
		<path
   class="st1"
   d="M103.6,81.4l5.4-5.4c0.2-0.3,0.4-0.7,0.5-1l-6.3,6.3C103.4,81.3,103.5,81.4,103.6,81.4"
   id="path47" />
		<path
   class="st1"
   d="M95.9,85.9l-3.8,3.8c0.1,0.1,0.2,0.2,0.3,0.3l3.7-3.7C96,86.1,96,86,95.9,85.9"
   id="path48" />
		<path
   class="st1"
   d="M101,80.9c0.1,0,0.2,0,0.4,0l8.6-8.6c0,0,0,0,0,0c0-0.2,0-0.3,0-0.5l-9.1,9.1H101z"
   id="path49" />
		<path
   class="st1"
   d="M92.8,86.3L91,88.1c0.1,0.1,0.1,0.2,0.2,0.3l3-3L92.8,86.3z"
   id="path50" />
		<path
   class="st1"
   d="M98.7,80.9L109.6,70c0-0.1-0.1-0.3-0.1-0.4L98.1,80.9C98.1,80.9,98.7,80.9,98.7,80.9z"
   id="path51" />
		<polygon
   class="st1"
   points="100,76.3 96.6,79.7 96.6,80.2 100.6,76.3   "
   id="polygon51" />
		<path
   class="st1"
   d="M104.6,72.3l4.1-4.1c-0.1-0.1-0.2-0.2-0.2-0.3l-3.9,3.9C104.5,71.9,104.6,72.1,104.6,72.3"
   id="path52" />
		<path
   class="st1"
   d="M103.6,70.5l3.7-3.7c-0.1-0.1-0.2-0.1-0.3-0.2l-3.7,3.7C103.4,70.3,103.5,70.4,103.6,70.5"
   id="path53" />
		<polygon
   class="st1"
   points="97.3,76.3 96.6,76.9 96.6,77.5 97.8,76.3   "
   id="polygon53" />
		<path
   class="st1"
   d="M101.6,69.7l3.9-3.9c-0.1,0-0.3-0.1-0.4-0.1l-4,4C101.3,69.7,101.5,69.7,101.6,69.7"
   id="path54" />
		<path
   class="st1"
   d="M96,72.6l1.2-1.2c0.2-0.2,0.3-0.4,0.5-0.5l5.7-5.7c-0.2,0-0.3,0-0.5-0.1l-7.3,7.3L96,72.6z"
   id="path55" />
		<path
   class="st1"
   d="M94.3,71.6l6.5-6.5c-0.2,0-0.4,0-0.6,0l-6.3,6.3L94.3,71.6z"
   id="path56" />
		<path
   class="st1"
   d="M92.5,70.5l4.9-4.9c-0.3,0.1-0.6,0.2-0.9,0.4l-4.3,4.3L92.5,70.5z"
   id="path57" />
		<path
   class="st1"
   d="M87.7,79.3c0-5.4-2.7-10.3-6.7-13.3c-0.5-0.2-0.9-0.3-1.4-0.5c4.6,2.8,7.7,7.9,7.7,13.7    c0,6.1-3.4,11.3-8.3,14.1c0.5-0.1,1-0.3,1.4-0.4C84.8,90,87.7,85,87.7,79.3"
   id="path58" />
		<path
   class="st1"
   d="M89.4,75.3c-0.4-1.2-0.9-2.4-1.6-3.4c1,2.3,1.6,4.8,1.6,7.5c0,2.9-0.7,5.7-1.9,8.2c0.7-1,1.3-2.2,1.7-3.4    c0.4-1.5,0.6-3.1,0.6-4.8C89.9,77.9,89.7,76.6,89.4,75.3"
   id="path59" />
		<path
   class="st1"
   d="M85.5,79.3c0-7.2-5.3-13.1-12.2-14.1c-0.4,0.1-0.8,0.2-1.2,0.3c7.3,0.4,13.1,6.4,13.1,13.8    c0,7.6-6.1,13.7-13.7,13.8c0.4,0.1,0.8,0.2,1.2,0.3C79.8,92.8,85.5,86.7,85.5,79.3"
   id="path60" />
		<path
   class="st1"
   d="M83.4,79.3c0-6.7-5.4-12.1-12.1-12.1c-1.6,0-3,0.3-4.4,0.8c-0.4,0.3-0.7,0.6-1.1,0.9c1.6-0.9,3.5-1.4,5.5-1.4    c6.4,0,11.7,5.3,11.7,11.7C83,85.8,77.7,91,71.3,91c-2.2,0-4.2-0.6-5.9-1.6c0.3,0.3,0.7,0.7,1,1c1.5,0.7,3.1,1,4.9,1    C77.9,91.4,83.4,86,83.4,79.3"
   id="path61" />
		<path
   class="st1"
   d="M71.3,76c1.8,0,3.3,1.5,3.3,3.3s-1.5,3.3-3.3,3.3c-1.8,0-3.3-1.5-3.3-3.3C68,77.5,69.4,76,71.3,76 M71.3,83    c2,0,3.7-1.7,3.7-3.7c0-2-1.7-3.7-3.7-3.7c-2,0-3.7,1.7-3.7,3.7S69.2,83,71.3,83"
   id="path62" />
		<path
   class="st1"
   d="M71.3,73.9c3,0,5.4,2.4,5.4,5.4c0,3-2.4,5.4-5.4,5.4c-3,0-5.4-2.4-5.4-5.4C65.9,76.3,68.3,73.9,71.3,73.9     M71.3,85.1c3.2,0,5.8-2.6,5.8-5.8c0-3.2-2.6-5.8-5.8-5.8c-3.2,0-5.8,2.6-5.8,5.8C65.5,82.5,68.1,85.1,71.3,85.1"
   id="path63" />
		<path
   class="st1"
   d="M71.3,78.2c0.6,0,1.2,0.5,1.2,1.2c0,0.6-0.5,1.2-1.2,1.2s-1.2-0.5-1.2-1.2C70.1,78.7,70.6,78.2,71.3,78.2     M71.3,80.9c0.9,0,1.5-0.7,1.5-1.5s-0.7-1.5-1.5-1.5s-1.5,0.7-1.5,1.5S70.4,80.9,71.3,80.9"
   id="path64" />
		<path
   class="st1"
   d="M71.3,69.7c5.3,0,9.6,4.3,9.6,9.6c0,5.3-4.3,9.6-9.6,9.6c-5.3,0-9.6-4.3-9.6-9.6C61.7,74,66,69.7,71.3,69.7     M71.3,89.3c5.5,0,10-4.5,10-10s-4.5-10-10-10c-4.9,0-9.1,3.6-9.8,8.3c-0.1,0.6-0.1,1.1-0.1,1.7c0,0.4,0,0.7,0,1.1    C62,85.5,66.2,89.3,71.3,89.3"
   id="path65" />
		<path
   class="st1"
   d="M71.3,71.8c4.1,0,7.5,3.4,7.5,7.5c0,4.1-3.4,7.5-7.5,7.5c-4.1,0-7.5-3.4-7.5-7.5S67.1,71.8,71.3,71.8     M71.3,87.3c4.4,0,7.9-3.6,7.9-7.9s-3.6-7.9-7.9-7.9s-7.9,3.6-7.9,7.9C63.3,83.7,66.9,87.3,71.3,87.3"
   id="path66" />
	</g>
</g>
</svg>
