<svg id="Calque_1" data-name="Calque 1" xmlns="http://www.w3.org/2000/svg" viewBox="0 0 370.67 305.33"><defs><style>.cls-1{fill:#fff;}.cls-2{fill:#414042;}.cls-3{fill:#dc4633;}.cls-4{fill:#0091ca;}.cls-5{fill:#8bbe56;}.cls-6{fill:#58595b;}.cls-7{fill:#fedd48;}.cls-8{fill:#da3b8c;}</style></defs><rect class="cls-1" width="370.67" height="305.33"/><path class="cls-2" d="M281.31,339.91h9.41v6.57a14.68,14.68,0,0,1-7.41,1.89c-6.83,0-11.88-4.2-11.88-11.51s5.05-11.62,11.57-11.62a15.44,15.44,0,0,1,10.3,3.63l3.42-5.63a21.44,21.44,0,0,0-13.88-4.84c-10.57,0-19,6.84-19,18.46s8.47,18.35,19,18.35c5.47,0,11.94-2.26,15.25-4.89V333.54H281.31v6.37" transform="translate(-226.67 -85.33)"/><polyline class="cls-2" points="140.61 257.68 120.53 233.6 114.11 233.6 114.11 269.35 121.47 269.35 121.47 245.32 141.56 269.35 147.97 269.35 147.97 233.6 140.61 233.6 140.61 257.68"/><polyline class="cls-2" points="78.89 269.35 107.18 269.35 107.18 262.88 85.93 262.88 85.93 254.26 103.33 254.26 103.33 247.79 85.93 247.79 85.93 240.06 107.18 240.06 107.18 233.6 78.89 233.6 78.89 269.35"/><path class="cls-2" d="M442.21,318.93H425.12v35.75h7.36V344.8h9.73c7,0,13-4.78,13-12.83,0-8.94-6-13-13-13m-1.16,19.45h-8.57v-13h8.57a6.52,6.52,0,1,1,0,13Z" transform="translate(-226.67 -85.33)"/><polyline class="cls-2" points="283.31 233.6 275.95 233.6 275.95 269.35 301.88 269.35 301.88 262.94 283.31 262.94 283.31 233.6"/><polyline class="cls-2" points="335.26 240.06 335.26 233.6 306.98 233.6 306.98 269.35 335.26 269.35 335.26 262.88 314.02 262.88 314.02 254.26 331.43 254.26 331.43 247.79 314.02 247.79 314.02 240.06 335.26 240.06"/><path class="cls-2" d="M399.87,318.38a18.43,18.43,0,1,0,18.42,18.43,18.42,18.42,0,0,0-18.42-18.43m0,29.9A11.48,11.48,0,1,1,411,336.81,11.31,11.31,0,0,1,399.87,348.28Z" transform="translate(-226.67 -85.33)"/><path class="cls-2" d="M478.66,318.38a18.43,18.43,0,1,0,18.42,18.43,18.42,18.42,0,0,0-18.42-18.43m0,29.9a11.48,11.48,0,1,1,11.15-11.47A11.31,11.31,0,0,1,478.66,348.28Z" transform="translate(-226.67 -85.33)"/><path class="cls-3" d="M380,208.09h-.08l-14.13-1.36a.78.78,0,1,1,.15-1.56L380,206.53a.78.78,0,0,1-.07,1.56" transform="translate(-226.67 -85.33)"/><path class="cls-4" d="M380.54,204.29h-.16l-13.88-3a.78.78,0,1,1,.33-1.53l13.88,3a.78.78,0,0,1-.17,1.55" transform="translate(-226.67 -85.33)"/><path class="cls-4" d="M381.59,200.6a1.09,1.09,0,0,1-.25,0L367.9,196a.78.78,0,0,1,.51-1.48l13.43,4.59a.79.79,0,0,1,.5,1,.81.81,0,0,1-.75.53" transform="translate(-226.67 -85.33)"/><path class="cls-5" d="M383.05,197.05a.84.84,0,0,1-.34-.08l-12.8-6.14a.77.77,0,0,1-.37-1,.79.79,0,0,1,1-.37l12.8,6.14a.77.77,0,0,1,.37,1,.79.79,0,0,1-.71.45" transform="translate(-226.67 -85.33)"/><path class="cls-6" d="M384.9,193.68a.78.78,0,0,1-.41-.12l-12-7.58a.79.79,0,0,1-.24-1.08.78.78,0,0,1,1.08-.25l12,7.59a.77.77,0,0,1,.25,1.07.78.78,0,0,1-.67.37" transform="translate(-226.67 -85.33)"/><path class="cls-4" d="M387.13,190.54a.81.81,0,0,1-.49-.17l-11.05-8.93a.78.78,0,0,1-.12-1.1.79.79,0,0,1,1.1-.12l11.05,8.93a.78.78,0,0,1,.12,1.1.79.79,0,0,1-.61.29" transform="translate(-226.67 -85.33)"/><path class="cls-7" d="M389.72,187.69a.77.77,0,0,1-.56-.24l-10-10.14a.78.78,0,0,1,1.12-1.09l9.95,10.14a.78.78,0,0,1,0,1.1.82.82,0,0,1-.55.23" transform="translate(-226.67 -85.33)"/><path class="cls-4" d="M392.63,185.17a.79.79,0,0,1-.62-.3l-8.7-11.22a.78.78,0,1,1,1.23-1l8.71,11.22a.78.78,0,0,1-.14,1.1.77.77,0,0,1-.48.16" transform="translate(-226.67 -85.33)"/><path class="cls-4" d="M395.81,183a.8.8,0,0,1-.68-.38l-7.34-12.15a.77.77,0,0,1,.26-1.07.78.78,0,0,1,1.08.26l7.35,12.15a.79.79,0,0,1-.27,1.08.83.83,0,0,1-.4.11" transform="translate(-226.67 -85.33)"/><path class="cls-8" d="M399.2,181.2a.77.77,0,0,1-.71-.46l-5.89-12.93a.79.79,0,0,1,.39-1,.78.78,0,0,1,1,.39l5.88,12.92a.78.78,0,0,1-.39,1,.71.71,0,0,1-.32.07" transform="translate(-226.67 -85.33)"/><path class="cls-4" d="M402.77,179.79a.77.77,0,0,1-.74-.54l-4.33-13.52a.78.78,0,0,1,.5-1,.8.8,0,0,1,1,.51l4.33,13.52a.8.8,0,0,1-.51,1,1,1,0,0,1-.24,0" transform="translate(-226.67 -85.33)"/><path class="cls-4" d="M406.49,178.84a.78.78,0,0,1-.76-.63L403,164.27a.78.78,0,1,1,1.54-.3l2.72,13.94a.78.78,0,0,1-.61.91l-.16,0" transform="translate(-226.67 -85.33)"/><path class="cls-7" d="M410.31,178.34a.78.78,0,0,1-.78-.72l-1.09-14.16a.78.78,0,0,1,.72-.84.77.77,0,0,1,.84.72l1.09,14.16a.78.78,0,0,1-.72.84h-.06" transform="translate(-226.67 -85.33)"/><path class="cls-8" d="M414.16,178.28h0a.78.78,0,0,1-.75-.81l.54-14.19a.82.82,0,0,1,.82-.75.78.78,0,0,1,.75.81l-.55,14.19a.78.78,0,0,1-.78.75" transform="translate(-226.67 -85.33)"/><path class="cls-4" d="M418,178.65h-.12a.79.79,0,0,1-.65-.89l2.18-14A.78.78,0,1,1,421,164l-2.18,14a.79.79,0,0,1-.78.66" transform="translate(-226.67 -85.33)"/><path class="cls-5" d="M421.75,179.45a.76.76,0,0,1-.21,0,.78.78,0,0,1-.55-1l3.8-13.68a.79.79,0,0,1,1-.55.78.78,0,0,1,.54,1l-3.8,13.68a.78.78,0,0,1-.75.57" transform="translate(-226.67 -85.33)"/><path class="cls-5" d="M425.39,180.67a.77.77,0,0,1-.73-1.07L430,166.45a.78.78,0,0,1,1-.43.8.8,0,0,1,.43,1l-5.37,13.14a.79.79,0,0,1-.73.48" transform="translate(-226.67 -85.33)"/><path class="cls-5" d="M428.86,182.33a.75.75,0,0,1-.38-.1.78.78,0,0,1-.31-1.06L435,168.74a.78.78,0,1,1,1.37.76l-6.87,12.42a.78.78,0,0,1-.68.41" transform="translate(-226.67 -85.33)"/><path class="cls-4" d="M432.1,184.4a.72.72,0,0,1-.46-.15.78.78,0,0,1-.18-1.09l8.27-11.54a.77.77,0,0,1,1.09-.18.78.78,0,0,1,.18,1.09l-8.27,11.54a.76.76,0,0,1-.63.33" transform="translate(-226.67 -85.33)"/><path class="cls-4" d="M435.09,186.83a.79.79,0,0,1-.58-1.31L444.05,175a.79.79,0,1,1,1.16,1.06l-9.54,10.51a.8.8,0,0,1-.58.26" transform="translate(-226.67 -85.33)"/><path class="cls-6" d="M437.79,189.57a.76.76,0,0,1-.59-.27.78.78,0,0,1,.07-1.1L448,178.85a.79.79,0,0,1,1,1.18l-10.7,9.35a.77.77,0,0,1-.51.19" transform="translate(-226.67 -85.33)"/><path class="cls-4" d="M440.17,192.6a.78.78,0,0,1-.45-1.43l11.71-8a.78.78,0,0,1,1.09.2.79.79,0,0,1-.21,1.09l-11.7,8a.82.82,0,0,1-.44.14" transform="translate(-226.67 -85.33)"/><path class="cls-8" d="M442.15,195.89a.77.77,0,0,1-.69-.42.78.78,0,0,1,.33-1.06l12.55-6.63a.79.79,0,0,1,.74,1.39l-12.56,6.63a.84.84,0,0,1-.37.09" transform="translate(-226.67 -85.33)"/><path class="cls-6" d="M443.72,199.39a.78.78,0,0,1-.73-.49.79.79,0,0,1,.45-1l13.25-5.12a.79.79,0,0,1,1,.45.78.78,0,0,1-.45,1L444,199.34a.66.66,0,0,1-.28,0" transform="translate(-226.67 -85.33)"/><path class="cls-4" d="M444.88,203.05a.78.78,0,0,1-.19-1.54L458.45,198a.78.78,0,1,1,.38,1.51L445.08,203a.65.65,0,0,1-.2,0" transform="translate(-226.67 -85.33)"/><path class="cls-7" d="M445.63,206.82a.78.78,0,0,1-.11-1.56l14.07-1.9a.79.79,0,0,1,.89.67.78.78,0,0,1-.68.88l-14.07,1.9h-.1" transform="translate(-226.67 -85.33)"/><path class="cls-4" d="M445.93,210.66a.79.79,0,0,1,0-1.57l14.2-.27h0a.79.79,0,0,1,.79.77.8.8,0,0,1-.77.8l-14.2.27h0" transform="translate(-226.67 -85.33)"/><path class="cls-3" d="M459.94,215.87h-.07l-14.14-1.36a.78.78,0,0,1,.15-1.56L460,214.31a.78.78,0,0,1-.08,1.56" transform="translate(-226.67 -85.33)"/><path class="cls-4" d="M459.09,221.31l-.16,0-13.88-3a.77.77,0,0,1-.6-.92.79.79,0,0,1,.93-.61l13.88,3a.78.78,0,0,1,.6.93.8.8,0,0,1-.77.62" transform="translate(-226.67 -85.33)"/><path class="cls-8" d="M457.6,226.6a.73.73,0,0,1-.25,0L443.91,222a.79.79,0,0,1-.49-1,.79.79,0,0,1,1-.49l13.43,4.6a.78.78,0,0,1,.49,1,.77.77,0,0,1-.74.53" transform="translate(-226.67 -85.33)"/><path class="cls-4" d="M455.51,231.69a.83.83,0,0,1-.34-.07l-12.8-6.14a.78.78,0,0,1,.67-1.41l12.81,6.13a.78.78,0,0,1-.34,1.49" transform="translate(-226.67 -85.33)"/><path class="cls-7" d="M452.85,236.51a.78.78,0,0,1-.41-.12l-12-7.59a.78.78,0,1,1,.84-1.32l12,7.58a.78.78,0,0,1-.42,1.45" transform="translate(-226.67 -85.33)"/><path class="cls-4" d="M449.67,241a.78.78,0,0,1-.49-.18l-11-8.92a.78.78,0,0,1-.12-1.1.79.79,0,0,1,1.1-.12l11.05,8.92a.78.78,0,0,1,.11,1.1.76.76,0,0,1-.61.3" transform="translate(-226.67 -85.33)"/><path class="cls-4" d="M446,245.05a.78.78,0,0,1-.56-.23l-9.94-10.14a.78.78,0,0,1,1.12-1.09l9.94,10.13a.79.79,0,0,1,0,1.11.77.77,0,0,1-.55.22" transform="translate(-226.67 -85.33)"/><path class="cls-6" d="M441.83,248.65a.79.79,0,0,1-.62-.3l-8.7-11.22a.78.78,0,0,1,.13-1.1.8.8,0,0,1,1.11.14l8.7,11.22a.79.79,0,0,1-.14,1.1.77.77,0,0,1-.48.16" transform="translate(-226.67 -85.33)"/><path class="cls-4" d="M437.3,251.76a.8.8,0,0,1-.67-.38l-7.35-12.15a.78.78,0,1,1,1.34-.81L438,250.57a.79.79,0,0,1-.67,1.19" transform="translate(-226.67 -85.33)"/><path class="cls-5" d="M432.44,254.33a.77.77,0,0,1-.71-.46L425.85,241a.78.78,0,1,1,1.42-.65l5.88,12.92a.78.78,0,0,1-.39,1,.71.71,0,0,1-.32.07" transform="translate(-226.67 -85.33)"/><path class="cls-4" d="M427.31,256.33a.78.78,0,0,1-.74-.54l-4.33-13.52a.78.78,0,1,1,1.49-.48l4.33,13.52a.79.79,0,0,1-.51,1l-.24,0" transform="translate(-226.67 -85.33)"/><path class="cls-8" d="M422,257.7a.8.8,0,0,1-.77-.63l-2.72-13.94a.8.8,0,0,1,.62-.92.79.79,0,0,1,.92.62l2.72,13.94a.78.78,0,0,1-.62.92H422" transform="translate(-226.67 -85.33)"/><path class="cls-4" d="M416.54,258.42a.79.79,0,0,1-.79-.72l-1.08-14.16a.78.78,0,1,1,1.56-.12l1.09,14.16a.79.79,0,0,1-.72.84h-.06" transform="translate(-226.67 -85.33)"/><path class="cls-4" d="M411.05,258.51h0a.78.78,0,0,1-.75-.81l.54-14.19a.82.82,0,0,1,.82-.75.78.78,0,0,1,.75.81l-.55,14.19a.78.78,0,0,1-.78.75" transform="translate(-226.67 -85.33)"/><path class="cls-3" d="M405.58,258h-.12a.8.8,0,0,1-.65-.9l2.18-14a.77.77,0,0,1,.89-.65.78.78,0,0,1,.66.89l-2.18,14a.79.79,0,0,1-.78.67" transform="translate(-226.67 -85.33)"/><path class="cls-4" d="M400.21,256.83a.75.75,0,0,1-.21,0,.79.79,0,0,1-.55-1l3.8-13.68a.78.78,0,1,1,1.51.42L401,256.26a.78.78,0,0,1-.75.57" transform="translate(-226.67 -85.33)"/><path class="cls-7" d="M395,255.07a1,1,0,0,1-.3,0,.8.8,0,0,1-.42-1l5.37-13.14a.79.79,0,0,1,1-.43.78.78,0,0,1,.43,1l-5.37,13.15a.79.79,0,0,1-.73.48" transform="translate(-226.67 -85.33)"/><path class="cls-4" d="M390,252.7a.85.85,0,0,1-.38-.09.79.79,0,0,1-.31-1.07l6.87-12.43a.79.79,0,0,1,1.07-.3.78.78,0,0,1,.31,1.06l-6.88,12.43a.77.77,0,0,1-.68.4" transform="translate(-226.67 -85.33)"/><path class="cls-4" d="M385.39,249.75a.78.78,0,0,1-.45-.15.77.77,0,0,1-.18-1.09L393,237a.79.79,0,1,1,1.28.92L386,249.42a.82.82,0,0,1-.64.33" transform="translate(-226.67 -85.33)"/><path class="cls-5" d="M381.12,246.29a.81.81,0,0,1-.52-.2.79.79,0,0,1-.06-1.11l9.55-10.51a.78.78,0,1,1,1.16,1.05L381.71,246a.77.77,0,0,1-.59.26" transform="translate(-226.67 -85.33)"/><path class="cls-4" d="M377.27,242.38a.79.79,0,0,1-.51-1.38l10.69-9.34a.79.79,0,0,1,1.11.08.78.78,0,0,1-.08,1.1l-10.69,9.34a.79.79,0,0,1-.52.2" transform="translate(-226.67 -85.33)"/><path class="cls-6" d="M373.89,238.05a.78.78,0,0,1-.45-1.43l11.71-8a.78.78,0,1,1,.88,1.29l-11.7,8a.72.72,0,0,1-.44.14" transform="translate(-226.67 -85.33)"/><path class="cls-6" d="M371.05,233.34a.78.78,0,0,1-.37-1.47l12.56-6.63a.78.78,0,0,1,1.06.33.77.77,0,0,1-.33,1.05l-12.56,6.63a.8.8,0,0,1-.36.09" transform="translate(-226.67 -85.33)"/><path class="cls-7" d="M368.79,228.33a.81.81,0,0,1-.74-.5.8.8,0,0,1,.45-1l13.25-5.11a.79.79,0,0,1,1,.44.8.8,0,0,1-.45,1l-13.25,5.11a.71.71,0,0,1-.28.06" transform="translate(-226.67 -85.33)"/><path class="cls-8" d="M367.12,223.09a.79.79,0,0,1-.2-1.55L380.67,218a.78.78,0,0,1,1,.57.8.8,0,0,1-.56.95l-13.76,3.53a.63.63,0,0,1-.19,0" transform="translate(-226.67 -85.33)"/><path class="cls-4" d="M366.06,217.69a.78.78,0,0,1-.11-1.56l14.07-1.9a.78.78,0,0,1,.89.66.8.8,0,0,1-.68.89l-14.07,1.9h-.1" transform="translate(-226.67 -85.33)"/><path class="cls-5" d="M365.62,212.22a.79.79,0,0,1,0-1.57l14.19-.27h0a.79.79,0,0,1,.79.77.78.78,0,0,1-.77.79l-14.2.28h0" transform="translate(-226.67 -85.33)"/><path class="cls-4" d="M359.26,207.83h-.05l-14.17-.9a.79.79,0,0,1-.74-.83.81.81,0,0,1,.84-.74l14.17.91a.78.78,0,0,1,.73.83.79.79,0,0,1-.78.74" transform="translate(-226.67 -85.33)"/><path class="cls-4" d="M359.68,203.68h-.11l-14.06-2a.77.77,0,0,1-.66-.88.79.79,0,0,1,.88-.67l14.06,2a.78.78,0,0,1,.67.88.79.79,0,0,1-.78.68" transform="translate(-226.67 -85.33)"/><path class="cls-3" d="M360.43,199.58l-.17,0-13.86-3.08a.78.78,0,0,1,.34-1.53L360.6,198a.78.78,0,0,1,.6.93.8.8,0,0,1-.77.62" transform="translate(-226.67 -85.33)"/><path class="cls-4" d="M361.48,195.55a.83.83,0,0,1-.22,0l-13.58-4.16a.78.78,0,0,1,.45-1.5L361.71,194a.77.77,0,0,1,.52,1,.78.78,0,0,1-.75.55" transform="translate(-226.67 -85.33)"/><path class="cls-4" d="M362.87,191.62a.71.71,0,0,1-.29-.05l-13.21-5.21a.78.78,0,1,1,.57-1.45l13.21,5.2a.78.78,0,0,1-.28,1.51" transform="translate(-226.67 -85.33)"/><path class="cls-4" d="M364.53,187.81a.81.81,0,0,1-.34-.08l-12.77-6.22a.78.78,0,0,1-.36-1,.79.79,0,0,1,1.05-.36l12.77,6.22a.79.79,0,0,1,.36,1.05.81.81,0,0,1-.71.44" transform="translate(-226.67 -85.33)"/><path class="cls-3" d="M366.51,184.14a.76.76,0,0,1-.4-.11l-12.24-7.19a.78.78,0,0,1-.28-1.07.77.77,0,0,1,1.07-.28l12.25,7.19a.78.78,0,0,1,.28,1.07.8.8,0,0,1-.68.39" transform="translate(-226.67 -85.33)"/><path class="cls-4" d="M368.76,180.63a.82.82,0,0,1-.45-.14l-11.65-8.12a.78.78,0,0,1-.2-1.09.78.78,0,0,1,1.09-.19l11.66,8.12a.77.77,0,0,1,.19,1.08.78.78,0,0,1-.64.34" transform="translate(-226.67 -85.33)"/><path class="cls-7" d="M371.26,177.3a.76.76,0,0,1-.49-.18l-11-9a.78.78,0,0,1-.11-1.1.77.77,0,0,1,1.1-.11l11,9a.78.78,0,0,1,.11,1.1.79.79,0,0,1-.61.29" transform="translate(-226.67 -85.33)"/><path class="cls-4" d="M374,174.18a.73.73,0,0,1-.54-.22l-10.27-9.81a.79.79,0,0,1,0-1.11.78.78,0,0,1,1.1,0l10.27,9.81a.79.79,0,0,1,0,1.11.77.77,0,0,1-.56.24" transform="translate(-226.67 -85.33)"/><path class="cls-6" d="M377,171.27a.79.79,0,0,1-.59-.25L367,160.44a.78.78,0,0,1,.07-1.1.77.77,0,0,1,1.1,0L377.61,170a.78.78,0,0,1-.06,1.1.76.76,0,0,1-.52.2" transform="translate(-226.67 -85.33)"/><path class="cls-4" d="M380.24,168.61a.78.78,0,0,1-.62-.3L371,157a.79.79,0,0,1,.15-1.1.78.78,0,0,1,1.1.14l8.63,11.28a.78.78,0,0,1-.14,1.09.79.79,0,0,1-.48.16" transform="translate(-226.67 -85.33)"/><path class="cls-4" d="M383.65,166.21a.78.78,0,0,1-.66-.35L375.25,154a.79.79,0,0,1,1.32-.85l7.74,11.9a.78.78,0,0,1-.66,1.21" transform="translate(-226.67 -85.33)"/><path class="cls-4" d="M387.22,164.07a.78.78,0,0,1-.69-.41l-6.79-12.47a.79.79,0,1,1,1.38-.75l6.79,12.47a.79.79,0,0,1-.32,1.06.69.69,0,0,1-.37.1" transform="translate(-226.67 -85.33)"/><path class="cls-3" d="M391,162.24a.81.81,0,0,1-.72-.47l-5.79-13a.79.79,0,0,1,.39-1,.78.78,0,0,1,1,.4l5.8,13a.79.79,0,0,1-.39,1,.88.88,0,0,1-.32.07" transform="translate(-226.67 -85.33)"/><path class="cls-5" d="M394.82,160.68a.79.79,0,0,1-.74-.53l-4.77-13.37a.79.79,0,0,1,1.48-.53l4.77,13.38a.78.78,0,0,1-.48,1,.75.75,0,0,1-.26.05" transform="translate(-226.67 -85.33)"/><path class="cls-4" d="M398.79,159.44a.78.78,0,0,1-.75-.58l-3.71-13.71a.77.77,0,0,1,.55-1,.78.78,0,0,1,1,.55l3.71,13.71a.78.78,0,0,1-.55,1,.76.76,0,0,1-.21,0" transform="translate(-226.67 -85.33)"/><path class="cls-4" d="M402.85,158.51a.79.79,0,0,1-.76-.64l-2.64-14a.79.79,0,0,1,.63-.92.78.78,0,0,1,.91.63l2.63,14a.77.77,0,0,1-.62.91l-.15,0" transform="translate(-226.67 -85.33)"/><path class="cls-8" d="M407,157.89a.78.78,0,0,1-.77-.7l-1.54-14.12a.78.78,0,0,1,1.55-.17L407.75,157a.77.77,0,0,1-.69.86H407" transform="translate(-226.67 -85.33)"/><path class="cls-4" d="M411.14,157.61a.78.78,0,0,1-.78-.76l-.46-14.2a.8.8,0,0,1,.76-.81h0a.79.79,0,0,1,.78.76l.45,14.2a.8.8,0,0,1-.76.81h0" transform="translate(-226.67 -85.33)"/><path class="cls-4" d="M415.31,157.62h0a.78.78,0,0,1-.75-.82l.63-14.18a.79.79,0,0,1,1.57.07l-.63,14.18a.79.79,0,0,1-.79.75" transform="translate(-226.67 -85.33)"/><path class="cls-8" d="M419.47,158h-.1a.79.79,0,0,1-.68-.87l1.73-14.1a.78.78,0,1,1,1.55.19l-1.72,14.1a.8.8,0,0,1-.78.69" transform="translate(-226.67 -85.33)"/><path class="cls-4" d="M423.59,158.63l-.16,0a.78.78,0,0,1-.61-.92l2.81-13.92a.79.79,0,0,1,.92-.61.77.77,0,0,1,.61.92L424.35,158a.78.78,0,0,1-.76.63" transform="translate(-226.67 -85.33)"/><path class="cls-4" d="M427.63,159.63a.6.6,0,0,1-.22,0,.77.77,0,0,1-.53-1L430.76,145a.79.79,0,0,1,1-.54.78.78,0,0,1,.54,1l-3.89,13.66a.79.79,0,0,1-.75.57" transform="translate(-226.67 -85.33)"/><path class="cls-5" d="M431.59,160.91a.92.92,0,0,1-.28,0,.79.79,0,0,1-.46-1l4.95-13.31a.78.78,0,0,1,1.47.55l-4.95,13.31a.77.77,0,0,1-.73.51" transform="translate(-226.67 -85.33)"/><path class="cls-4" d="M435.43,162.52a.78.78,0,0,1-.71-1.11l6-12.89a.78.78,0,0,1,1.42.66l-6,12.89a.79.79,0,0,1-.71.45" transform="translate(-226.67 -85.33)"/><path class="cls-4" d="M439.14,164.41a.75.75,0,0,1-.38-.1.77.77,0,0,1-.3-1.06l7-12.38a.77.77,0,0,1,1.06-.3.78.78,0,0,1,.3,1.06L439.82,164a.78.78,0,0,1-.68.39" transform="translate(-226.67 -85.33)"/><path class="cls-4" d="M442.69,166.59a.75.75,0,0,1-.43-.13.79.79,0,0,1-.22-1.09l7.89-11.81a.79.79,0,0,1,1.31.88l-7.89,11.8a.79.79,0,0,1-.66.35" transform="translate(-226.67 -85.33)"/><path class="cls-5" d="M446.06,169a.77.77,0,0,1-.48-.16.78.78,0,0,1-.13-1.1l8.78-11.16a.78.78,0,0,1,1.1-.13.8.8,0,0,1,.13,1.1l-8.78,11.16a.78.78,0,0,1-.62.29" transform="translate(-226.67 -85.33)"/><path class="cls-4" d="M449.25,171.74a.84.84,0,0,1-.54-.2.8.8,0,0,1,0-1.11L458.28,160a.78.78,0,1,1,1.15,1.06l-9.61,10.45a.75.75,0,0,1-.57.25" transform="translate(-226.67 -85.33)"/><path class="cls-7" d="M452.2,174.69a.79.79,0,0,1-.57-.25.78.78,0,0,1,0-1.11l10.39-9.68a.77.77,0,0,1,1.1,0,.78.78,0,0,1,0,1.11l-10.38,9.68a.82.82,0,0,1-.54.21" transform="translate(-226.67 -85.33)"/><path class="cls-7" d="M454.92,177.85a.79.79,0,0,1-.49-1.4l11.11-8.85a.78.78,0,0,1,1.1.13.77.77,0,0,1-.13,1.09l-11.1,8.85a.78.78,0,0,1-.49.18" transform="translate(-226.67 -85.33)"/><path class="cls-4" d="M457.4,181.2a.79.79,0,0,1-.65-.35.78.78,0,0,1,.21-1.08l11.76-8a.79.79,0,0,1,1.09.21.8.8,0,0,1-.21,1.09l-11.76,8a.77.77,0,0,1-.44.14" transform="translate(-226.67 -85.33)"/><path class="cls-6" d="M459.59,184.74a.78.78,0,0,1-.39-1.46l12.34-7a.78.78,0,0,1,1.07.29.79.79,0,0,1-.29,1.07l-12.34,7a.78.78,0,0,1-.39.1" transform="translate(-226.67 -85.33)"/><path class="cls-4" d="M461.52,188.44a.78.78,0,0,1-.71-.45.79.79,0,0,1,.37-1.05L474,180.89a.8.8,0,0,1,1.05.38.79.79,0,0,1-.38,1l-12.85,6.05a.76.76,0,0,1-.33.08" transform="translate(-226.67 -85.33)"/><path class="cls-7" d="M463.15,192.27a.79.79,0,0,1-.29-1.52l13.29-5a.78.78,0,1,1,.55,1.47l-13.28,5a.86.86,0,0,1-.27.05" transform="translate(-226.67 -85.33)"/><path class="cls-6" d="M464.46,196.22a.78.78,0,0,1-.75-.56.79.79,0,0,1,.53-1l13.64-4a.77.77,0,0,1,1,.53.78.78,0,0,1-.53,1l-13.63,4-.22,0" transform="translate(-226.67 -85.33)"/><path class="cls-4" d="M465.48,200.26a.8.8,0,0,1-.77-.63.79.79,0,0,1,.61-.92l13.9-2.91a.8.8,0,0,1,.93.61.79.79,0,0,1-.61.93l-13.9,2.9-.16,0" transform="translate(-226.67 -85.33)"/><path class="cls-4" d="M466.16,204.37a.79.79,0,0,1-.78-.69.78.78,0,0,1,.68-.87L480.14,201a.79.79,0,0,1,.2,1.56l-14.08,1.81h-.1" transform="translate(-226.67 -85.33)"/><path class="cls-8" d="M466.55,208.52a.78.78,0,0,1-.78-.74.79.79,0,0,1,.74-.83l14.18-.72a.79.79,0,0,1,.08,1.57l-14.18.72h0" transform="translate(-226.67 -85.33)"/><path class="cls-4" d="M480.78,213.06h0l-14.19-.35a.8.8,0,0,1-.77-.81.79.79,0,0,1,.79-.76h0l14.2.36a.79.79,0,0,1,0,1.57" transform="translate(-226.67 -85.33)"/><path class="cls-3" d="M480.46,218.31h-.08l-14.12-1.45a.78.78,0,0,1-.7-.86.77.77,0,0,1,.86-.7l14.12,1.45a.78.78,0,0,1-.08,1.56" transform="translate(-226.67 -85.33)"/><path class="cls-5" d="M479.7,223.53l-.13,0-14-2.54a.79.79,0,0,1-.64-.91.78.78,0,0,1,.91-.63l14,2.54a.79.79,0,0,1-.14,1.56" transform="translate(-226.67 -85.33)"/><path class="cls-4" d="M478.57,228.67l-.2,0L464.64,225a.79.79,0,0,1,.4-1.52l13.73,3.62a.79.79,0,0,1,.56,1,.78.78,0,0,1-.76.58" transform="translate(-226.67 -85.33)"/><path class="cls-4" d="M477,233.71a.82.82,0,0,1-.26,0L463.36,229a.8.8,0,0,1-.49-1,.79.79,0,0,1,1-.48l13.41,4.68a.78.78,0,0,1-.26,1.52" transform="translate(-226.67 -85.33)"/><path class="cls-7" d="M475.09,238.62a.67.67,0,0,1-.31-.07l-13-5.71a.8.8,0,0,1-.4-1,.79.79,0,0,1,1-.39l13,5.71a.78.78,0,0,1,.39,1,.76.76,0,0,1-.71.47" transform="translate(-226.67 -85.33)"/><path class="cls-8" d="M472.79,243.36a.78.78,0,0,1-.37-.09l-12.52-6.71a.79.79,0,0,1-.32-1.06.78.78,0,0,1,1.06-.32l12.52,6.71a.78.78,0,0,1-.37,1.47" transform="translate(-226.67 -85.33)"/><path class="cls-8" d="M470.11,247.9a.81.81,0,0,1-.42-.12l-12-7.66a.78.78,0,0,1-.23-1.08.77.77,0,0,1,1.08-.24l11.95,7.66a.78.78,0,0,1,.24,1.08.79.79,0,0,1-.66.36" transform="translate(-226.67 -85.33)"/><path class="cls-4" d="M467.11,252.23a.72.72,0,0,1-.47-.16l-11.33-8.56a.78.78,0,0,1,.94-1.25l11.33,8.56a.79.79,0,0,1-.47,1.41" transform="translate(-226.67 -85.33)"/><path class="cls-6" d="M463.77,256.3a.78.78,0,0,1-.52-.19l-10.63-9.42a.78.78,0,1,1,1-1.17l10.64,9.41a.79.79,0,0,1-.52,1.37" transform="translate(-226.67 -85.33)"/><path class="cls-4" d="M460.13,260.11a.76.76,0,0,1-.56-.24l-9.88-10.21a.78.78,0,1,1,1.12-1.08l9.88,10.2a.78.78,0,0,1,0,1.11.81.81,0,0,1-.54.22" transform="translate(-226.67 -85.33)"/><path class="cls-4" d="M456.22,263.63a.79.79,0,0,1-.61-.29l-9.06-10.93a.78.78,0,0,1,.1-1.1.8.8,0,0,1,1.11.1l9.06,10.94a.79.79,0,0,1-.1,1.1.81.81,0,0,1-.5.18" transform="translate(-226.67 -85.33)"/><path class="cls-4" d="M452,266.82a.76.76,0,0,1-.64-.33l-8.2-11.6a.78.78,0,0,1,.19-1.09.77.77,0,0,1,1.09.19l8.2,11.59a.8.8,0,0,1-.19,1.1.85.85,0,0,1-.45.14" transform="translate(-226.67 -85.33)"/><path class="cls-8" d="M447.61,269.7a.78.78,0,0,1-.67-.39l-7.27-12.19a.79.79,0,0,1,.27-1.08.78.78,0,0,1,1.07.27l7.27,12.2a.78.78,0,0,1-.27,1.08.8.8,0,0,1-.4.11" transform="translate(-226.67 -85.33)"/><path class="cls-4" d="M443,272.22a.8.8,0,0,1-.7-.44L436,259.05a.78.78,0,0,1,.35-1,.79.79,0,0,1,1.06.35l6.29,12.72a.79.79,0,0,1-.35,1.06.85.85,0,0,1-.35.08" transform="translate(-226.67 -85.33)"/><path class="cls-4" d="M438.17,274.37a.8.8,0,0,1-.73-.5l-5.29-13.17a.79.79,0,0,1,1.46-.59l5.29,13.18a.79.79,0,0,1-.44,1,1.07,1.07,0,0,1-.29.06" transform="translate(-226.67 -85.33)"/><path class="cls-5" d="M433.21,276.15a.77.77,0,0,1-.75-.55l-4.25-13.55a.79.79,0,0,1,.52-1,.77.77,0,0,1,1,.51L434,275.13a.78.78,0,0,1-.51,1,.62.62,0,0,1-.23,0" transform="translate(-226.67 -85.33)"/><path class="cls-8" d="M428.11,277.51a.77.77,0,0,1-.76-.61l-3.17-13.84a.78.78,0,0,1,.58-.94.79.79,0,0,1,.94.59l3.18,13.84a.79.79,0,0,1-.59.94l-.18,0" transform="translate(-226.67 -85.33)"/><path class="cls-5" d="M422.93,278.5a.78.78,0,0,1-.77-.67l-2.09-14a.78.78,0,0,1,1.55-.23l2.09,14a.78.78,0,0,1-.66.89h-.12" transform="translate(-226.67 -85.33)"/><path class="cls-4" d="M417.7,279.06a.78.78,0,0,1-.78-.73l-1-14.17a.78.78,0,0,1,.73-.83.77.77,0,0,1,.83.73l1,14.16a.79.79,0,0,1-.73.84h-.05" transform="translate(-226.67 -85.33)"/><path class="cls-5" d="M412.44,279.24h0a.79.79,0,0,1-.78-.79l.1-14.2a.78.78,0,0,1,.78-.78h0a.77.77,0,0,1,.77.79l-.09,14.2a.78.78,0,0,1-.78.78" transform="translate(-226.67 -85.33)"/><path class="cls-4" d="M407.18,279h-.06a.78.78,0,0,1-.72-.84L407.58,264a.78.78,0,0,1,1.56.12L408,278.28a.78.78,0,0,1-.78.71" transform="translate(-226.67 -85.33)"/><path class="cls-8" d="M402,278.36h-.12a.78.78,0,0,1-.65-.9l2.26-14a.79.79,0,0,1,1.56.25l-2.28,14a.77.77,0,0,1-.77.66" transform="translate(-226.67 -85.33)"/><path class="cls-4" d="M396.79,277.31a.65.65,0,0,1-.19,0,.79.79,0,0,1-.58-.94l3.36-13.8a.77.77,0,0,1,.94-.58.79.79,0,0,1,.58.94l-3.35,13.8a.79.79,0,0,1-.76.6" transform="translate(-226.67 -85.33)"/><path class="cls-5" d="M391.71,275.87a.71.71,0,0,1-.24,0,.79.79,0,0,1-.5-1l4.42-13.49a.78.78,0,0,1,1.49.48l-4.42,13.5a.79.79,0,0,1-.75.54" transform="translate(-226.67 -85.33)"/><path class="cls-4" d="M386.77,274a.8.8,0,0,1-.3-.06.78.78,0,0,1-.42-1l5.46-13.11a.78.78,0,0,1,1.44.6l-5.46,13.11a.78.78,0,0,1-.72.48" transform="translate(-226.67 -85.33)"/><path class="cls-8" d="M382,271.82a.79.79,0,0,1-.7-1.15L387.76,258a.78.78,0,1,1,1.39.72l-6.46,12.64a.8.8,0,0,1-.7.43" transform="translate(-226.67 -85.33)"/><path class="cls-4" d="M377.39,269.24a.77.77,0,0,1-.41-.11.79.79,0,0,1-.26-1.08l7.43-12.1a.78.78,0,1,1,1.33.82l-7.43,12.1a.76.76,0,0,1-.66.37" transform="translate(-226.67 -85.33)"/><path class="cls-4" d="M373,266.31a.79.79,0,0,1-.46-.15.78.78,0,0,1-.17-1.09l8.34-11.49a.78.78,0,1,1,1.27.92L373.64,266a.76.76,0,0,1-.63.32" transform="translate(-226.67 -85.33)"/><path class="cls-4" d="M368.87,263.05a.79.79,0,0,1-.5-.18.78.78,0,0,1-.09-1.1l9.2-10.82a.78.78,0,1,1,1.19,1l-9.2,10.81a.77.77,0,0,1-.6.27" transform="translate(-226.67 -85.33)"/><path class="cls-7" d="M365,259.5a.79.79,0,0,1-.55-1.34l10-10.07a.77.77,0,0,1,1.1,0,.78.78,0,0,1,0,1.1l-10,10.08a.82.82,0,0,1-.56.23" transform="translate(-226.67 -85.33)"/><path class="cls-7" d="M361.41,255.64a.78.78,0,0,1-.59-.27.79.79,0,0,1,.08-1.11L371.66,245a.78.78,0,0,1,1,1.18l-10.76,9.28a.75.75,0,0,1-.51.19" transform="translate(-226.67 -85.33)"/><path class="cls-4" d="M358.12,251.52a.78.78,0,0,1-.46-1.41l11.44-8.41a.77.77,0,0,1,1.09.16A.78.78,0,0,1,370,243l-11.44,8.41a.8.8,0,0,1-.47.15" transform="translate(-226.67 -85.33)"/><path class="cls-4" d="M355.17,247.16a.76.76,0,0,1-.66-.37.78.78,0,0,1,.25-1.08l12.05-7.5a.78.78,0,0,1,.83,1.33L355.58,247a.78.78,0,0,1-.41.12" transform="translate(-226.67 -85.33)"/><path class="cls-5" d="M352.57,242.58a.78.78,0,0,1-.7-.42.79.79,0,0,1,.34-1.06l12.6-6.54a.77.77,0,0,1,1.05.33.79.79,0,0,1-.33,1.06l-12.61,6.54a.73.73,0,0,1-.35.09" transform="translate(-226.67 -85.33)"/><path class="cls-6" d="M350.3,237.82a.79.79,0,0,1-.3-1.51l13.07-5.54a.78.78,0,0,1,1,.41.79.79,0,0,1-.41,1l-13.08,5.55a.81.81,0,0,1-.31.06" transform="translate(-226.67 -85.33)"/><path class="cls-4" d="M348.45,232.88a.78.78,0,0,1-.25-1.52l13.47-4.51a.78.78,0,1,1,.49,1.48l-13.46,4.51a.73.73,0,0,1-.25,0" transform="translate(-226.67 -85.33)"/><path class="cls-4" d="M347,227.82a.81.81,0,0,1-.76-.59.79.79,0,0,1,.57-.95l13.78-3.44a.78.78,0,1,1,.38,1.51l-13.77,3.45-.2,0" transform="translate(-226.67 -85.33)"/><path class="cls-5" d="M345.89,222.66a.78.78,0,0,1-.12-1.56l14-2.35a.76.76,0,0,1,.9.64.78.78,0,0,1-.64.9l-14,2.36h-.13" transform="translate(-226.67 -85.33)"/><path class="cls-8" d="M345.22,217.44a.79.79,0,0,1-.07-1.57l14.14-1.27a.78.78,0,0,1,.14,1.56l-14.14,1.27h-.07" transform="translate(-226.67 -85.33)"/><path class="cls-7" d="M345,212.18a.79.79,0,0,1,0-1.57l14.2-.18h0a.79.79,0,0,1,0,1.57l-14.2.18h0" transform="translate(-226.67 -85.33)"/><path class="cls-5" d="M338.75,207.73h0l-14.19-.67a.78.78,0,1,1,.07-1.56l14.19.67a.78.78,0,0,1,.75.82.8.8,0,0,1-.79.74" transform="translate(-226.67 -85.33)"/><path class="cls-8" d="M339.08,203.47H339L324.87,202a.78.78,0,0,1,.16-1.56l14.13,1.48a.79.79,0,0,1-.08,1.57" transform="translate(-226.67 -85.33)"/><path class="cls-4" d="M339.66,199.23h-.13l-14-2.3a.78.78,0,1,1,.25-1.54l14,2.29a.79.79,0,0,1-.12,1.56" transform="translate(-226.67 -85.33)"/><path class="cls-8" d="M340.48,195a.55.55,0,0,1-.18,0l-13.86-3.1a.78.78,0,0,1-.59-.93.79.79,0,0,1,.94-.6l13.85,3.1a.78.78,0,0,1,.59.94.77.77,0,0,1-.75.61" transform="translate(-226.67 -85.33)"/><path class="cls-4" d="M341.53,190.89a.83.83,0,0,1-.22,0L327.66,187a.78.78,0,0,1-.54-1,.8.8,0,0,1,1-.54l13.65,3.9a.79.79,0,0,1-.21,1.54" transform="translate(-226.67 -85.33)"/><path class="cls-4" d="M342.82,186.81a.75.75,0,0,1-.26,0l-13.41-4.69a.78.78,0,1,1,.52-1.47l13.41,4.68a.78.78,0,0,1-.26,1.52" transform="translate(-226.67 -85.33)"/><path class="cls-7" d="M344.33,182.82a.8.8,0,0,1-.3-.06l-13.11-5.46a.77.77,0,0,1-.42-1,.79.79,0,0,1,1-.42l13.1,5.45a.78.78,0,0,1-.3,1.51" transform="translate(-226.67 -85.33)"/><path class="cls-4" d="M346.09,178.92a.85.85,0,0,1-.35-.08L333,172.63a.77.77,0,0,1-.36-1,.78.78,0,0,1,1.05-.36l12.77,6.2a.78.78,0,0,1-.34,1.49" transform="translate(-226.67 -85.33)"/><path class="cls-4" d="M348.08,175.13a.76.76,0,0,1-.39-.1L335.3,168.1A.78.78,0,0,1,335,167a.79.79,0,0,1,1.07-.31l12.39,6.94a.78.78,0,0,1-.38,1.46" transform="translate(-226.67 -85.33)"/><path class="cls-5" d="M350.27,171.46a.7.7,0,0,1-.41-.12l-12-7.63a.79.79,0,0,1-.24-1.08.78.78,0,0,1,1.09-.24l12,7.63a.77.77,0,0,1,.24,1.08.75.75,0,0,1-.66.36" transform="translate(-226.67 -85.33)"/><path class="cls-6" d="M352.67,167.93a.78.78,0,0,1-.45-.15l-11.51-8.31a.8.8,0,0,1-.18-1.1.77.77,0,0,1,1.09-.17l11.52,8.31a.77.77,0,0,1,.17,1.09.79.79,0,0,1-.64.33" transform="translate(-226.67 -85.33)"/><path class="cls-8" d="M355.27,164.52a.77.77,0,0,1-.49-.17l-11-9a.77.77,0,0,1-.11-1.1.78.78,0,0,1,1.1-.12l11,9a.79.79,0,0,1,.12,1.11.78.78,0,0,1-.61.28" transform="translate(-226.67 -85.33)"/><path class="cls-6" d="M358.06,161.28a.77.77,0,0,1-.53-.21l-10.48-9.57a.78.78,0,1,1,1.05-1.16l10.49,9.58a.78.78,0,0,1,.05,1.1.8.8,0,0,1-.58.26" transform="translate(-226.67 -85.33)"/><path class="cls-6" d="M361,158.21a.78.78,0,0,1-.55-.23l-9.93-10.17a.78.78,0,0,1,1.12-1.09l9.93,10.16a.79.79,0,0,1,0,1.11.77.77,0,0,1-.55.22" transform="translate(-226.67 -85.33)"/><path class="cls-4" d="M364.2,155.31a.8.8,0,0,1-.6-.27l-9.32-10.71a.78.78,0,0,1,.08-1.1.79.79,0,0,1,1.1.07L364.79,154a.79.79,0,0,1-.08,1.1.77.77,0,0,1-.51.19" transform="translate(-226.67 -85.33)"/><path class="cls-8" d="M367.5,152.6a.8.8,0,0,1-.62-.31l-8.69-11.23a.78.78,0,0,1,.14-1.09.77.77,0,0,1,1.09.13l8.7,11.23a.79.79,0,0,1-.14,1.1.78.78,0,0,1-.48.17" transform="translate(-226.67 -85.33)"/><path class="cls-6" d="M371,150.07a.79.79,0,0,1-.65-.34l-8-11.71a.79.79,0,0,1,1.3-.89l8,11.71a.79.79,0,0,1-.2,1.09.74.74,0,0,1-.44.14" transform="translate(-226.67 -85.33)"/><path class="cls-4" d="M374.55,147.74a.77.77,0,0,1-.67-.37l-7.35-12.16a.77.77,0,0,1,.26-1.07.78.78,0,0,1,1.08.26l7.34,12.16a.77.77,0,0,1-.26,1.07.76.76,0,0,1-.4.11" transform="translate(-226.67 -85.33)"/><path class="cls-6" d="M378.28,145.65a.78.78,0,0,1-.7-.42L371,132.68a.79.79,0,0,1,1.39-.74L379,144.5a.78.78,0,0,1-.32,1.06.77.77,0,0,1-.36.09" transform="translate(-226.67 -85.33)"/><path class="cls-5" d="M382.11,143.77a.78.78,0,0,1-.71-.46l-5.9-12.92a.78.78,0,0,1,.39-1,.78.78,0,0,1,1,.38l5.89,12.92a.78.78,0,0,1-.71,1.11" transform="translate(-226.67 -85.33)"/><path class="cls-4" d="M386.05,142.11a.79.79,0,0,1-.73-.5l-5.14-13.24a.79.79,0,1,1,1.47-.57L386.78,141a.77.77,0,0,1-.45,1,.71.71,0,0,1-.28.06" transform="translate(-226.67 -85.33)"/><path class="cls-7" d="M390.08,140.67a.78.78,0,0,1-.75-.54L385,126.61a.78.78,0,0,1,1.49-.48l4.37,13.52a.78.78,0,0,1-.51,1,.67.67,0,0,1-.24,0" transform="translate(-226.67 -85.33)"/><path class="cls-4" d="M394.18,139.47a.79.79,0,0,1-.76-.59l-3.57-13.74a.79.79,0,0,1,1.52-.4l3.56,13.75a.78.78,0,0,1-.56.95.63.63,0,0,1-.19,0" transform="translate(-226.67 -85.33)"/><path class="cls-4" d="M398.35,138.52a.78.78,0,0,1-.77-.63L394.82,124a.77.77,0,0,1,.61-.92.79.79,0,0,1,.92.61l2.77,13.93a.8.8,0,0,1-.62.93h-.15" transform="translate(-226.67 -85.33)"/><path class="cls-8" d="M402.56,137.82a.78.78,0,0,1-.77-.68l-2-14.06a.77.77,0,0,1,.66-.89.79.79,0,0,1,.89.67l1.95,14.07a.78.78,0,0,1-.67.88h-.11" transform="translate(-226.67 -85.33)"/><path class="cls-3" d="M406.82,137.36a.78.78,0,0,1-.78-.72l-1.15-14.16a.78.78,0,0,1,.72-.84.77.77,0,0,1,.84.72l1.15,14.15a.78.78,0,0,1-.72.84h-.06" transform="translate(-226.67 -85.33)"/><path class="cls-7" d="M411.09,137.13a.78.78,0,0,1-.78-.76l-.34-14.2a.79.79,0,0,1,1.57,0l.34,14.19a.78.78,0,0,1-.77.8h0" transform="translate(-226.67 -85.33)"/><path class="cls-4" d="M415.38,137.15h0a.79.79,0,0,1-.76-.81l.47-14.19a.82.82,0,0,1,.81-.76.8.8,0,0,1,.76.81l-.47,14.19a.78.78,0,0,1-.78.76" transform="translate(-226.67 -85.33)"/><path class="cls-4" d="M419.65,137.41h-.07a.78.78,0,0,1-.71-.85l1.28-14.15a.78.78,0,0,1,1.56.14l-1.28,14.15a.78.78,0,0,1-.78.71" transform="translate(-226.67 -85.33)"/><path class="cls-5" d="M423.9,137.91h-.11a.79.79,0,0,1-.67-.89l2.09-14a.78.78,0,0,1,1.55.23l-2.09,14.05a.78.78,0,0,1-.77.67" transform="translate(-226.67 -85.33)"/><path class="cls-5" d="M428.11,138.66l-.16,0a.79.79,0,0,1-.61-.93l2.9-13.9a.78.78,0,0,1,1.53.32L428.88,138a.8.8,0,0,1-.77.63" transform="translate(-226.67 -85.33)"/><path class="cls-8" d="M432.26,139.66a.69.69,0,0,1-.2,0,.77.77,0,0,1-.55-1l3.7-13.71a.78.78,0,0,1,1.51.41L433,139.08a.78.78,0,0,1-.76.58" transform="translate(-226.67 -85.33)"/><path class="cls-4" d="M436.35,140.9a.67.67,0,0,1-.24,0,.78.78,0,0,1-.5-1l4.49-13.47a.78.78,0,1,1,1.49.49l-4.49,13.47a.79.79,0,0,1-.75.54" transform="translate(-226.67 -85.33)"/><path class="cls-4" d="M440.37,142.37a.72.72,0,0,1-.29-.06.79.79,0,0,1-.44-1l5.27-13.18a.77.77,0,0,1,1-.44.79.79,0,0,1,.44,1l-5.27,13.19a.78.78,0,0,1-.72.49" transform="translate(-226.67 -85.33)"/><path class="cls-4" d="M444.29,144.06a.78.78,0,0,1-.71-1.11l6-12.86a.78.78,0,1,1,1.42.66l-6,12.86a.78.78,0,0,1-.71.45" transform="translate(-226.67 -85.33)"/><path class="cls-7" d="M448.12,146a.78.78,0,0,1-.69-1.15l6.75-12.49a.78.78,0,0,1,1.38.74l-6.75,12.49a.76.76,0,0,1-.69.41" transform="translate(-226.67 -85.33)"/><path class="cls-5" d="M451.81,148.12a.9.9,0,0,1-.41-.11.78.78,0,0,1-.25-1.08l7.46-12.08a.79.79,0,0,1,1.08-.26.78.78,0,0,1,.25,1.08l-7.46,12.08a.78.78,0,0,1-.67.37" transform="translate(-226.67 -85.33)"/><path class="cls-4" d="M455.38,150.48a.78.78,0,0,1-.64-1.23l8.15-11.63a.78.78,0,1,1,1.28.9L456,150.15a.79.79,0,0,1-.65.33" transform="translate(-226.67 -85.33)"/><path class="cls-6" d="M458.82,153a.79.79,0,0,1-.62-1.27l8.8-11.15a.79.79,0,1,1,1.23,1l-8.8,11.14a.77.77,0,0,1-.61.3" transform="translate(-226.67 -85.33)"/><path class="cls-4" d="M462.1,155.78a.76.76,0,0,1-.52-.2.78.78,0,0,1-.07-1.1l9.43-10.63a.79.79,0,0,1,1.11-.06.78.78,0,0,1,.06,1.1l-9.43,10.63a.78.78,0,0,1-.58.26" transform="translate(-226.67 -85.33)"/><path class="cls-6" d="M465.22,158.7a.78.78,0,0,1-.55-1.33l10-10.07a.78.78,0,0,1,1.11,0,.8.8,0,0,1,0,1.11l-10,10.06a.79.79,0,0,1-.56.23" transform="translate(-226.67 -85.33)"/><path class="cls-4" d="M468.17,161.81a.8.8,0,0,1-.59-.26.78.78,0,0,1,.07-1.1L478.22,151a.79.79,0,1,1,1,1.17l-10.58,9.47a.76.76,0,0,1-.52.2" transform="translate(-226.67 -85.33)"/><path class="cls-8" d="M470.92,165.09a.78.78,0,0,1-.48-1.4l11.1-8.85a.78.78,0,0,1,1.1.12.79.79,0,0,1-.12,1.1l-11.11,8.86a.81.81,0,0,1-.49.17" transform="translate(-226.67 -85.33)"/><path class="cls-3" d="M473.49,168.51a.8.8,0,0,1-.64-.33.78.78,0,0,1,.19-1.09l11.6-8.21a.77.77,0,0,1,1.08.19.78.78,0,0,1-.18,1.09l-11.6,8.2a.74.74,0,0,1-.45.15" transform="translate(-226.67 -85.33)"/><path class="cls-4" d="M475.87,172.07a.78.78,0,0,1-.42-1.45l12.05-7.52a.78.78,0,0,1,1.08.25.79.79,0,0,1-.25,1.08L476.28,172a.78.78,0,0,1-.41.12" transform="translate(-226.67 -85.33)"/><path class="cls-5" d="M478,175.75a.78.78,0,0,1-.38-1.47l12.46-6.81a.78.78,0,0,1,.75,1.37l-12.46,6.82a.81.81,0,0,1-.37.09" transform="translate(-226.67 -85.33)"/><path class="cls-7" d="M480,179.56a.78.78,0,0,1-.34-1.49L492.47,172a.79.79,0,0,1,1,.37.8.8,0,0,1-.38,1l-12.83,6.08a.78.78,0,0,1-.33.07" transform="translate(-226.67 -85.33)"/><path class="cls-4" d="M481.68,183.48A.76.76,0,0,1,481,183a.78.78,0,0,1,.43-1l13.16-5.33a.79.79,0,0,1,.59,1.46L482,183.43a1,1,0,0,1-.3,0" transform="translate(-226.67 -85.33)"/><path class="cls-4" d="M483.17,187.49a.77.77,0,0,1-.74-.53.78.78,0,0,1,.49-1l13.45-4.56a.78.78,0,0,1,.5,1.48l-13.45,4.56a.77.77,0,0,1-.25,0" transform="translate(-226.67 -85.33)"/><path class="cls-8" d="M484.42,191.58a.8.8,0,0,1-.76-.58.79.79,0,0,1,.55-1l13.7-3.77a.78.78,0,1,1,.41,1.51l-13.69,3.77-.21,0" transform="translate(-226.67 -85.33)"/><path class="cls-3" d="M485.45,195.73a.78.78,0,0,1-.17-1.55l13.89-3a.79.79,0,0,1,.93.6.78.78,0,0,1-.61.93l-13.88,3-.16,0" transform="translate(-226.67 -85.33)"/><path class="cls-6" d="M486.23,199.93a.78.78,0,0,1-.12-1.56l14-2.16a.8.8,0,0,1,.9.66.78.78,0,0,1-.66.89l-14,2.16h-.12" transform="translate(-226.67 -85.33)"/><path class="cls-5" d="M486.75,204.17a.78.78,0,0,1-.79-.7.79.79,0,0,1,.71-.86l14.14-1.34a.77.77,0,0,1,.85.7.79.79,0,0,1-.71.86l-14.13,1.34h-.07" transform="translate(-226.67 -85.33)"/><path class="cls-8" d="M487,208.45a.79.79,0,0,1,0-1.57l14.19-.53a.78.78,0,0,1,.06,1.56l-14.19.54h0" transform="translate(-226.67 -85.33)"/><path class="cls-4" d="M501.25,213h0l-14.2-.27a.79.79,0,0,1,0-1.57h0l14.2.27a.8.8,0,0,1,.77.8.79.79,0,0,1-.79.77" transform="translate(-226.67 -85.33)"/><path class="cls-4" d="M501,218.08H501L486.79,217a.79.79,0,0,1-.72-.85.78.78,0,0,1,.84-.72l14.16,1.08a.78.78,0,0,1-.06,1.56" transform="translate(-226.67 -85.33)"/><path class="cls-8" d="M500.48,223.15h-.1l-14.08-1.88a.79.79,0,0,1-.67-.88.8.8,0,0,1,.88-.68l14.08,1.89a.78.78,0,0,1-.11,1.56" transform="translate(-226.67 -85.33)"/><path class="cls-8" d="M499.67,228.18h-.15l-13.94-2.7a.78.78,0,0,1,.29-1.54l13.95,2.7a.78.78,0,0,1-.15,1.55" transform="translate(-226.67 -85.33)"/><path class="cls-4" d="M498.57,233.16l-.2,0-13.76-3.51a.78.78,0,1,1,.39-1.51l13.76,3.5a.78.78,0,0,1-.19,1.54" transform="translate(-226.67 -85.33)"/><path class="cls-5" d="M497.16,238.06a.67.67,0,0,1-.24,0l-13.53-4.29a.78.78,0,0,1-.51-1,.77.77,0,0,1,1-.51l13.54,4.29a.78.78,0,0,1-.24,1.53" transform="translate(-226.67 -85.33)"/><path class="cls-4" d="M495.47,242.87a.69.69,0,0,1-.28-.05l-13.26-5.07a.77.77,0,0,1-.45-1,.78.78,0,0,1,1-.46l13.26,5.08a.78.78,0,0,1-.28,1.51" transform="translate(-226.67 -85.33)"/><path class="cls-5" d="M493.51,247.58a1,1,0,0,1-.33-.07l-12.94-5.83a.78.78,0,1,1,.64-1.43l12.95,5.83a.79.79,0,0,1,.39,1,.77.77,0,0,1-.71.46" transform="translate(-226.67 -85.33)"/><path class="cls-7" d="M491.28,252.16a.8.8,0,0,1-.36-.09l-12.59-6.57a.79.79,0,0,1,.73-1.39l12.58,6.57a.78.78,0,0,1-.36,1.48" transform="translate(-226.67 -85.33)"/><path class="cls-4" d="M488.8,256.61a.71.71,0,0,1-.4-.11l-12.19-7.28a.79.79,0,1,1,.81-1.35l12.18,7.29a.78.78,0,0,1-.4,1.45" transform="translate(-226.67 -85.33)"/><path class="cls-4" d="M486.07,260.92a.79.79,0,0,1-.44-.14l-11.75-8a.78.78,0,1,1,.88-1.29l11.75,8a.79.79,0,0,1,.21,1.09.8.8,0,0,1-.65.35" transform="translate(-226.67 -85.33)"/><path class="cls-7" d="M483.08,265a.84.84,0,0,1-.48-.16l-11.27-8.64a.79.79,0,1,1,.95-1.25l11.27,8.64a.78.78,0,0,1,.15,1.1.8.8,0,0,1-.62.31" transform="translate(-226.67 -85.33)"/><path class="cls-8" d="M479.86,269a.85.85,0,0,1-.52-.19l-10.75-9.28a.78.78,0,1,1,1-1.18l10.76,9.27a.78.78,0,0,1,.08,1.1.79.79,0,0,1-.59.28" transform="translate(-226.67 -85.33)"/><path class="cls-4" d="M476.42,272.75a.76.76,0,0,1-.54-.22l-10.21-9.87a.79.79,0,1,1,1.09-1.13L477,271.4a.79.79,0,0,1-.55,1.35" transform="translate(-226.67 -85.33)"/><path class="cls-7" d="M472.79,276.32a.78.78,0,0,1-.58-.26l-9.62-10.44a.78.78,0,1,1,1.14-1.06L473.36,275a.79.79,0,0,1,0,1.11.77.77,0,0,1-.53.21" transform="translate(-226.67 -85.33)"/><path class="cls-4" d="M469,279.66a.78.78,0,0,1-.61-.28l-9-11a.78.78,0,0,1,.11-1.1.77.77,0,0,1,1.1.11l9,11a.79.79,0,0,1-.1,1.11.78.78,0,0,1-.5.17" transform="translate(-226.67 -85.33)"/><path class="cls-4" d="M464.91,282.77a.77.77,0,0,1-.63-.32L455.91,271a.79.79,0,0,1,1.27-.93l8.36,11.48a.78.78,0,0,1-.63,1.24" transform="translate(-226.67 -85.33)"/><path class="cls-7" d="M460.71,285.65a.79.79,0,0,1-.66-.36l-7.69-11.94a.78.78,0,1,1,1.31-.84l7.7,11.93a.78.78,0,0,1-.24,1.08.72.72,0,0,1-.42.13" transform="translate(-226.67 -85.33)"/><path class="cls-4" d="M456.35,288.29a.82.82,0,0,1-.69-.4l-7-12.36a.79.79,0,1,1,1.37-.77l7,12.36a.79.79,0,0,1-.3,1.07.86.86,0,0,1-.38.1" transform="translate(-226.67 -85.33)"/><path class="cls-6" d="M451.85,290.67a.8.8,0,0,1-.71-.43l-6.26-12.74a.78.78,0,1,1,1.4-.7l6.27,12.75a.78.78,0,0,1-.36,1,.71.71,0,0,1-.34.08" transform="translate(-226.67 -85.33)"/><path class="cls-5" d="M447.21,292.8a.79.79,0,0,1-.72-.48L441,279.24a.79.79,0,0,1,.42-1,.79.79,0,0,1,1,.42l5.52,13.09a.8.8,0,0,1-.42,1,.85.85,0,0,1-.31.06" transform="translate(-226.67 -85.33)"/><path class="cls-8" d="M442.45,294.63a.78.78,0,0,1-.74-.52L437,280.73a.77.77,0,0,1,.47-1,.78.78,0,0,1,1,.48l4.75,13.38a.78.78,0,0,1-.47,1,.84.84,0,0,1-.27,0" transform="translate(-226.67 -85.33)"/><path class="cls-8" d="M437.59,296.19a.78.78,0,0,1-.74-.56l-4-13.64a.79.79,0,0,1,1.51-.44l4,13.64a.78.78,0,0,1-.53,1,.85.85,0,0,1-.23,0" transform="translate(-226.67 -85.33)"/><path class="cls-4" d="M432.66,297.47a.79.79,0,0,1-.76-.61L428.73,283a.79.79,0,0,1,.59-.94.78.78,0,0,1,.94.59l3.17,13.84a.79.79,0,0,1-.59.94l-.18,0" transform="translate(-226.67 -85.33)"/><path class="cls-4" d="M427.66,298.47a.79.79,0,0,1-.77-.66l-2.36-14a.79.79,0,0,1,1.55-.26l2.36,14a.78.78,0,0,1-.65.9l-.13,0" transform="translate(-226.67 -85.33)"/><path class="cls-8" d="M422.62,299.17a.78.78,0,0,1-.78-.69l-1.55-14.12a.77.77,0,0,1,.69-.86.79.79,0,0,1,.87.69l1.55,14.11a.8.8,0,0,1-.7.87h-.08" transform="translate(-226.67 -85.33)"/><path class="cls-4" d="M417.54,299.6a.79.79,0,0,1-.78-.75L416,284.67a.78.78,0,0,1,.74-.82.8.8,0,0,1,.83.74l.74,14.18a.8.8,0,0,1-.75.83h0" transform="translate(-226.67 -85.33)"/><path class="cls-5" d="M412.45,299.71h0a.78.78,0,0,1-.78-.79l.07-14.2a.78.78,0,0,1,.78-.78h0a.79.79,0,0,1,.78.79l-.06,14.2a.79.79,0,0,1-.79.78" transform="translate(-226.67 -85.33)"/><path class="cls-5" d="M407.37,299.53h-.05a.78.78,0,0,1-.73-.83l.87-14.17a.78.78,0,1,1,1.56.09l-.87,14.18a.79.79,0,0,1-.78.73" transform="translate(-226.67 -85.33)"/><path class="cls-4" d="M402.29,299.07h-.09a.77.77,0,0,1-.68-.87l1.68-14.1a.79.79,0,0,1,1.56.19l-1.69,14.1a.79.79,0,0,1-.78.69" transform="translate(-226.67 -85.33)"/><path class="cls-3" d="M397.25,298.31h-.13a.79.79,0,0,1-.64-.91l2.49-14a.79.79,0,0,1,1.55.28l-2.49,14a.79.79,0,0,1-.78.64" transform="translate(-226.67 -85.33)"/><path class="cls-4" d="M392.27,297.28a.58.58,0,0,1-.19,0,.78.78,0,0,1-.58-.94l3.3-13.81a.79.79,0,0,1,.95-.58.77.77,0,0,1,.57.95L393,296.68a.77.77,0,0,1-.75.6" transform="translate(-226.67 -85.33)"/><path class="cls-3" d="M387.34,296a.91.91,0,0,1-.23,0,.79.79,0,0,1-.52-1l4.09-13.6a.79.79,0,0,1,1-.52.77.77,0,0,1,.52,1l-4.09,13.6a.79.79,0,0,1-.75.56" transform="translate(-226.67 -85.33)"/><path class="cls-4" d="M382.5,294.36a.86.86,0,0,1-.27-.05.78.78,0,0,1-.47-1L386.64,280a.78.78,0,1,1,1.47.54l-4.88,13.33a.77.77,0,0,1-.73.52" transform="translate(-226.67 -85.33)"/><path class="cls-5" d="M377.76,292.46a.7.7,0,0,1-.31-.07.78.78,0,0,1-.4-1l5.64-13a.79.79,0,0,1,1-.41.8.8,0,0,1,.41,1l-5.64,13a.79.79,0,0,1-.73.48" transform="translate(-226.67 -85.33)"/><path class="cls-4" d="M373.15,290.29a.73.73,0,0,1-.35-.09.78.78,0,0,1-.35-1.05l6.39-12.68a.8.8,0,0,1,1.06-.35.78.78,0,0,1,.34,1.05l-6.39,12.69a.79.79,0,0,1-.7.43" transform="translate(-226.67 -85.33)"/><path class="cls-4" d="M368.67,287.86a.78.78,0,0,1-.68-1.17l7.11-12.29a.78.78,0,0,1,1.07-.29.79.79,0,0,1,.29,1.07l-7.11,12.29a.79.79,0,0,1-.68.39" transform="translate(-226.67 -85.33)"/><path class="cls-6" d="M364.33,285.19a.75.75,0,0,1-.43-.13.78.78,0,0,1-.22-1.08l7.8-11.87a.79.79,0,0,1,1.31.87L365,284.84a.79.79,0,0,1-.66.35" transform="translate(-226.67 -85.33)"/><path class="cls-7" d="M360.15,282.28a.74.74,0,0,1-.47-.16.78.78,0,0,1-.16-1.09l8.48-11.4a.8.8,0,0,1,1.1-.16.79.79,0,0,1,.15,1.1L360.78,282a.79.79,0,0,1-.63.32" transform="translate(-226.67 -85.33)"/><path class="cls-4" d="M356.16,279.12a.83.83,0,0,1-.51-.19.78.78,0,0,1-.09-1.1l9.11-10.89a.8.8,0,0,1,1.11-.1.79.79,0,0,1,.09,1.11l-9.11,10.88a.79.79,0,0,1-.6.29" transform="translate(-226.67 -85.33)"/><path class="cls-4" d="M352.35,275.73a.77.77,0,0,1-.53-.21.79.79,0,0,1,0-1.11l9.73-10.35a.78.78,0,0,1,1.1,0,.77.77,0,0,1,0,1.1l-9.73,10.35a.79.79,0,0,1-.57.25" transform="translate(-226.67 -85.33)"/><path class="cls-8" d="M348.74,272.14a.79.79,0,0,1-.54-1.36L358.51,261a.77.77,0,0,1,1.1,0,.78.78,0,0,1,0,1.1l-10.31,9.78a.79.79,0,0,1-.54.22" transform="translate(-226.67 -85.33)"/><path class="cls-7" d="M345.34,268.34a.8.8,0,0,1-.6-.27.79.79,0,0,1,.1-1.11l10.84-9.16a.78.78,0,0,1,1,1.19l-10.84,9.17a.81.81,0,0,1-.51.18" transform="translate(-226.67 -85.33)"/><path class="cls-8" d="M342.16,264.37a.79.79,0,0,1-.48-1.41L353,254.43a.79.79,0,0,1,1.1.15.78.78,0,0,1-.16,1.1l-11.35,8.53a.78.78,0,0,1-.47.16" transform="translate(-226.67 -85.33)"/><path class="cls-6" d="M339.22,260.21a.8.8,0,0,1-.65-.35.79.79,0,0,1,.22-1.09l11.82-7.86a.77.77,0,0,1,1.08.21.79.79,0,0,1-.21,1.09l-11.83,7.87a.83.83,0,0,1-.43.13" transform="translate(-226.67 -85.33)"/><path class="cls-4" d="M336.53,255.88a.78.78,0,0,1-.39-1.46l12.25-7.17a.78.78,0,1,1,.79,1.35l-12.26,7.17a.79.79,0,0,1-.39.11" transform="translate(-226.67 -85.33)"/><path class="cls-7" d="M334.09,251.41a.79.79,0,0,1-.36-1.49l12.65-6.45a.8.8,0,0,1,1.06.35.79.79,0,0,1-.35,1.05l-12.65,6.45a.73.73,0,0,1-.35.09" transform="translate(-226.67 -85.33)"/><path class="cls-8" d="M331.9,246.8a.78.78,0,0,1-.72-.47.79.79,0,0,1,.4-1l13-5.71a.8.8,0,0,1,1,.41.79.79,0,0,1-.41,1l-13,5.71a.85.85,0,0,1-.31.06" transform="translate(-226.67 -85.33)"/><path class="cls-4" d="M330,242.08a.8.8,0,0,1-.74-.51.79.79,0,0,1,.46-1L343,235.62a.77.77,0,0,1,1,.46.79.79,0,0,1-.46,1L330.25,242a.86.86,0,0,1-.27.05" transform="translate(-226.67 -85.33)"/><path class="cls-3" d="M328.34,237.25a.79.79,0,0,1-.75-.55.78.78,0,0,1,.52-1l13.57-4.16a.78.78,0,1,1,.47,1.49l-13.58,4.16a.62.62,0,0,1-.23,0" transform="translate(-226.67 -85.33)"/><path class="cls-5" d="M327,232.33a.78.78,0,0,1-.19-1.54l13.8-3.37a.78.78,0,0,1,.37,1.52l-13.8,3.37-.18,0" transform="translate(-226.67 -85.33)"/><path class="cls-4" d="M325.94,227.34a.78.78,0,0,1-.14-1.55l14-2.56a.77.77,0,0,1,.91.63.78.78,0,0,1-.62.91l-14,2.56h-.14" transform="translate(-226.67 -85.33)"/><path class="cls-3" d="M325.16,222.3a.78.78,0,0,1-.09-1.55L339.16,219a.78.78,0,0,1,.88.68.79.79,0,0,1-.69.87l-14.09,1.75h-.1" transform="translate(-226.67 -85.33)"/><path class="cls-6" d="M324.68,217.24a.79.79,0,0,1-.05-1.57l14.17-.94a.79.79,0,0,1,.83.73.78.78,0,0,1-.73.83l-14.17,1h-.05" transform="translate(-226.67 -85.33)"/><path class="cls-8" d="M324.48,212.15a.79.79,0,0,1,0-1.57l14.2-.13h0a.79.79,0,0,1,0,1.57l-14.2.13h0" transform="translate(-226.67 -85.33)"/></svg>