<?xml version="1.0" encoding="UTF-8" standalone="no"?>
<!-- Created with Inkscape (http://www.inkscape.org/) -->

<svg
   version="1.1"
   id="svg1"
   width="1083.48"
   height="793.70667"
   viewBox="0 0 1083.48 793.70667"
   sodipodi:docname="zebramed-04.svg"
   inkscape:version="1.4.2 (ebf0e940d0, 2025-05-08)"
   xmlns:inkscape="http://www.inkscape.org/namespaces/inkscape"
   xmlns:sodipodi="http://sodipodi.sourceforge.net/DTD/sodipodi-0.dtd"
   xmlns="http://www.w3.org/2000/svg"
   xmlns:svg="http://www.w3.org/2000/svg">
  <defs
     id="defs1">
    <linearGradient
       x1="0"
       y1="0"
       x2="1"
       y2="0"
       gradientUnits="userSpaceOnUse"
       gradientTransform="matrix(7429.17,0,0,-7429.17,370.173,3073.3)"
       spreadMethod="pad"
       id="linearGradient4">
      <stop
         style="stop-opacity:1;stop-color:#64ffd9"
         offset="0"
         id="stop3" />
      <stop
         style="stop-opacity:1;stop-color:#a7ff7a"
         offset="1"
         id="stop4" />
    </linearGradient>
    <clipPath
       clipPathUnits="userSpaceOnUse"
       id="clipPath4">
      <path
         d="m 2044.77,4468.56 c 135.61,0 247.31,101.38 264.06,232.44 l 2121.78,512.31 c 52.96,12.79 85.55,66.09 72.76,119.06 -12.79,52.96 -66.09,85.57 -119.05,72.76 l -2124.64,-513 c -48.49,66.21 -126.56,109.39 -214.91,109.39 -147.17,0 -266.48,-119.31 -266.48,-266.48 0,-147.17 119.31,-266.48 266.48,-266.48 z M 1024.96,3646.3 c 136.84,0 249.45,103.19 264.61,235.98 l 2266.84,585.93 c 52.75,13.63 84.47,67.46 70.83,120.21 -13.65,52.75 -67.41,84.37 -120.21,70.84 L 1237.76,4072.7 c -48.63,64.6 -125.72,106.56 -212.8,106.56 -147.167,0 -266.476,-119.31 -266.476,-266.48 0,-147.17 119.309,-266.48 266.476,-266.48 z m 266.48,-1706.27 c 143.38,0 259.98,113.33 265.91,255.26 l 1333.2,321.9 c 52.96,12.79 85.55,66.09 72.76,119.06 -12.79,52.96 -66.09,85.57 -119.05,72.76 L 1491.32,2382.34 c -48.84,55.47 -120.17,90.65 -199.88,90.65 -147.17,0 -266.48,-119.31 -266.48,-266.48 0,-147.17 119.31,-266.48 266.48,-266.48 z m 3100.2,-724.92 -31.93,125.7 -80.96,318.81 c -2.6,10.24 -10.51,18.36 -20.67,21.23 l -308.09,86.89 c -33.35,-47.16 -86.77,-79.56 -148.88,-84.01 -38.61,-2.76 -75.33,5.83 -107.22,22.66 l -234.41,-228.34 c -3.32,-3.22 -5.59,-7.19 -7.08,-11.42 0.27,-3.21 0.89,-6.33 0.85,-9.61 -0.05,-3.46 -0.76,-6.71 -1.15,-10.07 l 112.21,-441.93 c 2.59,-10.2 10.51,-18.348 20.69,-21.219 l 261.5,-73.75 c 26.61,70.758 92.26,123.369 172.61,129.119 59.65,4.27 114.93,-18.26 154.42,-57.19 l 210.05,204.62 c 7.57,7.37 10.65,18.29 8.06,28.51 z m 1553.28,125.21 c -9.78,-46.46 -50.77,-78.35 -96.44,-78.35 -6.74,0 -13.56,0.7 -20.42,2.14 l -388.39,81.8 c -0.56,0.12 -1.05,0.38 -1.61,0.51 l -241.33,-235.08 c 2.89,-11.34 4.98,-23.02 5.85,-35.11 7.87,-110.039 -74.95,-205.628 -184.98,-213.5 -105.6,-7.558 -197.66,68.481 -211.91,171.87 l -290.51,81.96 c -7.78,-13.01 -17.23,-25.15 -28.33,-35.97 L 4233.02,833.34 c -3.21,-101.02 -82.36,-185.289 -185.38,-192.66 -84.55,-6.051 -160.4,41.539 -194.65,113.781 l -280.11,78.988 -153.67,-228.57 c -19.02,-28.328 -50.22,-43.617 -81.96,-43.617 -18.93,0 -38.06,5.418 -54.94,16.777 -45.23,30.402 -57.23,91.699 -26.83,136.91 l 164,243.942 c 0.97,1.449 2.23,2.57 3.27,3.949 -0.57,1.949 -1.38,3.789 -1.88,5.762 l -99.39,391.448 -304.65,3.97 c -54.48,0.72 -98.08,45.45 -97.38,99.93 0.72,54.49 45.33,98.4 99.93,97.38 l 314.75,-4.1 c 6.51,9.51 13.67,18.63 22.09,26.83 l 241.5,235.25 c -5.26,15.67 -8.88,32.15 -10.11,49.41 -7.88,110.04 74.94,205.62 184.98,213.5 105.1,7.53 196.81,-67.76 211.72,-170.4 l 306.55,-86.45 c 7.76,12.98 17.19,25.1 28.27,35.9 l 250.39,243.9 146.1,-64.28 -293.21,-285.6 c -7.54,-7.35 -10.62,-18.27 -8.03,-28.49 l 31.93,-125.7 80.96,-318.81 c 2.59,-10.24 10.49,-18.36 20.62,-21.21 l 293.15,-82.71 c 33.4,46.52 86.44,78.44 148.03,82.85 43.54,3.11 84.7,-8.14 119.17,-29.48 l 238.3,232.12 c 7.54,7.35 10.62,18.26 8.03,28.49 v 0.02 l -112.86,444.5 c -2.59,10.22 -10.51,18.35 -20.64,21.2 l -1.77,0.49 35.01,143.9 6.91,-1.95 c 60.85,-17.16 108.36,-65.91 123.93,-127.22 l 111.12,-437.67 372.45,-78.43 c 53.32,-11.23 87.43,-63.57 76.2,-116.87 z M 2936.14,3184.49 c -12.79,52.97 -66.09,85.6 -119.05,72.77 L 907.258,2796.13 c -52.969,-12.79 -85.531,-66.09 -72.742,-119.06 10.91,-45.18 51.3,-75.53 95.812,-75.53 7.672,0 15.465,0.89 23.242,2.77 l 1909.81,461.13 c 52.97,12.78 85.55,66.09 72.76,119.05 z M 2763.18,1191.47 1991.52,1005.13 c -48.15,69.1 -128.07,114.41 -218.66,114.41 -147.17,0 -266.48,-119.31 -266.48,-266.481 0,-147.168 119.31,-266.477 266.48,-266.477 133.47,0 243.7,98.238 263.12,226.289 l 773.5,186.777 c 52.96,12.792 85.55,66.092 72.76,119.052 -12.79,52.97 -66.09,85.61 -119.06,72.77 z m -185.48,634.16 c -12.8,52.96 -66.1,85.6 -119.06,72.76 L 1103.52,1571.18 c -52.97,-12.78 -85.53,-66.09 -72.74,-119.05 10.91,-45.19 51.3,-75.54 95.81,-75.54 7.68,0 15.47,0.89 23.25,2.77 l 1355.09,327.21 c 52.97,12.79 85.55,66.09 72.77,119.06 z m -401.59,1768.66 c -12.79,52.97 -66.07,85.58 -119.06,72.77 L 445.691,3277.99 c -52.961,-12.79 -85.527,-66.09 -72.738,-119.05 10.91,-45.19 51.305,-75.54 95.813,-75.54 7.675,0 15.464,0.89 23.246,2.77 l 1611.328,389.06 c 52.97,12.79 85.56,66.1 72.77,119.06 z m 4607.19,359.85 c 46.2,0 83.77,37.59 83.77,83.79 0,46.19 -37.57,83.78 -83.77,83.78 -46.19,0 -83.78,-37.59 -83.78,-83.78 0,-46.2 37.59,-83.79 83.78,-83.79 z m 0,-140.74 c -123.79,0 -224.52,100.73 -224.52,224.53 0,123.79 100.73,224.52 224.52,224.52 123.8,0 224.51,-100.73 224.51,-224.52 0,-123.8 -100.71,-224.53 -224.51,-224.53 z m -535.65,590.66 -91.67,36.47 c -7.11,-17.87 -171.9,-441.55 5.66,-803.42 98.54,-200.75 280,-340.36 539.38,-414.9 l 54.49,189.65 c -203.15,58.39 -343.18,163.09 -416.26,311.24 -139.34,282.51 -1.28,641.1 0.14,644.69 z M 5760.11,3682 c -18,68.08 -26.39,136.4 -28.36,201.76 -189.67,16.03 -734,17.75 -1178.7,-415.35 l -92.98,-90.76 112.47,-65.36 c 16.52,-9.62 266.86,-150.94 618.57,-150.94 214.33,0 466.65,52.53 726.36,219.51 -41.68,47.1 -76.21,98.9 -104.08,155.87 -1.48,2.96 -2.96,5.92 -4.2,8.88 -416.32,-266.12 -807.74,-190.16 -1005.06,-120.61 415.35,317.19 894.32,265.39 955.98,257 z M 3693.01,2677.93 c -31.81,-57.71 -66.34,-115.68 -102.6,-169.44 103.59,-50.57 659.27,-303.87 1317.56,-303.87 169.69,0 346.03,16.77 523.61,58.46 l -45.12,192.13 c -760.9,-178.07 -1534.36,149.47 -1693.45,222.72 z m 337.89,1538.61 c 76.14,50 159.15,99.52 249.24,147.33 -92.69,54.63 -193.81,86.15 -250.25,100.89 l -182.08,-156.95 c 70.29,-30.4 135.4,-64.6 183.09,-91.27 z m 3768.44,-92.31 -23.43,-66.1 C 7763.33,4022.37 7459.22,3190.69 6479.57,2688.53 6473.89,2434 6356.25,2004.1 5924.38,1841.07 l -50.81,-19.48 -43.66,33.05 c -23.67,18.01 -229.37,191.64 -173.88,752.75 l 196.33,-19.49 c -30.34,-307.8 27.62,-465.41 67.33,-533.97 152.67,76.95 259.47,206.43 317.43,385.99 51.79,160.07 44.39,301.64 44.39,303.12 l -3.94,65.61 59.19,28.86 c 791.97,385.5 1133.07,1018.38 1225.81,1221.61 -385.75,282.9 -1091.88,568.26 -1909.74,498.21 C 4207.76,4426.61 3565.01,3545.61 3517.41,3476.8 c -37.49,54.26 -96.69,101.37 -146.51,134.91 54.23,74.69 208.68,268.64 479.94,476.99 -68.06,34.1 -148.71,69.39 -219.86,86.67 l -186.5,45.28 530.31,457.08 46.47,-8.54 c 12.8,-2.36 272.28,-51.77 461.28,-206.66 105.4,46.8 219.15,90.28 340.87,129.23 -177.24,158.96 -531.88,201.28 -704.2,203.58 l 213.34,181.04 c 48.84,-6.42 102.36,-14.8 157.36,-26.64 258.96,-55.58 441.42,-155.58 543.95,-297.73 68.85,17.43 139.67,33.53 213.22,47.6 -267.52,379.16 -653.64,418.1 -743.85,421.79 l 199.53,169.44 c 212.62,-49.27 532.87,-185.17 757.38,-557.08 57.33,7.7 115.47,14.72 175.42,20.15 45.36,3.88 89.91,6.47 134.06,8.45 -148.89,445.04 -700.44,619.36 -901.6,668.82 l 181.52,154.16 c 81.64,-25.9 179.06,-61.91 279.69,-111 345.97,-169.21 568.52,-414.07 645.28,-709.16 994.39,-18.32 1640.29,-492.79 1770.32,-597.05 z M 3864.68,3036.05 c -19.24,-46.12 -47.11,-109.51 -80.9,-180.54 74.24,-27.62 429.65,-151.44 899.01,-192.38 98.16,-8.63 194.35,-12.83 288.81,-12.83 569.5,0 1070.67,154.15 1462.58,451.85 -68.07,31.57 -129.73,68.07 -184.73,110 -401.78,-278.46 -863.24,-362.56 -1273.9,-362.56 -547.55,0 -1004.82,149.22 -1110.87,186.46 z m -1553.43,685.22 c 5.49,-1.37 554.46,-141.84 973.82,-555.13 l 138.49,140.51 c -459.13,452.51 -1040.35,600.08 -1064.87,606.13 z m 3659.25,634.31 c -14.31,-48.59 -31.82,-117.15 -44.15,-198.3 -1282.78,-44.15 -2083.13,-765.57 -2405.99,-1433.23 -294.24,-607.97 -624.49,-941.68 -638.3,-955.74 l -69.8,69.81 -69.55,69.55 c 11.59,12.08 325.07,334.44 600.07,902.46 352.45,728.33 1227.78,1516.35 2627.72,1545.45 z"
         transform="translate(0,2.5e-5)"
         id="path4" />
    </clipPath>
  </defs>
  <sodipodi:namedview
     id="namedview1"
     pagecolor="#ffffff"
     bordercolor="#000000"
     borderopacity="0.25"
     inkscape:showpageshadow="2"
     inkscape:pageopacity="0.0"
     inkscape:pagecheckerboard="0"
     inkscape:deskcolor="#d1d1d1"
     inkscape:zoom="0.49015958"
     inkscape:cx="733.4346"
     inkscape:cy="525.33911"
     inkscape:window-width="1920"
     inkscape:window-height="1128"
     inkscape:window-x="0"
     inkscape:window-y="0"
     inkscape:window-maximized="1"
     inkscape:current-layer="group-R5">
    <inkscape:page
       x="0"
       y="0"
       inkscape:label="1"
       id="page1"
       width="1083.48"
       height="793.70667"
       margin="0"
       bleed="0" />
  </sodipodi:namedview>
  <g
     id="g1"
     inkscape:groupmode="layer"
     inkscape:label="1">
    <g
       id="group-R5">
      <path
         id="path3"
         d="m 2044.77,4468.56 c 135.61,0 247.31,101.38 264.06,232.44 l 2121.78,512.31 c 52.96,12.79 85.55,66.09 72.76,119.06 -12.79,52.96 -66.09,85.57 -119.05,72.76 l -2124.64,-513 c -48.49,66.21 -126.56,109.39 -214.91,109.39 -147.17,0 -266.48,-119.31 -266.48,-266.48 0,-147.17 119.31,-266.48 266.48,-266.48 z M 1024.96,3646.3 c 136.84,0 249.45,103.19 264.61,235.98 l 2266.84,585.93 c 52.75,13.63 84.47,67.46 70.83,120.21 -13.65,52.75 -67.41,84.37 -120.21,70.84 L 1237.76,4072.7 c -48.63,64.6 -125.72,106.56 -212.8,106.56 -147.167,0 -266.476,-119.31 -266.476,-266.48 0,-147.17 119.309,-266.48 266.476,-266.48 z m 266.48,-1706.27 c 143.38,0 259.98,113.33 265.91,255.26 l 1333.2,321.9 c 52.96,12.79 85.55,66.09 72.76,119.06 -12.79,52.96 -66.09,85.57 -119.05,72.76 L 1491.32,2382.34 c -48.84,55.47 -120.17,90.65 -199.88,90.65 -147.17,0 -266.48,-119.31 -266.48,-266.48 0,-147.17 119.31,-266.48 266.48,-266.48 z m 3100.2,-724.92 -31.93,125.7 -80.96,318.81 c -2.6,10.24 -10.51,18.36 -20.67,21.23 l -308.09,86.89 c -33.35,-47.16 -86.77,-79.56 -148.88,-84.01 -38.61,-2.76 -75.33,5.83 -107.22,22.66 l -234.41,-228.34 c -3.32,-3.22 -5.59,-7.19 -7.08,-11.42 0.27,-3.21 0.89,-6.33 0.85,-9.61 -0.05,-3.46 -0.76,-6.71 -1.15,-10.07 l 112.21,-441.93 c 2.59,-10.2 10.51,-18.348 20.69,-21.219 l 261.5,-73.75 c 26.61,70.758 92.26,123.369 172.61,129.119 59.65,4.27 114.93,-18.26 154.42,-57.19 l 210.05,204.62 c 7.57,7.37 10.65,18.29 8.06,28.51 z m 1553.28,125.21 c -9.78,-46.46 -50.77,-78.35 -96.44,-78.35 -6.74,0 -13.56,0.7 -20.42,2.14 l -388.39,81.8 c -0.56,0.12 -1.05,0.38 -1.61,0.51 l -241.33,-235.08 c 2.89,-11.34 4.98,-23.02 5.85,-35.11 7.87,-110.039 -74.95,-205.628 -184.98,-213.5 -105.6,-7.558 -197.66,68.481 -211.91,171.87 l -290.51,81.96 c -7.78,-13.01 -17.23,-25.15 -28.33,-35.97 L 4233.02,833.34 c -3.21,-101.02 -82.36,-185.289 -185.38,-192.66 -84.55,-6.051 -160.4,41.539 -194.65,113.781 l -280.11,78.988 -153.67,-228.57 c -19.02,-28.328 -50.22,-43.617 -81.96,-43.617 -18.93,0 -38.06,5.418 -54.94,16.777 -45.23,30.402 -57.23,91.699 -26.83,136.91 l 164,243.942 c 0.97,1.449 2.23,2.57 3.27,3.949 -0.57,1.949 -1.38,3.789 -1.88,5.762 l -99.39,391.448 -304.65,3.97 c -54.48,0.72 -98.08,45.45 -97.38,99.93 0.72,54.49 45.33,98.4 99.93,97.38 l 314.75,-4.1 c 6.51,9.51 13.67,18.63 22.09,26.83 l 241.5,235.25 c -5.26,15.67 -8.88,32.15 -10.11,49.41 -7.88,110.04 74.94,205.62 184.98,213.5 105.1,7.53 196.81,-67.76 211.72,-170.4 l 306.55,-86.45 c 7.76,12.98 17.19,25.1 28.27,35.9 l 250.39,243.9 146.1,-64.28 -293.21,-285.6 c -7.54,-7.35 -10.62,-18.27 -8.03,-28.49 l 31.93,-125.7 80.96,-318.81 c 2.59,-10.24 10.49,-18.36 20.62,-21.21 l 293.15,-82.71 c 33.4,46.52 86.44,78.44 148.03,82.85 43.54,3.11 84.7,-8.14 119.17,-29.48 l 238.3,232.12 c 7.54,7.35 10.62,18.26 8.03,28.49 v 0.02 l -112.86,444.5 c -2.59,10.22 -10.51,18.35 -20.64,21.2 l -1.77,0.49 35.01,143.9 6.91,-1.95 c 60.85,-17.16 108.36,-65.91 123.93,-127.22 l 111.12,-437.67 372.45,-78.43 c 53.32,-11.23 87.43,-63.57 76.2,-116.87 z M 2936.14,3184.49 c -12.79,52.97 -66.09,85.6 -119.05,72.77 L 907.258,2796.13 c -52.969,-12.79 -85.531,-66.09 -72.742,-119.06 10.91,-45.18 51.3,-75.53 95.812,-75.53 7.672,0 15.465,0.89 23.242,2.77 l 1909.81,461.13 c 52.97,12.78 85.55,66.09 72.76,119.05 z M 2763.18,1191.47 1991.52,1005.13 c -48.15,69.1 -128.07,114.41 -218.66,114.41 -147.17,0 -266.48,-119.31 -266.48,-266.481 0,-147.168 119.31,-266.477 266.48,-266.477 133.47,0 243.7,98.238 263.12,226.289 l 773.5,186.777 c 52.96,12.792 85.55,66.092 72.76,119.052 -12.79,52.97 -66.09,85.61 -119.06,72.77 z m -185.48,634.16 c -12.8,52.96 -66.1,85.6 -119.06,72.76 L 1103.52,1571.18 c -52.97,-12.78 -85.53,-66.09 -72.74,-119.05 10.91,-45.19 51.3,-75.54 95.81,-75.54 7.68,0 15.47,0.89 23.25,2.77 l 1355.09,327.21 c 52.97,12.79 85.55,66.09 72.77,119.06 z m -401.59,1768.66 c -12.79,52.97 -66.07,85.58 -119.06,72.77 L 445.691,3277.99 c -52.961,-12.79 -85.527,-66.09 -72.738,-119.05 10.91,-45.19 51.305,-75.54 95.813,-75.54 7.675,0 15.464,0.89 23.246,2.77 l 1611.328,389.06 c 52.97,12.79 85.56,66.1 72.77,119.06 z m 4607.19,359.85 c 46.2,0 83.77,37.59 83.77,83.79 0,46.19 -37.57,83.78 -83.77,83.78 -46.19,0 -83.78,-37.59 -83.78,-83.78 0,-46.2 37.59,-83.79 83.78,-83.79 z m 0,-140.74 c -123.79,0 -224.52,100.73 -224.52,224.53 0,123.79 100.73,224.52 224.52,224.52 123.8,0 224.51,-100.73 224.51,-224.52 0,-123.8 -100.71,-224.53 -224.51,-224.53 z m -535.65,590.66 -91.67,36.47 c -7.11,-17.87 -171.9,-441.55 5.66,-803.42 98.54,-200.75 280,-340.36 539.38,-414.9 l 54.49,189.65 c -203.15,58.39 -343.18,163.09 -416.26,311.24 -139.34,282.51 -1.28,641.1 0.14,644.69 z M 5760.11,3682 c -18,68.08 -26.39,136.4 -28.36,201.76 -189.67,16.03 -734,17.75 -1178.7,-415.35 l -92.98,-90.76 112.47,-65.36 c 16.52,-9.62 266.86,-150.94 618.57,-150.94 214.33,0 466.65,52.53 726.36,219.51 -41.68,47.1 -76.21,98.9 -104.08,155.87 -1.48,2.96 -2.96,5.92 -4.2,8.88 -416.32,-266.12 -807.74,-190.16 -1005.06,-120.61 415.35,317.19 894.32,265.39 955.98,257 z M 3693.01,2677.93 c -31.81,-57.71 -66.34,-115.68 -102.6,-169.44 103.59,-50.57 659.27,-303.87 1317.56,-303.87 169.69,0 346.03,16.77 523.61,58.46 l -45.12,192.13 c -760.9,-178.07 -1534.36,149.47 -1693.45,222.72 z m 337.89,1538.61 c 76.14,50 159.15,99.52 249.24,147.33 -92.69,54.63 -193.81,86.15 -250.25,100.89 l -182.08,-156.95 c 70.29,-30.4 135.4,-64.6 183.09,-91.27 z m 3768.44,-92.31 -23.43,-66.1 C 7763.33,4022.37 7459.22,3190.69 6479.57,2688.53 6473.89,2434 6356.25,2004.1 5924.38,1841.07 l -50.81,-19.48 -43.66,33.05 c -23.67,18.01 -229.37,191.64 -173.88,752.75 l 196.33,-19.49 c -30.34,-307.8 27.62,-465.41 67.33,-533.97 152.67,76.95 259.47,206.43 317.43,385.99 51.79,160.07 44.39,301.64 44.39,303.12 l -3.94,65.61 59.19,28.86 c 791.97,385.5 1133.07,1018.38 1225.81,1221.61 -385.75,282.9 -1091.88,568.26 -1909.74,498.21 C 4207.76,4426.61 3565.01,3545.61 3517.41,3476.8 c -37.49,54.26 -96.69,101.37 -146.51,134.91 54.23,74.69 208.68,268.64 479.94,476.99 -68.06,34.1 -148.71,69.39 -219.86,86.67 l -186.5,45.28 530.31,457.08 46.47,-8.54 c 12.8,-2.36 272.28,-51.77 461.28,-206.66 105.4,46.8 219.15,90.28 340.87,129.23 -177.24,158.96 -531.88,201.28 -704.2,203.58 l 213.34,181.04 c 48.84,-6.42 102.36,-14.8 157.36,-26.64 258.96,-55.58 441.42,-155.58 543.95,-297.73 68.85,17.43 139.67,33.53 213.22,47.6 -267.52,379.16 -653.64,418.1 -743.85,421.79 l 199.53,169.44 c 212.62,-49.27 532.87,-185.17 757.38,-557.08 57.33,7.7 115.47,14.72 175.42,20.15 45.36,3.88 89.91,6.47 134.06,8.45 -148.89,445.04 -700.44,619.36 -901.6,668.82 l 181.52,154.16 c 81.64,-25.9 179.06,-61.91 279.69,-111 345.97,-169.21 568.52,-414.07 645.28,-709.16 994.39,-18.32 1640.29,-492.79 1770.32,-597.05 z M 3864.68,3036.05 c -19.24,-46.12 -47.11,-109.51 -80.9,-180.54 74.24,-27.62 429.65,-151.44 899.01,-192.38 98.16,-8.63 194.35,-12.83 288.81,-12.83 569.5,0 1070.67,154.15 1462.58,451.85 -68.07,31.57 -129.73,68.07 -184.73,110 -401.78,-278.46 -863.24,-362.56 -1273.9,-362.56 -547.55,0 -1004.82,149.22 -1110.87,186.46 z m -1553.43,685.22 c 5.49,-1.37 554.46,-141.84 973.82,-555.13 l 138.49,140.51 c -459.13,452.51 -1040.35,600.08 -1064.87,606.13 z m 3659.25,634.31 c -14.31,-48.59 -31.82,-117.15 -44.15,-198.3 -1282.78,-44.15 -2083.13,-765.57 -2405.99,-1433.23 -294.24,-607.97 -624.49,-941.68 -638.3,-955.74 l -69.8,69.81 -69.55,69.55 c 11.59,12.08 325.07,334.44 600.07,902.46 352.45,728.33 1227.78,1516.35 2627.72,1545.45"
         style="fill:url(#linearGradient4);fill-opacity:1;fill-rule:nonzero;stroke:none"
         transform="matrix(0.13333333,0,0,-0.13333333,0,793.70667)"
         clip-path="url(#clipPath4)" />
    </g>
  </g>
</svg>
