<?xml version="1.0" encoding="UTF-8" standalone="no"?>
<svg
   version="1.0"
   width="384"
   height="384"
   viewBox="128 96 768 768"
   preserveAspectRatio="xMidYMid"
   id="svg40"
   sodipodi:docname="zebramed.svg"
   inkscape:version="1.4 (e7c3feb100, 2024-10-09)"
   xmlns:inkscape="http://www.inkscape.org/namespaces/inkscape"
   xmlns:sodipodi="http://sodipodi.sourceforge.net/DTD/sodipodi-0.dtd"
   xmlns="http://www.w3.org/2000/svg"
   xmlns:svg="http://www.w3.org/2000/svg">
  <defs
     id="defs40" />
  <sodipodi:namedview
     id="namedview40"
     pagecolor="#ffffff"
     bordercolor="#000000"
     borderopacity="0.25"
     inkscape:showpageshadow="2"
     inkscape:pageopacity="0.0"
     inkscape:pagecheckerboard="0"
     inkscape:deskcolor="#d1d1d1"
     inkscape:clip-to-page="true"
     inkscape:zoom="1.0883919"
     inkscape:cx="237.50635"
     inkscape:cy="271.50146"
     inkscape:window-width="1920"
     inkscape:window-height="1128"
     inkscape:window-x="0"
     inkscape:window-y="0"
     inkscape:window-maximized="1"
     inkscape:current-layer="g40" />
  <metadata
     id="metadata1">Created by Svg.la</metadata>
  <g
     transform="matrix(0.1,0,0,-0.1,0,1024)"
     fill="#000000"
     stroke="none"
     id="g40">
    <rect
       style="fill:#29c3c7;fill-opacity:0.945098;stroke:#00ffff;stroke-width:20"
       id="rect40"
       width="3759.7263"
       height="1097.5599"
       x="3292.6794"
       y="-4250.126"
       transform="scale(1,-1)" />
    <path
       d="M 0,5120 V 0 h 5120 5120 v 5120 5120 H 5120 0 Z m 5341,2723 c 50,-29 48,-55 -9,-120 -84,-99 -274,-369 -317,-453 -17,-33 -15,-32 43,22 125,115 271,118 337,7 52,-89 3,-247 -115,-365 -89,-90 -164,-127 -266,-132 -67,-4 -87,-1 -121,17 -23,11 -44,25 -48,31 -9,14 -25,12 -25,-3 0,-8 -9,-22 -19,-31 -17,-15 -25,-16 -54,-7 -19,7 -45,23 -58,37 -20,22 -22,29 -13,63 l 11,38 -61,-45 c -119,-88 -238,-127 -366,-120 -142,8 -215,76 -215,198 0,94 44,180 144,280 97,99 196,150 299,158 86,6 132,-9 172,-54 35,-40 40,-94 14,-149 -20,-43 -99,-117 -153,-145 -53,-27 -182,-60 -233,-60 -46,0 -56,-17 -38,-61 36,-85 187,-76 328,20 127,86 167,132 236,275 109,222 289,501 375,579 33,30 49,37 82,37 22,0 54,-8 70,-17 z m -1195,-98 c 12,-18 14,-32 8,-44 -5,-11 -69,-87 -143,-171 -228,-256 -469,-554 -547,-674 l -19,-29 30,6 c 324,69 430,86 477,74 29,-8 48,-44 48,-91 0,-54 -20,-63 -160,-70 -228,-12 -416,-58 -518,-126 -33,-22 -69,-40 -82,-40 -26,0 -80,51 -80,77 0,68 338,535 633,873 36,41 64,76 63,78 -2,1 -90,-16 -197,-38 -220,-46 -272,-48 -300,-10 -33,44 -34,82 -5,117 30,35 2,31 346,58 107,9 220,20 250,24 30,5 83,9 117,10 57,1 64,-1 79,-24 z m 1626,-380 c 22,-15 38,-33 38,-45 0,-21 -18,-67 -35,-90 -7,-8 -22,-33 -35,-55 l -24,-40 53,47 c 121,108 264,148 330,92 43,-36 41,-79 -7,-169 -32,-61 -41,-70 -68,-73 -42,-4 -80,12 -100,43 -17,25 -16,28 5,72 l 22,46 -33,-7 c -83,-17 -233,-156 -329,-307 l -64,-100 -45,4 c -58,6 -95,45 -86,91 10,52 223,464 261,507 24,25 62,20 117,-16 z m 850,-145 c 29,-11 85,-42 123,-68 95,-64 95,-73 3,-188 -80,-101 -148,-209 -148,-236 0,-14 8,-18 38,-18 62,1 171,60 295,162 55,45 80,52 90,24 8,-20 -22,-59 -88,-113 -122,-102 -240,-162 -336,-170 -69,-7 -117,8 -154,47 -24,25 -29,38 -28,80 0,28 -1,50 -3,50 -2,0 -20,-11 -40,-25 -86,-58 -238,-78 -303,-40 -53,31 -73,65 -73,123 1,68 27,125 90,193 149,162 377,239 534,179 z M 5310,3705 v -275 h -35 c -33,0 -35,2 -35,31 v 32 l -25,-27 c -59,-64 -169,-63 -239,2 -70,65 -84,164 -38,253 52,100 160,129 255,69 l 47,-30 v 110 110 h 35 35 z m 440,158 c 0,-113 1,-117 18,-97 26,33 76,54 130,54 66,0 136,-44 162,-103 23,-50 26,-134 6,-180 -52,-120 -199,-155 -288,-69 l -28,26 v -32 c 0,-30 -2,-32 -35,-32 h -35 v 275 275 h 35 35 z m 515,78 c 0,-23 -7,-38 -20,-47 -42,-28 -88,39 -53,74 7,7 26,12 43,10 27,-3 30,-7 30,-37 z m -2368,7 c 12,-20 144,-340 150,-366 3,-12 8,-24 12,-27 6,-3 67,132 146,325 l 31,75 52,3 52,3 v -265 -266 h -35 -35 l -2,211 -3,212 -59,-144 c -109,-265 -116,-279 -141,-279 -17,0 -27,11 -43,48 -11,26 -51,120 -88,209 l -69,162 -3,-209 -2,-210 h -35 -35 v 265 265 h 49 c 29,0 53,-5 58,-12 z m 831,-142 c 58,-30 102,-103 102,-169 v -34 l -92,-6 c -51,-3 -120,-3 -152,0 l -59,6 6,-34 c 12,-59 88,-101 153,-85 14,4 39,17 55,28 l 29,22 22,-22 22,-22 -24,-25 c -50,-53 -177,-59 -249,-12 -55,36 -81,90 -81,167 0,122 72,199 188,200 29,0 65,-6 80,-14 z m 1929,-5 c 105,-48 138,-199 66,-303 -62,-91 -207,-103 -291,-25 -70,65 -83,187 -28,265 53,77 162,104 253,63 z m -397,-181 v -190 h -35 -35 v 190 190 h 35 35 z m -732,-96 c 28,-19 29,-57 2,-84 -24,-24 -38,-25 -68,-4 -26,18 -29,60 -5,86 20,22 42,23 71,2 z"
       id="path1"
       sodipodi:nodetypes="ccccccccccccccccccscccccccscccccsccccsccccccccscsssccccccccccsccccccccccccccccccccscccccccscccccccssccsccccccccscsccccsscccccsscscsccccccccccccccscccccccccsccsccccccccccccsccccsccccccccccccsccc"
       style="stroke:#00ffff" />
    <path
       d="m 4469,7312 c -54,-35 -146,-133 -178,-192 l -24,-43 37,6 c 76,12 182,80 233,150 27,36 31,92 7,101 -24,9 -27,8 -75,-22 z"
       id="path2" />
    <path
       d="m 5120,7249 c -84,-52 -240,-247 -240,-301 0,-20 8,-31 30,-43 41,-21 60,-19 112,14 77,49 180,194 202,284 15,63 -37,87 -104,46 z"
       id="path3" />
    <path
       d="m 6513,7136 c -128,-41 -303,-205 -303,-283 0,-86 161,-6 342,171 79,76 95,96 84,106 -22,18 -78,21 -123,6 z"
       id="path4" />
    <path
       d="m 4680,6392 c -8,-2 -26,-14 -39,-26 -49,-44 -261,-333 -261,-356 0,-14 63,-12 82,3 41,33 309,350 302,357 -15,13 -68,27 -84,22 z"
       id="path5" />
    <path
       d="m 4686,6168 -161,-163 59,-8 58,-8 51,48 c 146,134 260,243 256,246 -2,1 -26,13 -54,26 l -49,23 z"
       id="path6" />
    <path
       d="m 4435,6238 c -75,-60 -226,-202 -236,-220 -10,-18 -6,-19 47,-16 l 57,3 79,115 c 80,117 101,150 96,150 -2,0 -21,-14 -43,-32 z"
       id="path7"
       sodipodi:nodetypes="cscccsc" />
    <path
       d="m 4993,6208 c -58,-43 -218,-175 -241,-201 -27,-28 -25,-30 53,-42 39,-6 44,-3 175,100 74,58 136,109 138,115 3,8 -68,50 -85,50 -5,0 -23,-10 -40,-22 z"
       id="path8"
       sodipodi:nodetypes="ccsccsc" />
    <path
       d="m 5120,6089 c -40,-27 -99,-71 -132,-97 l -61,-47 56,-12 56,-13 112,75 c 62,41 117,75 122,75 19,0 0,22 -39,45 l -41,24 z"
       id="path9"
       sodipodi:nodetypes="ccccccsccc" />
    <path
       d="m 5070,3753 c -61,-24 -98,-105 -80,-172 32,-118 190,-130 235,-17 24,58 13,114 -29,155 -33,32 -91,48 -126,34 z"
       id="path37" />
    <path
       d="m 5820,3738 c -96,-66 -88,-193 14,-239 49,-21 96,-14 135,22 85,79 28,239 -85,239 -17,0 -46,-10 -64,-22 z"
       id="path38" />
    <path
       d="m 4578,3737 c -26,-22 -48,-57 -48,-76 0,-7 41,-11 116,-11 h 116 l -6,28 c -4,15 -20,39 -37,55 -38,35 -101,38 -141,4 z"
       id="path39" />
    <path
       d="m 6503,3740 c -82,-49 -85,-183 -6,-235 32,-21 98,-24 131,-6 36,19 62,70 62,121 0,108 -101,173 -187,120 z"
       id="path40" />
    <g
       id="レイヤー_18"
       transform="matrix(6.5590939,0,0,-6.4114486,1825.905,8740.2756)">
	<g
   id="g1057">
		<path
   class="st144"
   d="M 93.37,612.73 C 73.79,610.14 56.11,603.9 40.69,592.02 28.15,582.36 19.18,569.61 12.18,555.82 1.88,535.51 6.25,516.01 18.67,497.94 c 12.42,-18.07 29.95,-30.11 49.04,-40.01 14.05,-7.28 28.58,-13.56 44.33,-16.23 13.26,-2.25 25.64,0.68 36.52,8.36 4.5,3.18 8.62,4.44 14.11,4.24 34.47,-1.22 68.95,-2.69 103.43,-2.87 118.65,-0.62 237.3,-1.18 355.96,-0.86 56.65,0.15 113.3,1.87 169.92,3.76 48.95,1.64 97.86,4.46 146.77,6.93 11.8,0.6 23.56,1.86 35.34,2.83 7.67,0.63 12.65,4.9 14.6,12.18 0.4,1.48 1.21,3.04 2.28,4.11 10.06,10.1 9.47,22.75 -2.65,30.4 -7.17,4.53 -15.4,8.24 -23.66,10.05 -27.08,5.94 -54.26,11.73 -81.65,15.93 -31.89,4.89 -64.01,8.42 -96.11,11.85 -30.46,3.26 -60.99,5.87 -91.53,8.32 -38.85,3.12 -77.72,5.95 -116.61,8.61 -21.93,1.5 -43.92,2.24 -65.86,3.59 -55.29,3.4 -109.76,11.46 -162.27,29.9 -4.61,1.62 -9.08,4.13 -13.07,7 -27.66,19.91 -58.05,31.57 -92.51,30.81 -24.94,-0.55 -45.9,-10.35 -64.17,-27.25 -4.94,-4.57 -12.07,-7.51 -18.71,-9.27 -6.85,-1.82 -13.64,-0.12 -20.39,3.85 -9.61,5.65 -20.69,8.16 -31.97,8.7 -5.3,0.25 -10.65,-0.04 -16.44,-0.14 z M 46.96,506.13 c -1.02,1.61 -2.04,3.21 -3.69,5.06 -8.04,9.07 -12.1,19.33 -7.28,31.11 2.22,5.44 6.33,10.09 9.49,15.16 7.01,11.22 17.26,18.5 29.37,22.91 19.26,7.02 38.49,9 57.19,-2.36 3.33,-2.02 7.34,-3.49 11.2,-3.98 8.46,-1.07 17.03,-1.36 25.56,-1.97 1.1,-5.87 1.54,-12.82 3.75,-19.14 6.81,-19.52 19.52,-34.09 39.24,-42.93 5.79,-1.55 11.59,-3.1 18.25,-4.64 10.99,-0.81 21.97,-1.61 33.78,-2.18 9.01,1.16 18.01,2.31 27.7,3.74 4.47,1.09 8.93,2.19 13.81,3.92 5.49,1.84 10.98,3.69 17.02,6.09 4.19,2.09 8.37,4.18 12.93,6.86 6.48,2.41 12.79,6.01 19.48,7.03 21.83,3.3 43.75,6.18 65.72,8.27 32.46,3.08 64.99,5.34 97.66,2.96 27.9,-2.03 55.84,-3.43 83.75,-5.37 29.39,-2.04 58.78,-4.25 88.14,-6.67 27.2,-2.24 54.4,-4.57 81.55,-7.36 28.13,-2.89 56.23,-6.1 84.28,-9.72 19.77,-2.55 39.43,-6.03 59.93,-9 4.74,-1.01 9.47,-2.01 15.02,-2.92 6.43,-1.59 12.85,-3.19 20.02,-4.81 0.71,-0.19 1.42,-0.38 2.86,-0.62 2.15,-0.71 4.31,-1.43 6.46,-2.14 0.11,-0.53 0.21,-1.06 0.32,-1.59 -1.91,-0.6 -3.8,-1.57 -5.74,-1.73 -11.95,-1.01 -23.9,-2.01 -35.87,-2.69 -21.28,-1.22 -42.58,-2.21 -64.77,-3.46 -3.35,-0.02 -6.7,-0.04 -10.96,-0.28 -2.82,0.1 -5.65,0.38 -8.46,0.26 -14.23,-0.6 -28.45,-1.31 -43.47,-2.25 -5.49,-0.24 -10.98,-0.59 -16.47,-0.71 -39.96,-0.91 -79.92,-1.91 -119.88,-2.62 -29.97,-0.53 -59.94,-0.67 -90.82,-1.2 -1,-0.02 -2,-0.07 -3,-0.06 -103.72,0.64 -207.44,1.18 -311.16,2 -22.96,0.18 -45.92,1.33 -69.8,1.89 -10.34,0.29 -20.67,0.58 -31.56,0.44 -4.18,-2.29 -8.6,-4.22 -12.47,-6.94 -6.2,-4.36 -12.64,-7.38 -20.34,-5.79 -4.02,0.83 -8.14,1.78 -11.83,3.52 -12.81,6.03 -25.44,12.42 -38.79,18.83 -3.4,2.64 -6.79,5.27 -10.82,8.11 -2.25,2.22 -4.49,4.45 -7.3,6.97 z m 286.38,48.71 c -9.35,-5.01 -18.7,-10.01 -28.56,-15.55 -26.39,-9.27 -53.16,-11.6 -80.38,-4.1 -16.05,4.43 -24,16.36 -26.71,31.7 -2.34,13.25 3.11,24.17 13.86,32.15 12.41,9.2 26.84,11.34 41.74,10.61 23.91,-1.18 45.81,-8.99 64.74,-23.41 11.04,-8.41 23.17,-13.47 36.05,-17.49 6.61,-2.07 13.27,-3.95 20.98,-6.23 -3.09,-0.46 -5.01,-0.7 -6.91,-1.05 -11.39,-2.12 -22.77,-4.26 -34.81,-6.63 z"
   id="path959"
   style="fill:#030202" />

		<path
   class="st244"
   d="m 915,503.82 c -19.71,3.07 -39.36,6.54 -59.13,9.1 -28.04,3.62 -56.15,6.83 -84.28,9.72 -27.15,2.79 -54.35,5.12 -81.55,7.36 -29.37,2.41 -58.75,4.62 -88.14,6.67 -27.91,1.94 -55.85,3.33 -83.75,5.37 -32.68,2.38 -65.2,0.12 -97.66,-2.96 -21.98,-2.08 -43.9,-4.96 -65.72,-8.27 -6.69,-1.01 -13,-4.61 -19.47,-7.68 1.34,-1.14 2.67,-2.02 4.02,-2.06 22.4,-0.75 44.81,-1.31 67.21,-2.09 14.41,-0.5 28.81,-1.4 43.22,-1.94 20.57,-0.77 41.14,-1.27 61.71,-2.07 11.92,-0.46 23.82,-1.33 35.73,-1.92 21.53,-1.06 43.05,-2.69 64.58,-2.86 21.4,-0.17 42.8,1.39 64.21,1.72 11.94,0.19 23.9,-0.56 35.85,-0.91 10.79,-0.32 21.57,-0.67 32.36,-1.01 0.66,-0.02 1.32,-0.18 1.98,-0.18 9.59,-0.01 19.18,-0.27 28.75,0.1 6.75,0.26 13.47,1.49 20.22,1.99 1.24,0.09 2.58,-1.22 4.31,-1.88 2.48,0 4.52,0 6.84,0.29 2.85,0.21 5.93,2.49 7.97,-1.32 0.24,-0.02 0.73,-0.06 1.13,-0.03 1.48,0.04 2.55,0.05 3.9,0.34 2.86,0.23 5.92,2.47 8.11,-1.29 1.11,-0.03 1.85,-0.05 3.02,-0.05 2.15,0.03 3.88,0.04 5.86,0.33 2.75,0.31 6.12,2.73 7.01,-2.18 0.24,-0.04 0.72,-0.12 1.12,-0.1 1.47,0.03 2.54,0.04 3.82,0.3 1.07,0.4 1.93,0.54 3.03,0.97 2.56,0.97 4.76,1.45 5.19,-2.2 1.77,-0.14 3.13,-0.23 4.76,-0.24 0.44,0.09 0.63,0.1 1.18,0.14 1.11,0.06 1.86,0.09 2.67,0.46 1.85,2.18 3.25,2.33 4.3,-0.71 2.79,-0.36 5.22,-0.55 7.7,-0.4 1.71,2.33 3.07,2.44 4.38,-0.3 1.8,-0.02 3.18,-0.03 4.82,0.24 2.09,-0.21 3.93,-0.71 6.2,-1.22 2.13,-0.03 3.84,-0.05 5.8,0.22 2.09,-0.21 3.93,-0.71 6.19,-1.22 1.8,-0.03 3.18,-0.05 4.78,0.21 1.42,-0.21 2.61,-0.7 4.14,-1.2 0.76,-0.02 1.2,-0.02 1.64,0.32 -0.02,1.04 -0.02,1.74 -0.01,2.44 z"
   id="path960"
   style="fill:#f9f6de" />

		<path
   class="st245"
   d="m 211.01,510.02 c -18.94,8.82 -31.66,23.39 -38.46,42.91 -2.21,6.33 -2.65,13.27 -3.75,19.14 -8.53,0.61 -17.1,0.89 -25.56,1.97 -3.86,0.49 -7.87,1.96 -11.2,3.98 -18.7,11.36 -37.93,9.37 -57.19,2.36 -12.11,-4.41 -22.36,-11.69 -29.37,-22.91 -3.16,-5.07 -7.27,-9.72 -9.49,-15.16 -4.82,-11.78 -0.76,-22.05 7.81,-30.95 2.41,-0.02 4.28,-0.21 6.59,-0.38 6.17,-1.02 11.89,-2.05 17.98,-3.07 1.1,0.02 1.83,0.03 2.92,0.09 0.6,0.08 0.84,0.11 0.9,0.44 -1.57,1.42 -3.23,2.32 -4.33,3.68 -14.7,18.17 -7.57,44.57 14.22,52.91 19.49,7.45 39.22,-2.38 44.45,-22.42 3.64,-13.99 -1.16,-25.45 -11.4,-35.3 3.95,-1.01 7.8,-2.29 11.61,-2.2 15.22,0.39 30.42,1.26 45.63,1.84 11.26,0.43 22.53,0.63 33.78,1.13 1.65,0.08 3.25,1.26 4.86,1.94 z"
   id="path961"
   style="fill:#f9f7e7" />

		<path
   class="st246"
   d="m 333.99,555.09 c 11.38,2.13 22.77,4.26 34.16,6.37 1.9,0.35 3.82,0.58 6.91,1.05 -7.7,2.28 -14.37,4.17 -20.98,6.23 -12.88,4.03 -25.01,9.08 -36.05,17.49 -18.93,14.42 -40.83,22.24 -64.74,23.41 -14.9,0.73 -29.33,-1.4 -41.74,-10.61 -10.75,-7.98 -16.2,-18.9 -13.86,-32.15 2.71,-15.33 10.66,-27.27 26.71,-31.7 27.22,-7.51 53.99,-5.18 80.24,4.55 -2.09,0.72 -4.03,1.14 -5.98,1.23 -8.43,0.39 -16.87,0.55 -25.3,1.05 -8.23,0.49 -16.44,1.52 -24.67,1.9 -7.05,0.33 -14.12,-0.05 -21.18,0.1 -9.11,0.2 -14.4,3.71 -15.65,10.32 -0.97,4.53 -1.79,8.72 -2.64,13.34 -1.13,9.57 2.66,16.41 9.67,22.02 8.52,6.81 18.62,8.64 28.94,9.15 12.57,0.63 24.71,-2.44 36.6,-6.23 2.78,-0.89 5.3,-2.71 7.81,-4.29 3.71,-2.34 7.32,-4.86 11.26,-7.45 3.04,-2.72 5.78,-5.3 8.82,-8.03 -0.03,-1.98 0.03,-3.99 -0.76,-5.59 -2.77,-5.7 -1.99,-7.31 4.17,-7.22 3.13,0.04 6.25,0.62 9.38,0.78 4.28,0.23 8.06,-0.51 8.88,-5.72 z"
   id="path962"
   style="fill:#a9a08f" />

		<path
   class="st247"
   d="m 290.84,506.64 c -9.01,-1.16 -18.01,-2.31 -27.43,-3.99 -0.41,-1.9 -0.41,-3.27 -0.05,-4.8 2.43,0.09 4.62,0.01 6.55,0.67 2.44,0.84 4.65,3.25 7,3.3 7.11,0.16 14.24,-0.49 21.36,-0.82 7.29,-0.34 14.58,-0.6 21.85,-1.09 1,-0.07 1.92,-1.24 3.26,-1.91 1.12,0 1.87,0 2.91,0.29 4.15,0.13 8.4,2.77 12.11,-1.29 1.47,0 2.53,0 3.88,0.29 3.82,0.13 7.75,2.63 11.15,-1.29 2.14,0 3.85,0 5.84,0.28 2.86,0.23 5.93,2.49 8.18,-1.28 2.81,0 5.18,0 7.74,0.25 1.06,0.08 1.94,-0.09 3.26,-0.26 6.81,-0.66 13.19,-1.33 19.77,-1.73 1.4,0.08 2.6,-0.09 4.19,-0.27 2.47,-0.33 4.53,-0.66 6.87,-0.7 2.86,0.23 5.93,2.49 8.16,-1.28 2.14,0 3.85,0 5.86,0.29 5.1,0.1 9.9,-0.11 15.12,-0.31 1.8,0 3.19,0 5.05,0 12.58,0.34 24.69,0.97 36.8,0.93 18.1,-0.06 36.21,-0.36 54.31,-0.96 23.18,-0.78 46.35,-2.21 69.54,-2.87 15.97,-0.46 31.97,-0.33 47.94,0.05 5.2,0.12 10.49,1.49 15.5,3.04 2.78,0.86 6.81,2.05 4.8,6.99 -0.18,0.45 1.9,2.58 3.06,2.7 5.76,0.61 11.55,0.96 17.34,1.1 6.96,0.17 13.93,-0.07 20.89,0.13 1.48,0.04 2.92,1.24 3.92,1.9 -6.88,0.33 -13.3,0.92 -19.72,0.91 -7.61,-0.02 -15.22,-0.57 -23.27,-0.89 -2.47,-0.01 -4.51,-0.01 -6.61,-0.38 -0.95,-1.04 -1.76,-2.17 -2.74,-2.34 -6.83,-1.21 -13.7,-3.18 -20.53,-3.12 -30.39,0.28 -60.78,1.19 -91.17,1.82 -18.77,0.39 -37.55,0.99 -56.32,0.94 -32.1,-0.08 -64.19,-0.6 -96.29,-0.94 -1,-0.01 -1.99,-0.14 -2.99,-0.18 -7.45,-0.25 -14.94,-1.05 -22.35,-0.61 -15.34,0.91 -30.62,2.73 -45.96,3.71 -11.59,0.74 -23.23,0.67 -34.83,1.19 -1.37,0.06 -2.65,1.65 -3.95,2.53 z"
   id="path963"
   style="fill:#f3e7a3" />

		<path
   class="st248"
   d="m 799,510.01 c -1.29,0.66 -2.63,1.97 -3.87,1.88 -6.75,-0.5 -13.47,-1.73 -20.22,-1.99 -9.57,-0.37 -19.17,-0.11 -28.75,-0.1 -0.66,0 -1.32,0.16 -1.98,0.18 -10.79,0.34 -21.57,0.69 -32.36,1.01 -11.95,0.35 -23.91,1.1 -35.85,0.91 -21.41,-0.34 -42.81,-1.9 -64.21,-1.72 -21.53,0.17 -43.06,1.81 -64.58,2.86 -11.91,0.58 -23.81,1.46 -35.73,1.92 -20.57,0.8 -41.14,1.3 -61.71,2.07 -14.41,0.54 -28.81,1.43 -43.22,1.94 -22.4,0.78 -44.81,1.34 -67.21,2.09 -1.35,0.05 -2.67,0.92 -4.2,1.77 -4.38,-1.73 -8.56,-3.82 -12.55,-6.33 6.56,-0.85 12.91,-1.36 19.27,-1.69 6.78,-0.35 13.56,-0.65 20.35,-0.79 19.12,-0.39 38.24,-0.7 57.37,-1.01 3.75,-0.06 7.5,0.12 11.24,-0.06 12.08,-0.58 24.15,-1.42 36.24,-1.91 19.07,-0.78 38.16,-1.26 57.23,-2.05 21.04,-0.88 42.07,-2.19 63.11,-2.91 18.61,-0.64 37.25,-1.16 55.86,-0.89 9,0.13 17.95,2.44 26.96,3.29 6.1,0.57 12.28,0.34 18.43,0.33 0.46,0 0.92,-1.17 1.84,-1.8 3.15,0 5.85,0 8.84,0.3 7.66,0.42 15.02,0.61 22.38,0.59 0.78,0 1.55,-1.23 2.8,-1.89 5.82,0 11.18,0 16.82,0.3 5,0.42 9.7,0.64 14.4,0.59 0.78,-0.01 1.54,-1.22 2.7,-1.88 1.46,0 2.53,0 3.68,0.4 5.03,0.46 9.97,0.53 15.29,0.6 1.12,0 1.87,0.01 2.7,0.38 2.03,0.78 3.99,1.19 6.27,1.6 0.77,0 1.21,0 1.83,0.25 1.06,0.09 1.94,-0.07 3.18,-0.08 2.79,0.7 5.22,1.27 7.65,1.84 z"
   id="path964"
   style="fill:#f9f2cc" />

		<path
   class="st249"
   d="m 844,505.99 c 0,0 -0.48,0.08 -1.15,0.07 -2.72,-0.01 -4.77,-0.01 -7.24,-0.03 -2.15,-0.03 -3.88,-0.04 -5.9,-0.34 -1.78,-0.42 -3.26,-0.7 -4.73,-0.65 -7.35,0.24 -14.34,-0.65 -21.51,-2.96 -4.98,-1.61 -10.94,-0.17 -16.91,-0.08 -3.48,0.32 -6.52,0.65 -9.98,0.96 -4.46,-0.32 -8.51,-0.64 -12.61,-1.29 -1.02,-0.11 -2,0.11 -3.41,0.33 -3.8,-0.32 -7.17,-0.63 -10.91,-0.93 -1.79,0.32 -3.22,0.62 -4.94,0.63 -8.68,-1.12 -17.08,-1.78 -25.42,-2.91 -2.09,-0.28 -3.98,-2.05 -5.94,-3.18 -2.63,-1.51 -5.11,-4.08 -7.86,-4.41 -9.51,-1.15 -19.15,-1.23 -28.67,-2.33 -3.7,-0.43 -7.21,-2.49 -10.52,-4.11 1.92,-0.45 3.56,-0.77 5.19,-0.72 18.86,0.62 37.73,1.2 56.58,2.01 9.23,0.4 18.44,1.34 27.67,1.86 4.21,0.24 8.49,0.48 12.67,0.02 5.52,-0.62 11,-1.76 16.42,-3.01 2.48,-0.57 4.78,-1.95 7.16,-2.96 14.22,0.67 28.44,1.38 42.67,1.98 2.81,0.12 5.64,-0.16 8.64,0.16 -10.78,1.58 -21.74,2.7 -32.69,3.95 -2.89,0.33 -5.73,1.04 -8.6,1.58 0.01,0.52 0.01,1.05 0.02,1.57 1.45,0.57 2.86,1.24 4.35,1.68 12.54,3.72 25.09,7.39 37.63,11.42 -0.01,0.78 -0.01,1.23 -0.01,1.69 z"
   id="path965"
   style="fill:#efdf87" />

		<path
   class="st250"
   d="m 291.18,506.77 c 0.97,-1.02 2.24,-2.6 3.59,-2.66 11.61,-0.53 23.24,-0.46 34.83,-1.19 15.34,-0.98 30.62,-2.8 45.96,-3.71 7.41,-0.44 14.9,0.36 22.35,0.61 1,0.03 1.99,0.16 2.99,0.18 32.1,0.34 64.19,0.86 96.29,0.94 18.77,0.05 37.55,-0.56 56.32,-0.94 30.39,-0.63 60.77,-1.54 91.17,-1.82 6.84,-0.06 13.71,1.92 20.53,3.12 0.98,0.17 1.79,1.29 2.31,2.34 -9.77,-0.3 -19.2,-1.75 -28.57,-1.46 -17.64,0.55 -35.31,-2.02 -52.97,1.58 -8.44,1.72 -17.4,1.07 -26.13,1.21 -10.4,0.17 -20.81,-0.09 -31.21,0.07 -14.61,0.22 -29.22,0.61 -43.83,0.98 -11.28,0.29 -22.56,0.67 -33.84,0.98 -13.28,0.36 -26.56,0.97 -39.83,0.94 -17.28,-0.04 -34.55,-0.85 -51.82,-0.85 -16.61,0 -33.22,0.54 -49.82,1.02 -1.54,0.04 -3.04,1.37 -4.56,2.1 -4.49,-1.11 -8.96,-2.21 -13.76,-3.44 z"
   id="path966"
   style="fill:#f5eaae" />

		<path
   class="st251"
   d="m 180.99,481.13 c 22.96,-0.7 45.91,-1.85 68.88,-2.03 103.72,-0.82 207.44,-1.36 311.16,-2 1,-0.01 2,0.04 3.11,0.39 -27.35,0.47 -54.81,0.37 -82.15,3.5 -6.32,0.72 -12.65,1.34 -19.43,2.01 -4.48,0.32 -8.52,0.65 -12.83,0.69 -3.2,-0.31 -6.51,-2.43 -9.08,1.27 -0.76,0 -1.19,-0.01 -1.93,-0.3 -1.62,-0.41 -2.94,-0.69 -4.25,-0.64 -13.92,0.62 -27.82,1.72 -41.74,1.83 -15.78,0.13 -31.58,-0.39 -47.36,-1.03 -17.05,-0.69 -34.07,-2.08 -51.12,-2.71 -7.43,-0.28 -14.91,0.47 -22.36,0.97 -1.34,0.09 -2.6,1.24 -4.23,1.9 -0.77,0 -1.21,0 -1.83,-0.24 -2.07,0.24 -3.97,0.72 -6.28,1.21 -2.13,0.02 -3.83,0.03 -5.68,-0.19 -0.72,-0.07 -1.28,0.09 -2.29,0.25 -2.46,0.01 -4.49,0.03 -6.83,0.04 -0.78,0.32 -1.26,0.64 -2.14,0.96 -1.46,0.01 -2.52,0.01 -4.03,0.01 -16.23,-1.03 -32.02,-1.93 -47.78,-3.17 -3.33,-0.26 -6.55,-1.78 -9.81,-2.72 z"
   id="path967"
   style="fill:#e5d054" />

		<path
   class="st252"
   d="m 305.12,510.51 c 1.31,-1.05 2.82,-2.38 4.36,-2.42 16.6,-0.48 33.21,-1.02 49.82,-1.02 17.27,0 34.55,0.82 51.82,0.85 13.28,0.03 26.56,-0.58 39.83,-0.94 11.28,-0.3 22.56,-0.69 33.84,-0.98 14.61,-0.37 29.22,-0.77 43.83,-0.98 10.4,-0.15 20.81,0.1 31.21,-0.07 8.73,-0.14 17.69,0.51 26.13,-1.21 17.66,-3.6 35.33,-1.03 52.97,-1.58 9.37,-0.29 18.8,1.16 28.63,1.82 2.47,0 4.5,0.01 7.05,0.39 5.47,1.12 10.42,1.87 15.38,2.63 -0.46,0.63 -0.92,1.79 -1.39,1.79 -6.14,0.02 -12.33,0.24 -18.43,-0.33 -9.02,-0.84 -17.96,-3.16 -26.96,-3.29 -18.61,-0.27 -37.25,0.25 -55.86,0.89 -21.05,0.72 -42.07,2.03 -63.11,2.91 -19.07,0.8 -38.16,1.27 -57.23,2.05 -12.09,0.49 -24.16,1.33 -36.24,1.91 -3.74,0.18 -7.49,0 -11.24,0.06 -19.12,0.32 -38.24,0.62 -57.37,1.01 -6.79,0.14 -13.57,0.43 -20.35,0.79 -6.36,0.33 -12.72,0.84 -19.55,1.41 -5.95,-1.68 -11.44,-3.53 -17.14,-5.69 z"
   id="path968"
   style="fill:#f7efc0" />

		<path
   class="st253"
   d="m 463,483 c 6.33,-0.67 12.66,-1.29 18.98,-2.01 27.34,-3.13 54.81,-3.03 82.6,-3.39 30.31,0.1 60.29,0.23 90.26,0.77 39.96,0.71 79.92,1.71 119.88,2.62 5.49,0.13 10.98,0.47 16.87,0.84 -1.98,1.14 -4.28,2.51 -6.76,3.09 -5.42,1.25 -10.9,2.39 -16.42,3.01 -4.17,0.46 -8.45,0.23 -12.67,-0.02 -9.23,-0.53 -18.44,-1.47 -27.67,-1.86 -18.85,-0.81 -37.72,-1.39 -56.58,-2.01 -1.63,-0.05 -3.27,0.26 -5.63,0.71 -5.43,-0.04 -10.14,-0.37 -15.06,-0.97 -1.4,-0.1 -2.6,0.06 -4.19,0.22 -1.45,-0.01 -2.51,-0.02 -3.66,-0.4 -2.38,-0.77 -4.67,-1.16 -7.41,-1.56 -12.14,0.31 -23.83,0.62 -35.81,0.65 -1.94,-0.42 -3.59,-0.7 -5.23,-0.65 -10.76,0.28 -21.52,0.81 -32.29,0.9 -5.94,0.05 -11.88,-0.84 -17.82,-0.83 -6.61,0.01 -13.21,0.71 -19.82,0.87 -17.08,0.41 -34.15,0.69 -51.23,1.04 -0.83,0.02 -1.67,0.28 -2.47,0.18 -2.64,-0.35 -5.25,-0.8 -7.87,-1.2 z"
   id="path969"
   style="fill:#e9d76d" />

		<path
   class="st254"
   d="m 333.67,554.96 c -0.5,5.33 -4.28,6.07 -8.56,5.86 -3.13,-0.16 -6.25,-0.74 -9.38,-0.78 -6.17,-0.09 -6.95,1.52 -4.17,7.22 0.78,1.6 0.72,3.62 0.6,5.29 -7.19,-2.79 -9.9,-12.52 -19.17,-10.8 -0.58,0.11 -1.3,-0.96 -2.05,-1.28 -2.07,-0.88 -4.15,-2.21 -6.3,-2.39 -10.53,-0.87 -21.1,-1.34 -31.64,-2.15 -2.07,-0.16 -4.07,-1.15 -6.1,-1.75 0.12,-0.54 0.24,-1.07 0.37,-1.61 3.49,-0.77 6.98,-1.53 10.47,-2.3 -1.26,-1.7 -2.53,-2.63 -3.87,-2.75 -12.1,-1.06 -24.1,-0.82 -35.68,3.44 -2.14,0.79 -4.12,2.02 -6.17,3.04 1.1,-6.27 6.39,-9.78 15.49,-9.98 7.06,-0.15 14.13,0.22 21.18,-0.1 8.24,-0.38 16.44,-1.41 24.67,-1.9 8.42,-0.5 16.87,-0.66 25.3,-1.05 1.95,-0.09 3.89,-0.51 6.24,-0.96 9.74,4.82 19.09,9.83 28.77,14.95 z"
   id="path970"
   style="fill:#b0a899" />

		<path
   class="st253"
   d="m 844,503.96 c -12.55,-3.69 -25.09,-7.36 -37.63,-11.08 -1.48,-0.44 -2.9,-1.11 -4.35,-1.68 -0.01,-0.52 -0.01,-1.05 -0.02,-1.57 2.87,-0.54 5.71,-1.25 8.6,-1.58 10.95,-1.24 21.91,-2.36 33.14,-3.84 3.62,-0.29 6.97,-0.27 10.79,0.21 1.36,1.74 2.06,3.92 3.19,4.18 13.19,2.97 26.34,6.74 39.72,8.07 10.72,1.06 21.75,-0.94 32.53,-1.22 -1.23,0.78 -2.35,1.22 -3.48,1.63 -2.54,0.92 -5.07,1.84 -7.93,2.77 -0.74,0.01 -1.16,0.01 -1.85,-0.25 -2.08,0 -3.89,0.25 -6.03,0.49 -0.75,0 -1.18,0.01 -2.04,-0.01 -2.88,0.56 -5.32,1.16 -8.13,1.79 -1.08,0.01 -1.8,-0.02 -2.83,-0.3 -6.44,0.3 -12.57,0.86 -19,1.44 -0.76,0.35 -1.23,0.67 -1.7,0.99 -2.43,0.2 -4.86,0.4 -7.93,0.62 -1.46,-0.2 -2.26,-0.43 -3.23,-0.9 -0.72,-0.41 -1.27,-0.57 -2.04,-0.99 -1.1,0.51 -1.98,1.28 -2.86,2.05 -1.36,0.09 -2.72,0.18 -4.91,0.25 -2.22,-0.01 -3.62,-0.01 -5.38,-0.03 -1.12,-0.05 -1.86,-0.08 -2.86,-0.36 -1.41,-0.41 -2.59,-0.54 -3.77,-0.68 z"
   id="path971"
   style="fill:#e9d76d" />

		<path
   class="st251"
   d="m 65.73,490.9 c 12.7,-6.26 25.33,-12.65 38.14,-18.68 3.68,-1.73 7.81,-2.69 11.83,-3.52 7.71,-1.59 14.15,1.43 20.34,5.79 3.87,2.72 8.3,4.65 12.59,7.47 -1.47,2.02 -3.07,3.51 -5.1,5.01 -2.46,0.02 -4.49,0.03 -6.99,0.04 -10.4,0.38 -20.35,0.61 -30.27,1.18 -13.52,0.77 -27.03,1.79 -40.54,2.71 z"
   id="path972"
   style="fill:#e5d054" />

		<path
   class="st251"
   d="m 930.08,495.08 c -10.89,0.64 -21.91,2.65 -32.64,1.59 -13.38,-1.32 -26.53,-5.09 -39.72,-8.07 -1.13,-0.25 -1.83,-2.44 -2.74,-4.1 21.28,0.71 42.58,1.7 63.86,2.92 11.97,0.68 23.92,1.68 35.87,2.69 1.95,0.16 3.83,1.13 5.74,1.73 -0.11,0.53 -0.21,1.06 -0.32,1.59 -2.15,0.71 -4.31,1.43 -7.11,2.01 -1.5,-0.16 -2.35,-0.18 -3.66,-0.24 -4.08,0.07 -7.7,0.19 -11.63,0.21 -0.73,-0.09 -1.16,-0.08 -1.98,-0.16 -0.92,0 -1.45,0.09 -2.25,0.15 -0.62,0.02 -0.97,0.07 -1.66,0 -0.8,-0.19 -1.28,-0.26 -1.76,-0.32 z"
   id="path973"
   style="fill:#e5d054" />

		<path
   class="st248"
   d="m 211.4,510.01 c -2.01,-0.66 -3.6,-1.85 -5.24,-1.92 -11.26,-0.5 -22.52,-0.7 -33.78,-1.13 -15.21,-0.59 -30.42,-1.46 -45.63,-1.84 -3.81,-0.1 -7.66,1.19 -11.91,2.11 -2.22,-0.96 -4.02,-2.18 -5.54,-3.68 2.16,-0.69 4.04,-1.28 5.96,-1.52 3.57,-0.45 7.17,-0.69 11.23,-1.02 23.67,0.34 46.87,0.61 70.07,1.03 7.1,0.13 14.21,0.46 21.29,1.08 3.82,0.33 7.57,1.45 11.35,2.22 -5.82,1.55 -11.62,3.1 -17.8,4.67 z"
   id="path974"
   style="fill:#f9f2cc" />

		<path
   class="st250"
   d="m 229.61,505.35 c -4.21,-0.77 -7.96,-1.89 -11.78,-2.22 -7.07,-0.61 -14.18,-0.95 -21.29,-1.08 -23.2,-0.42 -46.4,-0.7 -69.96,-1.3 -0.1,-0.76 0.16,-1.25 0.86,-1.75 2.14,0 3.86,0 6.01,0 12.26,-0.33 24.08,-0.65 35.9,-1.04 0.89,-0.03 1.77,-0.62 2.99,-0.95 0.78,0 1.22,0 1.7,0.3 0.45,0.62 0.86,0.94 1.26,1.25 0.24,-0.52 0.47,-1.03 1.04,-1.55 0.77,0 1.21,0 1.74,0.39 3.03,0.79 5.98,1.2 9.32,1.6 1.47,0 2.53,0 3.89,0.3 11.1,0.77 21.9,1.24 33.11,1.7 3.8,-0.67 7.2,-1.33 11.02,-2 5.74,-0.66 11.04,-1.59 16.38,-1.88 3.37,-0.19 6.8,0.56 10.45,0.88 0.25,0 0.75,0 0.75,0 0,1.37 0,2.74 0,4.52 -10.99,1.22 -21.98,2.03 -33.39,2.83 z"
   id="path975"
   style="fill:#f5eaae" />

		<path
   class="st253"
   d="m 143.97,486.96 c 1.59,-1.49 3.19,-2.98 4.94,-4.79 10.49,-0.61 20.83,-0.89 31.62,-1.11 3.72,1.01 6.94,2.53 10.26,2.79 15.76,1.24 31.55,2.14 47.7,3.54 -4.56,1.11 -9.52,2.65 -14.41,2.44 -22.94,-1.01 -45.85,-2.57 -68.78,-3.75 -3.75,-0.19 -7.55,0.56 -11.33,0.88 z"
   id="path976"
   style="fill:#e9d76d" />

		<path
   class="st253"
   d="m 65.4,490.97 c 13.84,-0.99 27.35,-2.02 40.87,-2.79 9.93,-0.57 19.87,-0.8 30.19,-0.8 -0.11,0.77 -0.59,1.44 -1.11,1.48 -10.05,0.76 -20.12,1.41 -30.17,2.16 -1.74,0.13 -3.45,0.65 -5.54,0.98 -1.79,0.33 -3.21,0.65 -4.85,0.73 -2.07,0.25 -3.93,0.74 -6.13,1.36 -10.06,0.02 -20.12,-2.05 -29.03,4.88 -1.12,0 -1.87,0.01 -2.97,0.01 -0.82,-0.02 -1.29,-0.03 -1.76,-0.05 3.38,-2.61 6.78,-5.25 10.5,-7.96 z"
   id="path977"
   style="fill:#e9d76d" />

		<path
   class="st255"
   d="m 938.06,495.5 c 3.63,-0.12 7.25,-0.24 11.39,-0.07 0.56,0.45 0.6,0.62 0.65,0.78 -6.43,1.59 -12.85,3.19 -19.68,4.41 -0.38,-0.8 -0.37,-1.22 -0.06,-1.66 0.69,-0.01 1.09,-0.01 1.82,-0.02 0.83,-0.61 1.34,-1.22 2.16,-1.87 0.76,-0.04 1.19,-0.05 1.81,0.18 0.75,-0.42 1.33,-1.09 1.91,-1.75 z"
   id="path978"
   style="fill:#e0dcd4" />

		<path
   class="st248"
   d="m 930.06,498.97 c -0.01,0.43 -0.03,0.85 -0.05,1.6 -4.75,1.33 -9.48,2.33 -14.62,3.29 -0.4,-0.75 -0.4,-1.44 -0.1,-2.53 0.77,-0.76 1.23,-1.13 1.69,-1.5 0.42,0.01 0.84,0.01 2.02,0.06 4.19,-0.27 7.62,-0.59 11.06,-0.92 z"
   id="path979"
   style="fill:#f9f2cc" />

		<path
   class="st247"
   d="m 49.95,510.96 c -1.87,0.18 -3.74,0.37 -5.83,0.27 0.8,-1.89 1.82,-3.5 3.5,-5.2 1.57,0.22 2.48,0.54 3.25,1.2 -0.39,1.46 -0.65,2.6 -0.92,3.73 z"
   id="path980"
   style="fill:#f3e7a3" />

		<path
   class="st256"
   d="m 51.01,506.89 c -0.91,-0.32 -1.81,-0.65 -3.1,-1.01 1.86,-2.27 4.1,-4.5 6.66,-6.83 0.79,-0.09 1.26,-0.07 2.03,0.29 -1.01,2.74 -2.32,5.14 -3.96,7.55 -0.76,0.02 -1.2,0.01 -1.63,0 z"
   id="path981"
   style="fill:#f0e08e" />

		<path
   class="st257"
   d="m 950.46,496.2 c -0.41,-0.15 -0.46,-0.31 -0.56,-0.72 0.79,-0.22 1.65,-0.2 2.78,-0.02 -0.43,0.35 -1.14,0.54 -2.22,0.74 z"
   id="path982"
   style="fill:#f2e59b" />

		<path
   class="st250"
   d="m 750.02,501.04 c 3.37,0.32 6.73,0.63 10.92,0.96 1.57,0 2.32,0 3.08,-0.01 4.05,0.32 8.09,0.64 12.83,1.26 3.85,0.12 7,-0.06 10.56,-0.25 1.46,0 2.53,0 3.66,0.36 4.69,1.77 9.32,3.19 14.17,4.71 0.49,0.3 0.67,0.55 0.77,1.13 0,0.45 0,0.62 0,0.8 -2.04,0 -4.09,0 -6.57,0 -2.87,-0.57 -5.3,-1.14 -8.35,-1.97 -1.45,-0.2 -2.27,-0.13 -3.09,-0.06 -0.44,0 -0.88,0 -1.73,-0.37 -2.37,-0.78 -4.32,-1.19 -6.27,-1.6 -0.75,0 -1.5,0 -2.91,-0.31 -5.47,-0.43 -10.28,-0.56 -15.09,-0.7 -1.06,0 -2.13,0 -4.02,-0.01 -3.21,-0.34 -5.59,-0.67 -7.97,-1.37 0,-1.09 0,-1.83 0.01,-2.57 z"
   id="path983"
   style="fill:#f5eaae" />

		<path
   class="st257"
   d="m 790.99,503.01 c -1.07,0 -2.13,0 -3.6,-0.26 -0.4,-0.43 -0.4,-0.6 -0.4,-0.77 5.52,-0.08 11.49,-1.52 16.47,0.09 7.16,2.31 14.16,3.2 21.51,2.96 1.47,-0.05 2.96,0.23 4.73,0.98 0.29,1.06 0.28,1.49 0.27,1.93 -0.74,0.02 -1.48,0.04 -3.04,0.06 -3.19,-0.01 -5.57,-0.02 -8.17,-0.29 -1.41,0.23 -2.6,0.72 -3.8,1.22 0,0 -0.49,0.04 -1.17,0.04 -3.06,0 -5.43,-0.01 -7.8,-0.02 -0.1,-0.32 -0.28,-0.57 -0.84,-1.22 -4.9,-1.88 -9.53,-3.3 -14.16,-4.72 z"
   id="path984"
   style="fill:#f2e59b" />

		<path
   class="st257"
   d="m 878.99,502.96 c 6.13,-0.56 12.26,-1.12 18.69,-1.12 0.31,0.75 0.31,0.95 0.31,1.15 -1.71,0.01 -3.41,0.03 -5.95,0.03 -2.57,0.32 -4.31,0.64 -6.04,0.97 -1.38,0.01 -2.77,0.02 -4.87,0 -1.19,-0.36 -1.66,-0.69 -2.14,-1.03 z"
   id="path985"
   style="fill:#f2e59b" />

		<path
   class="st248"
   d="m 836.03,506.04 c 2.04,0 4.09,0 6.57,0.05 -0.22,4.92 -3.59,2.51 -6.33,1.87 -0.26,-1.05 -0.25,-1.48 -0.24,-1.92 z"
   id="path986"
   style="fill:#f9f2cc" />

		<path
   class="st248"
   d="m 818.99,507.96 c 2.38,0.01 4.75,0.02 7.57,0.04 -1.37,3.76 -4.43,1.52 -7.29,1.03 -0.28,-0.72 -0.28,-0.89 -0.28,-1.07 z"
   id="path987"
   style="fill:#f9f2cc" />

		<path
   class="st248"
   d="m 806,509.21 c 2.37,-0.26 4.74,-0.25 7.55,-0.23 -1.35,3.8 -4.43,1.52 -7.28,1.31 C 806,509.84 806,509.66 806,509.21 Z"
   id="path988"
   style="fill:#f9f2cc" />

		<path
   class="st257"
   d="m 900.89,501.82 c 2.44,-0.6 4.89,-1.19 7.75,-1.44 0.4,0.77 0.38,1.19 0.36,1.61 -1.38,0.01 -2.76,0.03 -4.95,0.03 -1.6,-0.07 -2.38,-0.14 -3.16,-0.2 z"
   id="path989"
   style="fill:#f2e59b" />

		<path
   class="st248"
   d="m 851.01,505.01 c 1.4,0 2.79,-0.01 4.6,0.05 0.39,3.66 -1.81,3.19 -4.36,1.88 -0.24,-1.04 -0.24,-1.48 -0.24,-1.93 z"
   id="path990"
   style="fill:#f9f2cc" />

		<path
   class="st250"
   d="m 835.6,506.02 c 0.42,0.46 0.41,0.89 0.4,1.66 -1.72,0.32 -3.45,0.32 -5.6,0.28 -0.42,-0.46 -0.42,-0.9 -0.4,-1.66 1.72,-0.32 3.45,-0.31 5.6,-0.28 z"
   id="path991"
   style="fill:#f5eaae" />

		<path
   class="st248"
   d="m 886.25,504.27 c 1.49,-0.61 3.23,-0.93 5.37,-1.23 -1.44,0.52 -3.28,1.02 -5.37,1.23 z"
   id="path992"
   style="fill:#f9f2cc" />

		<path
   class="st257"
   d="m 916.72,499.59 c -0.2,0.61 -0.66,0.98 -1.42,1.4 -0.75,0.05 -1.18,0.05 -2.24,0.03 -1.09,-0.33 -1.57,-0.63 -2.04,-0.93 1.81,-0.25 3.62,-0.5 5.7,-0.5 z"
   id="path993"
   style="fill:#f2e59b" />

		<path
   class="st248"
   d="m 900.53,501.85 c 1.14,0.03 1.93,0.1 3.1,0.19 -1.45,0.52 -3.29,1.02 -5.38,1.23 -0.25,-0.48 -0.25,-0.67 -0.24,-1.17 0.72,-0.27 1.44,-0.24 2.52,-0.25 z"
   id="path994"
   style="fill:#f9f2cc" />

		<path
   class="st248"
   d="m 866,503.95 c 0.81,0.23 1.61,0.45 2.7,0.81 -0.4,3.02 -1.8,2.86 -3.43,0.54 0.34,-0.77 0.53,-1.06 0.73,-1.35 z"
   id="path995"
   style="fill:#f9f2cc" />

		<path
   class="st248"
   d="m 878.7,502.99 c 0.77,0.3 1.24,0.64 2.02,1.01 -0.59,2.76 -1.95,2.66 -3.66,0.33 0.4,-0.67 0.87,-0.99 1.64,-1.34 z"
   id="path996"
   style="fill:#f9f2cc" />

		<path
   class="st248"
   d="m 910.69,500.08 c 0.8,0.31 1.27,0.61 2.04,0.96 -0.9,0.53 -2.1,1.01 -3.52,1.22 -0.2,-0.69 -0.18,-1.11 -0.15,-1.84 0.45,-0.33 0.88,-0.34 1.63,-0.34 z"
   id="path997"
   style="fill:#f9f2cc" />

		<path
   class="st257"
   d="m 844,504.29 c 1.18,-0.2 2.35,-0.06 3.77,0.63 0.24,0.75 0.23,0.94 0.23,1.14 -1.07,-0.01 -2.14,-0.02 -3.61,-0.05 C 844,505.53 844,505.08 844,504.29 Z"
   id="path998"
   style="fill:#f2e59b" />

		<path
   class="st250"
   d="m 818.77,507.7 c 0.22,0.43 0.23,0.61 0.23,1.04 -1.07,0.25 -2.15,0.24 -3.62,0.2 0.78,-0.51 1.97,-1 3.39,-1.24 z"
   id="path999"
   style="fill:#f5eaae" />

		<path
   class="st249"
   d="m 861.19,504.84 c 0.62,-0.85 1.51,-1.61 2.45,-1.88 -0.51,1 -1.07,1.49 -1.64,1.99 -0.18,-0.01 -0.36,-0.02 -0.81,-0.11 z"
   id="path1000"
   style="fill:#efdf87" />

		<path
   class="st257"
   d="m 862.37,504.98 c 0.2,-0.53 0.77,-1.02 1.49,-1.77 0.7,-0.08 1.26,0.08 1.97,0.49 -0.03,0.53 -0.22,0.82 -0.63,1.25 -0.97,0.12 -1.72,0.09 -2.83,0.03 z"
   id="path1001"
   style="fill:#f2e59b" />

		<path
   class="st250"
   d="m 848.21,506.31 c -0.21,-0.45 -0.21,-0.64 -0.2,-1.13 0.76,-0.27 1.5,-0.25 2.62,-0.2 0.37,0.47 0.37,0.91 0.37,1.69 -0.86,0.19 -1.72,0.04 -2.79,-0.36 z"
   id="path1002"
   style="fill:#f5eaae" />

		<path
   class="st144"
   d="m 109.01,503.81 c 1.8,1.23 3.59,2.45 5.69,3.77 10.67,9.58 15.48,21.04 11.83,35.03 -5.22,20.05 -24.96,29.88 -44.45,22.42 -21.79,-8.34 -28.92,-34.73 -14.22,-52.91 1.1,-1.36 2.76,-2.26 4.53,-3.78 0.53,-0.67 0.63,-0.95 1.02,-1.31 3.44,-1.68 6.53,-3.31 9.97,-4.93 1.44,-0.38 2.53,-0.76 4.01,-1.1 2.74,-0.16 5.08,-0.37 7.74,-0.33 2.16,0.26 4.01,0.28 6.16,0.52 2.77,1.02 5.24,1.82 7.72,2.62 z m -20.09,34.4 c 2.59,3.19 6.14,3.62 8.67,0.98 1.65,-1.72 2.58,-5.66 1.73,-7.77 -0.7,-1.76 -4.47,-3.22 -6.85,-3.17 -3.97,0.08 -5.29,3.76 -3.55,9.96 z"
   id="path1003"
   style="fill:#030202" />

		<path
   class="st247"
   d="m 83.04,502.1 c -3.09,1.63 -6.18,3.26 -9.79,4.7 -1.12,0.25 -1.71,0.7 -2.31,1.14 -0.73,-0.01 -1.47,-0.02 -2.87,-0.31 -4.47,-0.42 -8.28,-0.56 -12.05,-1.04 2.02,-2.09 4,-3.85 6.38,-5.65 4.14,-0.35 7.86,-0.64 11.82,-0.66 1.41,0.42 2.6,0.56 4.07,0.69 1.76,-0.34 3.23,-0.65 4.7,-0.62 0.03,0.81 0.04,1.28 0.05,1.75 z"
   id="path1004"
   style="fill:#f3e7a3" />

		<path
   class="st248"
   d="m 55.99,506.93 c 3.81,0.14 7.61,0.28 11.72,0.69 -5.42,1.31 -11.14,2.34 -17.31,3.36 -0.18,-1.15 0.08,-2.28 0.48,-3.75 0.57,-0.32 1.01,-0.32 2.14,-0.29 1.46,0.01 2.21,0 2.97,-0.01 z"
   id="path1005"
   style="fill:#f9f2cc" />

		<path
   class="st248"
   d="m 71.3,508 c 0.24,-0.5 0.83,-0.94 1.6,-1.15 0.13,0.54 0.03,0.82 -0.32,1.18 -0.44,0.08 -0.68,0.05 -1.28,-0.03 z"
   id="path1006"
   style="fill:#f9f2cc" />

		<path
   class="st255"
   d="m 303.2,581.03 c -3.65,2.44 -7.25,4.96 -10.97,7.3 -2.51,1.59 -5.03,3.41 -7.81,4.29 -11.89,3.79 -24.03,6.85 -36.6,6.23 -10.32,-0.51 -20.42,-2.34 -28.94,-9.15 -7.01,-5.61 -10.8,-12.44 -9.37,-22.15 5.99,-8.72 19.22,-10.76 24.55,-6.07 5.58,4.91 11.67,5.62 18.3,5.44 6.05,-0.17 12.08,-0.69 18.2,-1.07 0.19,1.41 0.43,2.07 0.34,2.69 -0.92,6.39 1.7,9.57 8.24,9.4 6.11,-0.15 12.32,-0.09 18.27,-1.24 4.43,-0.86 5.88,0.17 5.79,4.33 z"
   id="path1007"
   style="fill:#e0dcd4" />

		<path
   class="st258"
   d="m 303.5,580.89 c -0.21,-4.02 -1.66,-5.04 -6.09,-4.19 -5.95,1.15 -12.16,1.08 -18.27,1.24 -6.54,0.17 -9.16,-3.01 -8.24,-9.4 0.09,-0.62 -0.15,-1.28 -0.34,-2.69 -6.12,0.37 -12.15,0.9 -18.2,1.07 -6.63,0.19 -12.72,-0.53 -18.3,-5.44 -5.32,-4.68 -18.56,-2.65 -24.51,5.64 0.52,-4.05 1.34,-8.24 2.31,-12.77 2.2,-1.37 4.18,-2.6 6.32,-3.38 11.58,-4.26 23.59,-4.51 35.68,-3.44 1.34,0.12 2.61,1.05 3.87,2.75 -3.49,0.77 -6.98,1.53 -10.47,2.3 -0.12,0.54 -0.24,1.07 -0.37,1.61 2.03,0.61 4.04,1.6 6.1,1.75 10.54,0.8 21.11,1.28 31.64,2.15 2.16,0.18 4.23,1.51 6.3,2.39 0.74,0.32 1.47,1.38 2.05,1.28 9.27,-1.71 11.98,8.02 18.87,10.95 -2.57,2.88 -5.32,5.45 -8.35,8.18 z"
   id="path1008"
   style="fill:#bab3a5" />

		<path
   class="st256"
   d="m 83,499.99 c -1.47,0.32 -2.93,0.64 -4.75,0.63 C 76.6,500.21 75.3,500.1 74,500 c -3.73,0.3 -7.45,0.59 -11.74,0.69 -1.13,-0.7 -1.69,-1.2 -2.26,-1.7 8.54,-6.94 18.6,-4.87 28.87,-4.62 2.41,-0.36 4.27,-0.87 6.13,-1.38 1.42,-0.33 2.84,-0.65 4.93,-0.68 11.09,0.11 21.54,0.25 31.95,-0.37 9.05,-0.54 18.05,-2.73 27.08,-2.76 13.52,-0.05 27.04,1.13 40.55,1.85 5.79,0.3 11.68,0.17 17.33,1.24 11.82,2.24 22.95,-1.71 34.38,-2.92 5.86,-0.62 11.83,-2.29 17.55,-1.68 7.85,0.84 15.65,0.03 23.71,2.9 14.93,5.33 31.03,3.76 46.74,3.39 9.73,-0.23 19.46,-0.7 29.17,-1.27 13.54,-0.79 27.08,-1.78 40.61,-2.35 -0.01,0.77 -0.01,1.21 -0.01,1.66 -2.07,0.33 -4.13,0.66 -6.81,0.73 -1.8,-0.08 -3,0.09 -4.19,0.27 -6.37,0.66 -12.75,1.33 -19.74,1.74 -1.5,-0.08 -2.38,0.09 -3.26,0.26 -2.37,0 -4.74,0 -7.98,0 -3.26,0.33 -5.64,0.67 -8.02,1 -1.71,0 -3.43,0 -6.02,0 -4.25,0.33 -7.61,0.67 -10.98,1 -1.07,0 -2.13,0 -4.05,0 -4.55,0.33 -8.25,0.67 -11.95,1 -0.75,0 -1.5,0 -3.09,0 -6.46,0.31 -12.09,1.03 -17.69,0.85 -9.13,-0.29 -18.26,1.47 -27.34,-2.97 -5.3,-2.59 -10.81,-6.62 -17.89,-5.01 -7.53,1.71 -15.28,2.44 -22.94,3.6 -5.53,0.84 -11.09,2.54 -16.59,2.36 -17.03,-0.56 -34.04,-1.9 -51.06,-2.82 -18.62,-1.01 -37.08,1 -55.53,3.06 -1.02,0.11 -1.92,1.25 -3.33,1.92 -3.48,0 -6.51,0 -9.88,-0.14 -2.73,-1.33 -4.68,-1.14 -5.84,1.58 -2.35,0.21 -4.69,0.41 -7.49,0.23 -1.73,-0.47 -3.02,-0.57 -4.32,-0.67 z"
   id="path1009"
   style="fill:#f0e08e" />

		<path
   class="st257"
   d="m 651,484.02 c 4.71,0.33 9.42,0.67 14.57,1.01 4.03,1.33 7.54,3.39 11.24,3.82 9.52,1.1 19.16,1.18 28.67,2.33 2.76,0.33 5.24,2.9 7.86,4.41 1.96,1.13 3.85,2.9 5.94,3.18 8.34,1.13 16.74,1.79 25.42,3.24 0.29,1.07 0.29,1.52 -0.11,1.97 -1.46,0.01 -2.53,0.01 -4.01,0 -7.8,-0.01 -15.19,0 -22.57,0 -1.46,-0.66 -2.9,-1.86 -4.38,-1.9 -6.96,-0.2 -13.93,0.04 -20.89,-0.13 -5.79,-0.14 -11.58,-0.49 -17.34,-1.1 -1.16,-0.12 -3.25,-2.25 -3.06,-2.7 2.01,-4.93 -2.02,-6.13 -4.8,-6.99 -5.01,-1.55 -10.3,-2.91 -15.5,-3.04 -15.97,-0.38 -31.97,-0.51 -47.94,-0.05 -23.19,0.66 -46.35,2.1 -69.54,2.87 -18.09,0.61 -36.2,0.91 -54.31,0.96 -12.11,0.04 -24.22,-0.59 -36.8,-1.26 -0.47,-0.78 -0.47,-1.23 -0.06,-1.72 4.14,-0.35 7.87,-0.64 11.89,-0.64 1.6,0.43 2.91,0.7 4.22,0.68 19.6,-0.3 39.2,-0.63 58.81,-0.98 17.94,-0.32 35.88,-0.62 53.81,-1.08 1.64,-0.04 3.25,-1.25 5.31,-1.91 2.48,0 4.52,0 6.86,0.29 17.03,0.05 33.77,-0.2 50.51,-0.49 0.4,-0.01 0.8,-0.53 1.63,-0.81 2.49,-0.01 4.55,-0.03 6.6,-0.04 1.06,0.01 2.11,0.01 3.77,0.29 1.8,0.12 3,-0.04 4.2,-0.21 z"
   id="path1010"
   style="fill:#f2e59b" />

		<path
   class="st257"
   d="m 110.99,498.99 c 0.96,-0.66 1.86,-1.8 2.88,-1.92 18.45,-2.06 36.92,-4.07 55.53,-3.06 17.02,0.93 34.03,2.26 51.06,2.82 5.5,0.18 11.06,-1.52 16.59,-2.36 7.65,-1.16 15.41,-1.89 22.94,-3.6 7.07,-1.61 12.58,2.42 17.89,5.01 9.08,4.44 18.21,2.68 27.34,2.97 5.6,0.18 11.23,-0.54 17.32,-0.85 -0.49,0.67 -1.42,1.84 -2.41,1.91 -7.28,0.49 -14.57,0.75 -21.85,1.09 -7.12,0.33 -14.25,0.98 -21.36,0.82 -2.35,-0.05 -4.56,-2.46 -7,-3.3 -1.93,-0.67 -4.12,-0.58 -6.55,-0.67 -0.36,0.16 -0.86,0.16 -1.15,-0.23 -1.86,-1.46 -3.48,-3.52 -4.99,-3.44 -6.21,0.35 -12.41,1.21 -18.57,2.2 -1.32,0.21 -2.44,1.72 -3.65,2.63 -3.4,0.67 -6.8,1.33 -10.69,1.6 -1.32,-0.79 -2.13,-1.48 -2.98,-1.55 -5.58,-0.43 -11.16,-0.95 -16.75,-0.98 -4.53,-0.03 -9.06,0.59 -13.59,0.92 -1.07,0 -2.13,0 -3.68,-0.39 -3.43,-0.79 -6.38,-1.2 -9.32,-1.6 -0.44,0 -0.88,0 -1.99,-0.01 -1.11,0 -1.56,0 -2.01,0 -0.44,0 -0.89,0 -1.95,-0.3 -10.87,-0.41 -21.12,-0.72 -31.36,-0.5 -2.58,0.06 -5.12,1.82 -7.68,2.79 -1.71,0 -3.43,0 -6.04,0 -5.93,0.01 -10.95,0.01 -15.98,0 z"
   id="path1011"
   style="fill:#f2e59b" />

		<path
   class="st250"
   d="m 717.55,503.99 c 7.84,-0.01 15.23,-0.01 23.03,0.33 0.42,0.79 0.42,1.24 0.42,1.69 -5.35,0 -10.71,0 -17,0 -4.75,0 -8.57,-0.14 -12.38,0.03 -4.21,0.18 -8.42,0.64 -12.62,0.97 -2.7,0 -5.4,0 -8.55,0 -5.41,-0.75 -10.36,-1.5 -15.39,-2.63 7.54,-0.05 15.15,0.5 22.76,0.52 6.43,0.02 12.85,-0.58 19.73,-0.91 z"
   id="path1012"
   style="fill:#f5eaae" />

		<path
   class="st257"
   d="m 438,490.99 c -4.81,0.2 -9.61,0.4 -14.6,0.09 0.02,-0.79 0.28,-0.98 1.01,-1.09 3.47,-0.33 6.53,-0.66 9.8,-0.73 1.4,0.75 2.6,1.24 3.79,1.73 z"
   id="path1013"
   style="fill:#f2e59b" />

		<path
   class="st256"
   d="m 424,489.99 c -0.32,0.1 -0.59,0.29 -0.89,0.79 -1.82,0.22 -3.53,0.22 -5.97,0.2 -1.2,-0.34 -1.67,-0.66 -2.13,-1.3 0,-0.76 0.01,-1.2 0.45,-1.65 2.81,-0.01 5.18,-0.01 7.65,0.24 0.37,0.75 0.63,1.23 0.89,1.72 z"
   id="path1014"
   style="fill:#f0e08e" />

		<path
   class="st257"
   d="m 326.29,498.3 c 3.41,-0.63 7.1,-0.96 11.26,-1.29 -2.86,4.05 -7.11,1.42 -11.26,1.29 z"
   id="path1015"
   style="fill:#f2e59b" />

		<path
   class="st256"
   d="m 438.42,490.99 c -1.61,-0.49 -2.8,-0.98 -3.93,-2.02 2.88,-0.36 5.7,-0.17 8.51,0.01 0,0.45 0,0.89 0,1.67 -1.39,0.34 -2.78,0.34 -4.58,0.34 z"
   id="path1016"
   style="fill:#f0e08e" />

		<path
   class="st257"
   d="m 415,490.01 c 0.47,0.32 0.94,0.64 1.71,0.98 -1.51,3.79 -4.58,1.54 -7.43,1.3 -0.27,-0.73 -0.27,-1.17 0.17,-1.95 2.13,-0.33 3.84,-0.33 5.55,-0.33 z"
   id="path1017"
   style="fill:#f2e59b" />

		<path
   class="st257"
   d="m 342.29,497.3 c 3.08,-0.63 6.45,-0.96 10.26,-1.29 -2.51,3.92 -6.45,1.41 -10.26,1.29 z"
   id="path1018"
   style="fill:#f2e59b" />

		<path
   class="st257"
   d="m 359.27,496.29 c 2.11,-0.62 4.49,-0.95 7.3,-1.28 -1.37,3.77 -4.44,1.51 -7.3,1.28 z"
   id="path1019"
   style="fill:#f2e59b" />

		<path
   class="st257"
   d="m 398.21,493.26 c 0.98,-0.44 2.18,-0.61 3.58,-0.53 -0.98,0.44 -2.18,0.62 -3.58,0.53 z"
   id="path1020"
   style="fill:#f2e59b" />

		<path
   class="st257"
   d="m 375.18,495.25 c 0.69,-0.42 1.57,-0.59 2.63,-0.51 -0.69,0.42 -1.56,0.59 -2.63,0.51 z"
   id="path1021"
   style="fill:#f2e59b" />

		<path
   class="st252"
   d="m 699.29,507.3 c 3.91,-0.63 8.11,-1.09 12.33,-1.27 3.81,-0.17 7.63,-0.03 11.91,-0.03 -0.31,0.66 -1.08,1.89 -1.86,1.89 -7.36,0.02 -14.72,-0.17 -22.38,-0.59 z"
   id="path1022"
   style="fill:#f7efc0" />

		<path
   class="st252"
   d="m 741.3,506.3 c -0.29,-0.74 -0.29,-1.19 -0.29,-1.97 1.06,-0.34 2.13,-0.34 4.01,-0.34 2.21,0 3.6,0.01 4.99,0.01 2.38,0.33 4.76,0.67 7.57,1 -0.34,0.66 -1.1,1.88 -1.87,1.89 -4.71,0.06 -9.42,-0.16 -14.41,-0.59 z"
   id="path1023"
   style="fill:#f7efc0" />

		<path
   class="st252"
   d="m 762.09,505.4 c 4.72,-0.26 9.52,-0.13 14.62,0.3 -4.65,0.23 -9.59,0.17 -14.62,-0.3 z"
   id="path1024"
   style="fill:#f7efc0" />

		<path
   class="st252"
   d="m 780.07,506.39 c 1.87,0.03 3.83,0.44 5.86,1.22 -1.87,-0.03 -3.82,-0.44 -5.86,-1.22 z"
   id="path1025"
   style="fill:#f7efc0" />

		<path
   class="st252"
   d="m 788.18,508.24 c 0.64,-0.32 1.46,-0.4 2.55,-0.35 -0.61,0.27 -1.49,0.44 -2.55,0.35 z"
   id="path1026"
   style="fill:#f7efc0" />

		<path
   class="st247"
   d="m 786.55,501.98 c 0.45,0.17 0.45,0.34 0.45,0.76 -3.15,0.44 -6.31,0.62 -9.74,0.51 2.77,-0.62 5.8,-0.94 9.29,-1.27 z"
   id="path1027"
   style="fill:#f3e7a3" />

		<path
   class="st247"
   d="m 750,503.63 c -1.39,0.37 -2.78,0.37 -4.59,0.36 -0.42,-0.45 -0.41,-0.9 -0.41,-1.67 1.43,-0.63 2.85,-0.93 4.65,-1.25 0.36,0.71 0.36,1.45 0.35,2.56 z"
   id="path1028"
   style="fill:#f3e7a3" />

		<path
   class="st257"
   d="m 763.96,501.65 c -0.7,0.34 -1.46,0.34 -2.59,0.34 0.59,-0.22 1.56,-0.45 2.59,-0.34 z"
   id="path1029"
   style="fill:#f2e59b" />

		<path
   class="st249"
   d="m 415,489.68 c -1.71,0.33 -3.42,0.33 -5.56,0.33 -13.96,0.91 -27.5,1.89 -41.04,2.69 -9.72,0.57 -19.44,1.03 -29.17,1.27 -15.71,0.37 -31.81,1.94 -46.74,-3.39 -8.06,-2.87 -15.85,-2.07 -23.71,-2.9 -5.73,-0.61 -11.69,1.06 -17.55,1.68 -11.43,1.21 -22.56,5.17 -34.38,2.92 -5.65,-1.07 -11.54,-0.94 -17.33,-1.24 -13.52,-0.71 -27.04,-1.89 -40.55,-1.85 -9.03,0.03 -18.03,2.22 -27.08,2.76 -10.4,0.62 -20.85,0.47 -31.58,0.37 1.43,-0.63 3.13,-1.15 4.87,-1.28 10.05,-0.76 20.12,-1.41 30.17,-2.16 0.52,-0.04 1,-0.71 1.58,-1.47 2.12,-0.39 4.15,-0.41 6.61,-0.43 4.21,-0.32 8.01,-1.08 11.76,-0.89 22.93,1.18 45.84,2.74 68.78,3.75 4.89,0.21 9.85,-1.32 14.86,-2.42 1.14,-0.38 2.2,-0.38 3.83,-0.16 1.14,-0.24 1.7,-0.71 2.27,-1.18 2.03,-0.01 4.06,-0.03 6.67,0.18 1.15,0.07 1.72,-0.09 2.29,-0.25 1.7,-0.01 3.41,-0.02 5.94,-0.02 2.58,-0.32 4.32,-0.65 6.06,-0.99 0.44,0 0.88,0 2.12,0.01 16.47,-0.44 31.9,1.62 47.36,3.96 16.85,2.56 33.86,2.42 50.9,1.22 16.18,-1.14 32.41,-1.46 48.63,-2.13 0,0.42 -0.01,0.85 -0.01,1.62 z"
   id="path1030"
   style="fill:#efdf87" />

		<path
   class="st253"
   d="m 415.45,488.03 c -16.65,0.69 -32.89,1 -49.07,2.14 -17.04,1.2 -34.05,1.34 -50.9,-1.22 -15.47,-2.35 -30.89,-4.4 -47.03,-3.96 0.83,-0.67 2.1,-1.82 3.43,-1.91 7.44,-0.5 14.93,-1.25 22.36,-0.97 17.05,0.64 34.07,2.02 51.12,2.71 15.77,0.64 31.57,1.16 47.36,1.03 13.92,-0.11 27.83,-1.22 41.74,-1.83 1.31,-0.06 2.63,0.23 3.98,0.94 -5.12,1.41 -10.29,2.24 -15.45,3.06 -2.36,0 -4.73,0 -7.54,0.01 z"
   id="path1031"
   style="fill:#e9d76d" />

		<path
   class="st249"
   d="m 423.11,488.27 c 5.06,-1.08 10.22,-1.91 15.65,-3.03 0.7,-0.29 1.13,-0.29 2.33,-0.27 3.48,-0.32 6.2,-0.67 8.92,-1.01 4.03,-0.32 8.06,-0.64 12.55,-0.97 3.07,0.4 5.69,0.85 8.31,1.18 0.8,0.1 1.65,-0.16 2.47,-0.18 17.08,-0.34 34.16,-0.62 51.23,-1.04 6.61,-0.16 13.21,-0.86 19.82,-0.87 5.94,-0.01 11.88,0.88 17.82,0.83 10.76,-0.09 21.52,-0.62 32.29,-0.9 1.64,-0.04 3.28,0.24 4.94,0.96 -1.78,0.74 -3.57,0.86 -5.36,1.03 -3.36,0.32 -6.71,0.66 -10.07,0.99 -2.04,0 -4.08,0 -7.03,0 -9.83,0.33 -18.75,0.84 -27.67,0.97 -28.92,0.42 -57.84,0.68 -86.76,1.07 -2.52,0.03 -5.02,0.63 -7.54,0.96 -3.73,0.3 -7.46,0.6 -11.59,0.94 -3.23,-0.14 -6.04,-0.33 -9.13,-0.23 -3.33,0.61 -6.39,0.94 -9.86,1.27 -0.69,-0.47 -0.95,-0.95 -1.32,-1.7 z"
   id="path1032"
   style="fill:#efdf87" />

		<path
   class="st253"
   d="m 449.72,483.69 c -2.44,0.62 -5.15,0.96 -8.31,1.28 1.8,-3.71 5.1,-1.59 8.31,-1.28 z"
   id="path1033"
   style="fill:#e9d76d" />

		<path
   class="st253"
   d="m 265.82,484.74 c -1.56,0.57 -3.3,0.91 -5.45,1.22 1.48,-0.5 3.37,-0.98 5.45,-1.22 z"
   id="path1034"
   style="fill:#e9d76d" />

		<path
   class="st253"
   d="m 244.74,486.06 c -0.26,0.47 -0.83,0.94 -1.57,1.18 0.31,-0.55 0.79,-0.86 1.57,-1.18 z"
   id="path1035"
   style="fill:#e9d76d" />

		<path
   class="st253"
   d="m 253.85,485.76 c -0.42,0.38 -0.99,0.54 -1.71,0.48 0.43,-0.38 1,-0.54 1.71,-0.48 z"
   id="path1036"
   style="fill:#e9d76d" />

		<path
   class="st256"
   d="m 584.29,485.29 c 3.06,-0.63 6.42,-0.97 9.78,-1.29 1.79,-0.17 3.58,-0.29 5.66,-0.74 11.97,-0.62 23.66,-0.93 35.8,-0.91 0.46,0.77 0.47,1.21 0.47,1.65 -0.4,0.28 -0.79,0.8 -1.19,0.81 -16.74,0.29 -33.48,0.53 -50.52,0.48 z"
   id="path1037"
   style="fill:#f0e08e" />

		<path
   class="st249"
   d="m 636.44,484 c -0.44,-0.44 -0.44,-0.88 -0.45,-1.64 2.28,0.06 4.57,0.46 6.95,1.22 -1.95,0.39 -4.01,0.41 -6.5,0.42 z"
   id="path1038"
   style="fill:#efdf87" />

		<path
   class="st249"
   d="m 650.79,483.76 c -0.99,0.43 -2.19,0.6 -3.59,0.49 0.99,-0.43 2.19,-0.6 3.59,-0.49 z"
   id="path1039"
   style="fill:#efdf87" />

		<path
   class="st257"
   d="m 930.36,498.97 c -3.73,0.33 -7.17,0.65 -11.04,0.91 2.1,-0.98 4.64,-1.89 7.18,-2.82 1.13,-0.41 2.25,-0.84 3.48,-1.63 0.59,-0.3 1.07,-0.23 1.85,0.29 0.2,1.38 0.11,2.3 0.02,3.23 -0.4,0.01 -0.8,0.01 -1.49,0.02 z"
   id="path1040"
   style="fill:#f2e59b" />

		<path
   class="st248"
   d="m 932.18,498.95 c -0.24,-0.92 -0.15,-1.85 -0.01,-3.1 0.4,-0.39 0.75,-0.44 1.41,-0.18 0.35,0.69 0.39,1.07 0.43,1.46 -0.5,0.6 -1,1.21 -1.83,1.82 z"
   id="path1041"
   style="fill:#f9f2cc" />

		<path
   class="st248"
   d="m 937.75,495.4 c -0.27,0.77 -0.85,1.43 -1.58,1.58 -0.1,-0.89 -0.05,-1.26 0,-1.64 0.43,-0.02 0.85,-0.03 1.58,0.06 z"
   id="path1042"
   style="fill:#f9f2cc" />

		<path
   class="st257"
   d="m 935.78,495.24 c 0.34,0.47 0.29,0.84 0.21,1.5 -0.46,0.29 -0.89,0.29 -1.65,0.34 -0.36,-0.34 -0.4,-0.72 -0.49,-1.38 0.48,-0.36 1,-0.46 1.93,-0.46 z"
   id="path1043"
   style="fill:#f2e59b" />

		<path
   class="st247"
   d="m 110.54,498.99 c 5.48,0 10.5,0 16,0.01 0.2,0.5 -0.06,0.99 -0.43,1.75 -3.69,0.59 -7.29,0.83 -10.87,1.28 -1.92,0.24 -3.79,0.82 -5.96,1.52 -2.75,-0.53 -5.22,-1.33 -7.99,-2.68 C 101,499.88 101,499.44 101,499 c 3.03,0 6.06,0 9.54,-0.01 z"
   id="path1044"
   style="fill:#f3e7a3" />

		<path
   class="st247"
   d="m 235.42,499 c 0.79,-0.91 1.91,-2.42 3.23,-2.63 6.15,-0.99 12.35,-1.85 18.57,-2.2 1.5,-0.08 3.12,1.98 4.74,3.44 -3.36,0.06 -6.78,-0.68 -10.16,-0.49 -5.34,0.3 -10.64,1.22 -16.38,1.88 z"
   id="path1045"
   style="fill:#f3e7a3" />

		<path
   class="st247"
   d="m 133.45,499 c 2.11,-0.98 4.65,-2.74 7.23,-2.8 10.24,-0.22 20.49,0.09 31.03,0.5 -0.59,0.63 -1.47,1.22 -2.36,1.25 -11.82,0.4 -23.64,0.72 -35.9,1.05 z"
   id="path1046"
   style="fill:#f3e7a3" />

		<path
   class="st247"
   d="m 191.29,499.3 c 4.24,-0.63 8.77,-1.25 13.29,-1.22 5.59,0.03 11.17,0.55 16.75,0.98 0.85,0.07 1.66,0.75 2.58,1.55 -10.72,-0.08 -21.52,-0.55 -32.62,-1.31 z"
   id="path1047"
   style="fill:#f3e7a3" />

		<path
   class="st247"
   d="m 178.08,497.4 c 2.86,0.02 5.8,0.42 8.84,1.21 -2.86,-0.02 -5.81,-0.42 -8.84,-1.21 z"
   id="path1048"
   style="fill:#f3e7a3" />

		<path
   class="st247"
   d="m 174.03,497.31 c 0.41,-0.3 0.86,-0.3 1.64,-0.3 0.1,0.52 -0.14,1.04 -0.37,1.55 -0.41,-0.32 -0.82,-0.64 -1.27,-1.25 z"
   id="path1049"
   style="fill:#f3e7a3" />

		<path
   class="st257"
   d="m 59.62,498.99 c 0.94,0.5 1.5,1.01 2.22,1.75 -1.82,2 -3.8,3.75 -5.82,5.85 -0.8,0.35 -1.55,0.36 -2.68,0.33 0.93,-2.44 2.24,-4.83 3.61,-7.57 0.8,-0.35 1.55,-0.35 2.67,-0.36 z"
   id="path1050"
   style="fill:#f2e59b" />

		<path
   class="st249"
   d="m 94.79,492.75 c -1.65,0.76 -3.51,1.26 -5.58,1.51 1.65,-0.77 3.51,-1.27 5.58,-1.51 z"
   id="path1051"
   style="fill:#efdf87" />

		<path
   class="st247"
   d="m 791.06,503.36 c 4.57,1.07 9.2,2.49 13.89,4.26 -4.57,-1.07 -9.2,-2.48 -13.89,-4.26 z"
   id="path1052"
   style="fill:#f3e7a3" />

		<path
   class="st246"
   d="m 88.66,537.91 c -1.48,-5.9 -0.16,-9.58 3.82,-9.66 2.38,-0.05 6.15,1.41 6.85,3.17 0.84,2.11 -0.09,6.05 -1.73,7.77 -2.53,2.64 -6.09,2.21 -8.94,-1.28 z"
   id="path1053"
   style="fill:#a9a08f" />

		<path
   class="st257"
   d="m 100.66,498.85 c 0.34,0.59 0.34,1.03 0.34,1.8 -1.85,0.31 -3.71,0.29 -5.87,0.03 0.85,-2.97 2.81,-3.16 5.53,-1.83 z"
   id="path1054"
   style="fill:#f2e59b" />

		<path
   class="st257"
   d="m 83,500.35 c 1.29,-0.25 2.59,-0.16 3.94,0.28 -1.03,0.72 -2.12,1.1 -3.56,1.48 -0.35,-0.48 -0.36,-0.95 -0.38,-1.76 z"
   id="path1055"
   style="fill:#f2e59b" />

		<path
   class="st257"
   d="m 74.23,500.28 c 1.07,-0.17 2.36,-0.07 3.72,0.37 -1.12,0.19 -2.3,0.04 -3.72,-0.37 z"
   id="path1056"
   style="fill:#f2e59b" />

		<path
   class="st256"
   d="m 455.29,488.3 c 2.22,-0.63 4.73,-1.22 7.24,-1.26 28.92,-0.4 57.84,-0.65 86.76,-1.07 8.92,-0.13 17.84,-0.63 27.23,-0.97 -1.15,0.67 -2.76,1.87 -4.4,1.91 -17.93,0.47 -35.87,0.77 -53.81,1.08 -19.6,0.35 -39.2,0.68 -58.81,0.98 -1.29,0.03 -2.6,-0.24 -4.21,-0.67 z"
   id="path1057"
   style="fill:#f0e08e" />

	</g>

</g>
  </g>
</svg>
